<svg  viewBox="0 0 215 152" fill="none" xmlns="http://www.w3.org/2000/svg">
<path d="M186.661 24.3573V137.249C186.661 140.286 184.199 142.748 181.162 142.748H18.1461C15.1089 142.748 12.647 140.286 12.647 137.249V24.3573C12.647 21.5776 14.9029 19.3219 17.6824 19.3219H181.626C184.405 19.3219 186.661 21.5776 186.661 24.3573Z" fill="#F7F8FA" stroke="#8A8A8A" stroke-width="0.702614"/>
<path d="M193.687 18.0335V130.925C193.687 133.962 191.225 136.424 188.188 136.424H25.1722C22.135 136.424 19.6732 133.962 19.6732 130.925V18.0335C19.6732 15.2539 21.929 12.9981 24.7086 12.9981H188.652C191.431 12.9981 193.687 15.2539 193.687 18.0335Z" fill="#F7F8FA" stroke="#8A8A8A" stroke-width="0.702614"/>
<path d="M128.747 22.4014H125.93C125.851 22.4014 125.778 22.362 125.735 22.2969C125.691 22.2318 125.683 22.1494 125.714 22.0772L128.882 14.4726C128.918 14.385 129.004 14.3283 129.098 14.3283H174.971C175.282 14.4824 175.594 14.6393 175.904 14.7967H129.254L126.281 21.933H187.651H129.098C129.004 21.933 128.918 21.9896 128.882 22.0772L128.747 22.4014Z" fill="#9DC7AC"/>
<path d="M128.747 30.0059H125.93C125.851 30.0059 125.778 29.9665 125.735 29.9014C125.691 29.8363 125.683 29.7539 125.714 29.6813L128.747 22.4012L128.882 22.0771C128.918 21.9895 129.004 21.9328 129.098 21.9328H187.651C187.86 22.0879 188.069 22.2443 188.275 22.4012H129.254L126.281 29.5374H196.286H129.098C129.004 29.5374 128.918 29.5941 128.882 29.6813L128.747 30.0059Z" fill="#9DC7AC"/>
<path d="M128.747 37.6104H125.93C125.851 37.6104 125.778 37.571 125.735 37.5059C125.691 37.4408 125.683 37.3584 125.714 37.2857L128.747 30.0057L128.882 29.6811C128.918 29.594 129.004 29.5373 129.098 29.5373H196.286C196.435 29.6928 196.583 29.8488 196.731 30.0057H129.254L126.281 37.1419H202.625H129.098C129.004 37.1419 128.918 37.1986 128.882 37.2857L128.747 37.6104Z" fill="#9DC7AC"/>
<path d="M200.149 11.2586V124.15C200.149 126.993 197.844 129.298 195.001 129.298H31.9854C29.1422 129.298 26.8376 126.993 26.8376 124.15V11.2586C26.8376 8.67303 28.9362 6.57455 31.5217 6.57455H195.465C198.051 6.57455 200.149 8.67303 200.149 11.2586Z" fill="#4D6DCC"/>
<path d="M200.149 11.2588H199.915V124.15C199.915 125.508 199.365 126.735 198.476 127.625C197.586 128.514 196.359 129.064 195.001 129.064H31.9854C30.6277 129.064 29.4009 128.514 28.511 127.625C27.6215 126.735 27.0721 125.508 27.0719 124.15V11.2588C27.0721 10.0302 27.5699 8.91909 28.3757 8.11296C29.1819 7.30683 30.2929 6.80892 31.5218 6.80892H195.465C196.694 6.80892 197.805 7.30683 198.611 8.11296C199.417 8.91909 199.915 10.0302 199.915 11.2588H200.149H200.383C200.383 8.54344 198.18 6.34051 195.465 6.34051H31.5218C28.8066 6.34051 26.6038 8.54344 26.6035 11.2588V124.15C26.6036 127.123 29.0129 129.532 31.9854 129.532H195.001C197.974 129.532 200.383 127.123 200.383 124.15V11.2588H200.149Z" fill="#17212F"/>
<path d="M200.149 11.2586V21.0015H26.8376V11.2586C26.8376 8.67294 28.9362 6.57446 31.5217 6.57446H195.465C198.051 6.57446 200.149 8.67294 200.149 11.2586Z" fill="#C1C2C0"/>
<path d="M200.149 11.2587H199.915V20.7674H27.0719V11.2587C27.0721 10.0301 27.5699 8.91901 28.3757 8.11288C29.1819 7.30675 30.2929 6.80884 31.5218 6.80884H195.465C196.694 6.80884 197.805 7.30675 198.611 8.11288C199.417 8.91901 199.915 10.0301 199.915 11.2587H200.149H200.383C200.383 8.54336 198.18 6.34043 195.465 6.34043H31.5218C28.8066 6.34043 26.6038 8.54336 26.6035 11.2587V21.2358H200.383V11.2587H200.149Z" fill="#17212F"/>
<path d="M138.535 19.1143H46.08C45.2116 19.1143 44.5076 18.4107 44.5076 17.5418C44.5076 16.6734 45.2116 15.9698 46.08 15.9698H138.535C139.404 15.9698 140.108 16.6734 140.108 17.5418C140.108 18.4107 139.404 19.1143 138.535 19.1143Z" fill="white"/>
<path d="M138.535 19.1139V18.8797H46.08C45.341 18.8788 44.7432 18.2806 44.7417 17.5415C44.7432 16.8028 45.341 16.2046 46.08 16.2037H138.535C139.274 16.2046 139.872 16.8028 139.874 17.5415C139.872 18.2806 139.274 18.8788 138.535 18.8797V19.1139V19.3481C139.533 19.3481 140.342 18.5397 140.342 17.5415C140.342 16.5438 139.533 15.7353 138.535 15.7353H46.08C45.082 15.7353 44.2735 16.5438 44.2733 17.5415C44.2735 18.5397 45.082 19.3481 46.08 19.3481H138.535V19.1139Z" fill="#17212F"/>
<path d="M191.367 16.5186H197.342V16.0501H191.367V16.5186Z" fill="#17212F"/>
<path d="M191.367 17.7754H197.342V17.307H191.367V17.7754Z" fill="#17212F"/>
<path d="M191.367 19.0342H197.342V18.5658H191.367V19.0342Z" fill="#17212F"/>
<path d="M200.149 11.2584V14.0688H26.8376V11.2584C26.8376 8.67277 28.9362 6.57429 31.5217 6.57429H195.465C198.051 6.57429 200.149 8.67277 200.149 11.2584Z" fill="#17212F"/>
<path d="M200.149 11.2591H199.915V13.8353H27.0719V11.2591C27.0721 10.0304 27.5699 8.91935 28.3757 8.11321C29.1819 7.30708 30.2929 6.80917 31.5218 6.80917H195.465C196.694 6.80917 197.805 7.30708 198.611 8.11321C199.417 8.91935 199.915 10.0304 199.915 11.2591H200.149H200.383C200.383 8.54369 198.18 6.34076 195.465 6.34076H31.5218C28.8066 6.34076 26.6038 8.54369 26.6035 11.2591V14.3037H200.383V11.2591H200.149Z" fill="#17212F"/>
<path d="M182.882 10.4782C182.882 9.68888 182.242 9.04856 181.452 9.04856C180.663 9.04856 180.023 9.68888 180.023 10.4782C180.023 11.2674 180.663 11.9077 181.452 11.9077C182.242 11.9077 182.882 11.2674 182.882 10.4782Z" fill="white"/>
<path d="M182.882 10.4778H183.116C183.116 9.55881 182.371 8.81451 181.452 8.81404C180.533 8.81451 179.789 9.55881 179.789 10.4778C179.789 11.3969 180.533 12.1416 181.452 12.1416C182.371 12.1416 183.116 11.3969 183.116 10.4778H182.882H182.647C182.646 11.1378 182.112 11.6718 181.452 11.6732C180.792 11.6718 180.258 11.1378 180.257 10.4778C180.258 9.81784 180.792 9.28386 181.452 9.28245C182.112 9.28386 182.646 9.81784 182.647 10.4778H182.882Z" fill="#17212F"/>
<path d="M188.804 10.4782C188.804 9.68888 188.164 9.04856 187.375 9.04856C186.585 9.04856 185.945 9.68888 185.945 10.4782C185.945 11.2674 186.585 11.9077 187.375 11.9077C188.164 11.9077 188.804 11.2674 188.804 10.4782Z" fill="white"/>
<path d="M188.804 10.4778H189.038C189.038 9.55881 188.294 8.81451 187.375 8.81404C186.456 8.81451 185.711 9.55881 185.711 10.4778C185.711 11.3969 186.456 12.1416 187.375 12.1416C188.294 12.1416 189.038 11.3969 189.038 10.4778H188.804H188.57C188.569 11.1378 188.035 11.6718 187.375 11.6732C186.715 11.6718 186.181 11.1378 186.179 10.4778C186.181 9.81784 186.715 9.28386 187.375 9.28245C188.035 9.28386 188.569 9.81784 188.57 10.4778H188.804Z" fill="#17212F"/>
<path d="M194.726 10.4782C194.726 9.68888 194.086 9.04856 193.296 9.04856C192.507 9.04856 191.867 9.68888 191.867 10.4782C191.867 11.2674 192.507 11.9077 193.296 11.9077C194.086 11.9077 194.726 11.2674 194.726 10.4782Z" fill="white"/>
<path d="M194.726 10.4778H194.96C194.96 9.55881 194.215 8.81451 193.296 8.81404C192.377 8.81451 191.633 9.55881 191.633 10.4778C191.633 11.3969 192.377 12.1416 193.296 12.1416C194.215 12.1416 194.96 11.3969 194.96 10.4778H194.726H194.492C194.491 11.1378 193.957 11.6718 193.296 11.6732C192.636 11.6718 192.102 11.1378 192.101 10.4778C192.102 9.81784 192.636 9.28386 193.296 9.28245C193.957 9.28386 194.491 9.81831 194.492 10.4778H194.726Z" fill="#17212F"/>
<path d="M190.806 122.285H36.6492V25.8129H190.806V122.285Z" fill="white"/>
<path d="M190.806 122.284V122.05H36.8834V26.0468H190.572V122.284H190.806V122.05V122.284H191.04V25.5784H36.415V122.519H191.04V122.284H190.806Z" fill="#17212F"/>
<path d="M186.874 118.286V117.114H41.7529L41.7531 30.9833H185.702L185.703 118.286H186.874V117.114V118.286H188.045V28.6413H39.411V119.457H188.045V118.286H186.874Z" fill="#4D6DCC"/>
<path d="M183.137 113.863V113.629H44.5527V34.468H182.903V113.863H183.137V113.629V113.863H183.371V33.9996H44.0843V114.098H183.371V113.863H183.137Z" fill="#4D6DCC"/>
<path d="M79.6704 55.7441H149.402V55.2757H79.6704V55.7441Z" fill="#17212F"/>
<path d="M173.75 64.6382H178.575V64.1698H173.75V64.6382Z" fill="#17212F"/>
<path d="M132.468 64.6382H171.202V64.1698H132.468V64.6382Z" fill="#17212F"/>
<path d="M110.043 64.6382H130.259V64.1698H110.043V64.6382Z" fill="#17212F"/>
<path d="M79.973 64.6382H108.004V64.1698H79.973V64.6382Z" fill="#17212F"/>
<path d="M61.7954 64.6382H77.0848V64.1698H61.7954V64.6382Z" fill="#17212F"/>
<path d="M50.4969 64.6382H59.5864V64.1698H50.4969V64.6382Z" fill="#17212F"/>
<path d="M108.514 68.9072H178.575V68.4388H108.514V68.9072Z" fill="#17212F"/>
<path d="M54.15 68.9072H106.306V68.4388H54.15V68.9072Z" fill="#17212F"/>
<path d="M50.4969 68.9072H52.1114V68.4388H50.4969V68.9072Z" fill="#17212F"/>
<path d="M173.24 73.1768H178.575V72.7083H173.24V73.1768Z" fill="#17212F"/>
<path d="M144.53 73.1768H170.692V72.7083H144.53V73.1768Z" fill="#17212F"/>
<path d="M104.946 73.1768H142.491V72.7083H104.946V73.1768Z" fill="#17212F"/>
<path d="M99.1702 73.1768H102.737V72.7083H99.1702V73.1768Z" fill="#17212F"/>
<path d="M50.4969 73.1768H96.1119V72.7083H50.4969V73.1768Z" fill="#17212F"/>
<path d="M157.271 77.4458H178.575V76.9774H157.271V77.4458Z" fill="#17212F"/>
<path d="M81.1622 77.4458H155.233V76.9774H81.1622V77.4458Z" fill="#17212F"/>
<path d="M74.367 77.4458H78.4442V76.9774H74.367V77.4458Z" fill="#17212F"/>
<path d="M50.4969 77.4458H72.1579V76.9774H50.4969V77.4458Z" fill="#17212F"/>
<path d="M165.256 81.7148H178.575V81.2464H165.256V81.7148Z" fill="#17212F"/>
<path d="M108.344 81.7148H162.537V81.2464H108.344V81.7148Z" fill="#17212F"/>
<path d="M86.5986 81.7148H105.795V81.2464H86.5986V81.7148Z" fill="#17212F"/>
<path d="M56.189 81.7148H84.05V81.2464H56.189V81.7148Z" fill="#17212F"/>
<path d="M50.4969 81.7148H54.4901V81.2464H50.4969V81.7148Z" fill="#17212F"/>
<path d="M55.6705 100.283L60.0674 111.694L62.1945 106.536L67.3573 108.639L62.3106 97.9203L55.6705 100.283Z" fill="#17212F"/>
<path d="M55.6705 100.284L55.4517 100.368L59.8492 111.779C59.8838 111.869 59.9686 111.928 60.0646 111.929C60.1611 111.931 60.2473 111.873 60.2843 111.784L62.3219 106.842L67.2692 108.856C67.3582 108.892 67.4613 108.87 67.5273 108.801C67.5934 108.731 67.6102 108.627 67.5695 108.54L62.5228 97.8211C62.4713 97.7125 62.3453 97.66 62.2324 97.7003L55.5918 100.063C55.5318 100.085 55.484 100.129 55.4573 100.186C55.4311 100.244 55.4288 100.309 55.4517 100.368L55.6705 100.284L55.7487 100.505L62.1893 98.2127L66.8898 108.196L62.2825 106.32C62.1636 106.271 62.0268 106.328 61.9781 106.447L60.0749 111.063L55.8888 100.2L55.6705 100.284L55.7487 100.505L55.6705 100.284" fill="#17212F"/>
<path d="M54.1041 97.8009L48.7877 108.814L54.0053 106.837L56.003 112.042L60.37 101.029L54.1041 97.8009" fill="#17212F"/>
<path d="M54.1042 97.8011L53.8934 97.699L48.5769 108.712C48.5352 108.798 48.5502 108.901 48.6153 108.972C48.68 109.043 48.7807 109.067 48.8706 109.033L53.8704 107.139L55.7843 112.126C55.819 112.215 55.9057 112.275 56.0017 112.276C56.0982 112.277 56.1853 112.218 56.2209 112.128L60.5879 101.115C60.6324 101.004 60.5841 100.876 60.4773 100.82L54.2114 97.5927C54.1552 97.5636 54.0901 97.5589 54.0301 97.5791C53.9697 97.5992 53.921 97.6418 53.8934 97.699L54.1042 97.8011L53.9969 98.0091L60.074 101.14L56.0068 111.398L54.2241 106.753C54.1782 106.633 54.0428 106.573 53.9224 106.618L49.2542 108.387L54.3154 97.9027L54.1042 97.8011L53.9969 98.0091L54.1042 97.8011" fill="#17212F"/>
<path d="M67.3465 95.0245C67.3465 94.6076 68.2492 94.1317 68.192 93.7302C68.1335 93.3194 67.1325 93.1157 67.0182 92.725C66.9016 92.3283 67.6327 91.6163 67.4632 91.2453C67.2917 90.8701 66.2739 90.9582 66.0528 90.6139C65.8298 90.2682 66.3306 89.3787 66.0622 89.0691C65.7928 88.759 64.841 89.1286 64.5309 88.8593C64.2213 88.5909 64.4527 87.5964 64.1066 87.3739C63.7627 87.1519 62.9538 87.7744 62.5786 87.6025C62.2076 87.4329 62.1491 86.4137 61.7523 86.297C61.3621 86.1828 60.7626 87.0086 60.3513 86.95C59.9504 86.8929 59.6065 85.9308 59.1897 85.9308C58.7728 85.9308 58.429 86.8929 58.0275 86.95C57.6167 87.0086 57.0172 86.1828 56.627 86.297C56.2298 86.4137 56.1712 87.4329 55.8003 87.603C55.4251 87.7744 54.6161 87.1524 54.2723 87.3739C53.9261 87.5969 54.1575 88.5913 53.8479 88.8602C53.5374 89.1291 52.586 88.7595 52.3167 89.0696C52.0483 89.3792 52.549 90.2687 52.3265 90.6149C52.105 90.9587 51.0876 90.8711 50.9161 91.2463C50.7461 91.6168 51.4773 92.3288 51.3611 92.7255C51.2468 93.1157 50.2463 93.3194 50.1878 93.7307C50.1302 94.1317 51.0328 94.6076 51.0328 95.0245C51.0328 95.4413 50.1302 95.9177 50.1878 96.3187C50.2463 96.7299 51.2468 96.9337 51.3611 97.3239C51.4778 97.7206 50.7466 98.4326 50.9161 98.8036C51.0876 99.1788 52.1054 99.0912 52.3265 99.435C52.5495 99.7807 52.0488 100.671 52.3172 100.98C52.5865 101.29 53.5383 100.92 53.8484 101.19C54.158 101.458 53.9266 102.452 54.2728 102.675C54.6166 102.897 55.4255 102.275 55.8007 102.446C56.1717 102.616 56.2303 103.636 56.627 103.752C57.0172 103.866 57.6167 103.041 58.028 103.099C58.429 103.157 58.7728 104.118 59.1897 104.118C59.6065 104.118 59.9504 103.157 60.3518 103.099C60.7626 103.041 61.3621 103.866 61.7523 103.752C62.1495 103.636 62.2081 102.616 62.5791 102.446C62.9543 102.274 63.7632 102.897 64.107 102.675C64.4532 102.452 64.2218 101.458 64.5314 101.189C64.842 100.92 65.7933 101.29 66.0626 100.979C66.331 100.67 65.8303 99.7802 66.0528 99.4345C66.2744 99.0903 67.2917 99.1783 67.4632 98.8031C67.6332 98.4321 66.902 97.7206 67.0182 97.3239C67.1325 96.9332 68.1335 96.7295 68.192 96.3187C68.2492 95.9172 67.3465 95.4413 67.3465 95.0245" fill="#4D6DCC"/>
<path d="M67.3465 95.0241H67.5807C67.5779 95.0077 67.5985 94.9408 67.6664 94.8532C67.7643 94.7206 67.939 94.5595 68.0973 94.3908C68.1765 94.3056 68.2528 94.2175 68.3147 94.1187C68.3756 94.0199 68.4276 93.9056 68.4285 93.7674L68.4238 93.6971C68.3929 93.4999 68.2683 93.3707 68.1461 93.2714C67.9577 93.1229 67.7278 93.0137 67.5427 92.9041C67.4505 92.8502 67.3704 92.7973 67.3179 92.7509C67.264 92.7046 67.2444 92.6685 67.2425 92.6591L67.2397 92.6315C67.2383 92.5936 67.2565 92.5163 67.2964 92.4235C67.3554 92.2839 67.4547 92.1134 67.5441 91.9387C67.6317 91.7621 67.7193 91.5846 67.7231 91.3724C67.7231 91.2998 67.71 91.2221 67.6762 91.1476C67.5905 90.9672 67.4345 90.8796 67.2893 90.8197C67.0668 90.7307 66.8162 90.6914 66.6073 90.6384C66.5038 90.6131 66.412 90.5846 66.3483 90.555C66.2837 90.5255 66.2541 90.4965 66.2495 90.4871C66.2424 90.4778 66.2274 90.437 66.2279 90.3625C66.227 90.2501 66.2598 90.081 66.2977 89.9039C66.3347 89.7245 66.3769 89.5372 66.3773 89.3494C66.3769 89.2084 66.3534 89.05 66.2387 88.9151C66.1506 88.814 66.0363 88.7629 65.9291 88.7357C65.8204 88.7086 65.7113 88.7025 65.6017 88.702C65.3782 88.7025 65.1468 88.7311 64.9637 88.7301C64.8836 88.7306 64.8143 88.725 64.7655 88.7142C64.7159 88.7034 64.6911 88.6889 64.6845 88.6823C64.6723 88.6758 64.6334 88.6125 64.6124 88.4987C64.5768 88.3292 64.5711 88.0809 64.544 87.8429C64.5295 87.723 64.5093 87.6045 64.4676 87.4893C64.4259 87.3764 64.3576 87.257 64.2334 87.1764C64.1313 87.1108 64.0189 87.0907 63.9173 87.0907C63.6798 87.094 63.4601 87.1834 63.2474 87.2588C63.0385 87.3371 62.8366 87.4017 62.7359 87.3984L62.6755 87.3891C62.6633 87.3872 62.6085 87.3375 62.5561 87.234C62.4745 87.0818 62.3991 86.8448 62.3055 86.6241C62.2577 86.5131 62.2047 86.4049 62.1321 86.3061C62.06 86.2091 61.9602 86.1145 61.8183 86.0719C61.7696 86.0578 61.7209 86.0517 61.6736 86.0517C61.5096 86.0536 61.3766 86.1169 61.252 86.1876C61.0665 86.2958 60.8923 86.4396 60.7339 86.5497C60.5784 86.6635 60.4342 86.7249 60.3943 86.7183L60.384 86.7178H60.3845C60.3733 86.7197 60.3068 86.6878 60.2276 86.6031C60.1067 86.4799 59.9676 86.2738 59.8149 86.0883C59.7376 85.9955 59.6557 85.9061 59.5573 85.8321C59.4603 85.7595 59.3376 85.6972 59.1896 85.6962C58.9901 85.699 58.8444 85.8035 58.7282 85.9108C58.554 86.0761 58.4134 86.2883 58.2785 86.456C58.212 86.5398 58.1483 86.6115 58.0954 86.6569C58.042 86.7033 58.0036 86.7174 57.9947 86.7178L57.9848 86.7183C57.9586 86.7202 57.8846 86.6996 57.7933 86.6452C57.6546 86.5665 57.4846 86.4293 57.3085 86.3052C57.1295 86.1848 56.9506 86.0588 56.7051 86.0517C56.6583 86.0517 56.6091 86.0578 56.5604 86.0719H56.5609C56.3702 86.1309 56.2606 86.2724 56.1801 86.4077C56.0601 86.6152 55.9852 86.8579 55.9032 87.0574C55.8629 87.1563 55.8217 87.2429 55.7838 87.3015C55.7454 87.3614 55.7121 87.3862 55.7027 87.3895L55.6423 87.3989C55.5416 87.4022 55.3397 87.3375 55.1313 87.2593C54.9182 87.1839 54.6985 87.0944 54.4615 87.0912C54.3598 87.0912 54.2474 87.1113 54.1453 87.1769C53.979 87.2874 53.9148 87.4537 53.876 87.6059C53.8197 87.8387 53.8165 88.0921 53.794 88.3067C53.7832 88.413 53.7682 88.5076 53.7481 88.5746C53.7279 88.6435 53.7031 88.6767 53.6942 88.6828H53.6947C53.6877 88.6894 53.6628 88.7044 53.6132 88.7147C53.5645 88.7254 53.4951 88.7311 53.415 88.7311C53.2324 88.7315 53.001 88.703 52.7771 88.7025C52.6675 88.703 52.5588 88.709 52.4496 88.7362C52.3424 88.7634 52.2281 88.8149 52.14 88.9161C52.0253 89.0505 52.0019 89.2093 52.0014 89.3498C52.0019 89.5377 52.044 89.7255 52.081 89.9044C52.119 90.0819 52.1517 90.251 52.1513 90.363C52.1517 90.4375 52.1368 90.4787 52.1293 90.4876H52.1297C52.1255 90.5002 52.0684 90.5475 51.9583 90.5845C51.7957 90.6436 51.5503 90.6843 51.3184 90.7457C51.2023 90.7771 51.0875 90.8136 50.9793 90.8717C50.8734 90.9293 50.7652 91.0141 50.7029 91.1485C50.6688 91.2225 50.6561 91.3008 50.6561 91.3729C50.657 91.5153 50.6997 91.6399 50.7503 91.7612C50.8275 91.9415 50.932 92.1167 51.0121 92.275C51.0945 92.4315 51.1433 92.5744 51.1395 92.632L51.1362 92.6591C51.1362 92.6713 51.0955 92.7327 51.0004 92.7992C50.8608 92.9018 50.6369 93.01 50.4322 93.1346C50.3292 93.1978 50.2294 93.2662 50.1423 93.3524C50.0565 93.4381 49.9769 93.5505 49.9554 93.6971L49.9507 93.7674C49.9535 93.9529 50.0397 94.0915 50.131 94.2143C50.2711 94.3974 50.4533 94.5604 50.5929 94.7117C50.6622 94.7867 50.7203 94.8574 50.7549 94.9145C50.791 94.9721 50.7994 95.0115 50.7985 95.0241C50.8013 95.0405 50.7807 95.1075 50.7128 95.1951C50.6149 95.3277 50.4402 95.4888 50.2818 95.6574C50.2027 95.7427 50.1263 95.8307 50.0645 95.93C50.0036 96.0284 49.9516 96.1427 49.9507 96.2814L49.9558 96.3516C49.9863 96.5488 50.1109 96.6776 50.2331 96.7769C50.4214 96.9259 50.6514 97.0346 50.8364 97.1446C50.9287 97.198 51.0088 97.2514 51.0613 97.2973C51.1151 97.3437 51.1348 97.3798 51.1367 97.3891L51.1395 97.4168C51.1409 97.4547 51.1226 97.532 51.0828 97.6247C51.0238 97.7643 50.9245 97.9348 50.835 98.1096C50.7474 98.2861 50.6599 98.4637 50.6561 98.6763C50.6561 98.7485 50.6692 98.8267 50.7029 98.9007C50.7887 99.081 50.9446 99.1691 51.0899 99.229C51.3123 99.3176 51.5629 99.3569 51.7719 99.4099C51.8754 99.4356 51.9672 99.4637 52.0309 99.4932C52.0955 99.5227 52.125 99.5523 52.1297 99.5612C52.1368 99.5705 52.1517 99.6117 52.1513 99.6857C52.1522 99.7982 52.1194 99.9673 52.0815 100.145C52.0445 100.324 52.0023 100.511 52.0019 100.699C52.0023 100.84 52.0257 100.999 52.1405 101.133C52.2286 101.234 52.3429 101.286 52.4501 101.313C52.5588 101.34 52.6679 101.346 52.7771 101.346C53.001 101.346 53.2328 101.318 53.4155 101.318C53.4956 101.318 53.5649 101.323 53.6136 101.334C53.6633 101.345 53.6881 101.36 53.6947 101.366C53.7069 101.372 53.7457 101.436 53.7668 101.55C53.8024 101.719 53.808 101.968 53.8352 102.205C53.8497 102.325 53.8699 102.444 53.9116 102.559C53.9532 102.672 54.0216 102.791 54.1458 102.872C54.2479 102.937 54.3603 102.958 54.4619 102.958C54.6989 102.954 54.9186 102.865 55.1318 102.789C55.3407 102.711 55.5426 102.647 55.6433 102.65L55.7032 102.659C55.7159 102.661 55.7707 102.711 55.8231 102.814C55.9046 102.967 55.98 103.204 56.0737 103.425C56.1215 103.535 56.1744 103.644 56.247 103.742C56.3192 103.839 56.419 103.934 56.5609 103.976C56.6096 103.991 56.6588 103.997 56.7056 103.997C56.8696 103.995 57.0026 103.932 57.1272 103.861C57.3127 103.752 57.4869 103.609 57.6452 103.499C57.8008 103.385 57.945 103.323 57.9848 103.33L57.9947 103.331C58.0059 103.329 58.0724 103.36 58.1516 103.445C58.2724 103.568 58.4116 103.774 58.5643 103.96C58.6416 104.053 58.7235 104.142 58.8219 104.216C58.9189 104.289 59.0416 104.352 59.1896 104.352C59.3891 104.349 59.5348 104.245 59.651 104.138C59.8252 103.972 59.9657 103.76 60.1006 103.592C60.1672 103.508 60.2309 103.437 60.2838 103.392C60.3372 103.345 60.3756 103.331 60.3845 103.331L60.3943 103.33C60.4206 103.328 60.4946 103.349 60.5859 103.403C60.7246 103.482 60.8946 103.619 61.0707 103.744C61.2497 103.864 61.4286 103.989 61.674 103.997C61.7209 103.997 61.7701 103.99 61.8183 103.976C62.0089 103.918 62.1186 103.776 62.1991 103.641C62.319 103.433 62.394 103.19 62.476 102.991C62.5162 102.892 62.5575 102.805 62.5954 102.747C62.6338 102.687 62.6671 102.662 62.6764 102.659L62.7369 102.649C62.8371 102.647 63.039 102.711 63.2479 102.789C63.461 102.864 63.6807 102.954 63.9177 102.957C64.0194 102.958 64.1318 102.937 64.2339 102.871C64.4002 102.761 64.4644 102.595 64.5032 102.442C64.5594 102.21 64.5627 101.956 64.5852 101.742C64.596 101.636 64.611 101.541 64.6311 101.474C64.6513 101.405 64.6761 101.372 64.685 101.365C64.6915 101.359 64.7164 101.344 64.766 101.334C64.8147 101.323 64.884 101.318 64.9641 101.318C65.1468 101.317 65.3782 101.345 65.6021 101.346C65.7117 101.346 65.8204 101.339 65.9291 101.312C66.0368 101.285 66.1511 101.234 66.2392 101.133C66.3539 100.998 66.3773 100.839 66.3778 100.698C66.3773 100.511 66.3352 100.323 66.2982 100.144C66.2602 99.9668 66.2274 99.7977 66.2279 99.6853C66.2274 99.6108 66.2424 99.5701 66.2495 99.5607C66.2541 99.548 66.3108 99.5007 66.4209 99.4637C66.5834 99.4047 66.8289 99.364 67.0607 99.3031C67.1769 99.2712 67.2917 99.2347 67.3999 99.1771C67.5057 99.1194 67.6139 99.0347 67.6762 98.9002C67.7104 98.8257 67.7231 98.748 67.7231 98.6754C67.7221 98.533 67.6795 98.4084 67.6289 98.2871C67.5516 98.1067 67.4472 97.9316 67.3671 97.7732C67.2846 97.6168 67.2359 97.4744 67.2397 97.4168L67.2425 97.3891C67.243 97.377 67.2842 97.3156 67.3788 97.2491C67.5184 97.147 67.7423 97.0383 67.947 96.9137C68.05 96.8505 68.1498 96.7825 68.2369 96.6959C68.3226 96.6102 68.4023 96.4978 68.4238 96.3511L68.4285 96.2809C68.4257 96.0954 68.3395 95.9567 68.2482 95.834C68.1081 95.6509 67.9259 95.4879 67.7863 95.3366C67.717 95.2616 67.6589 95.1909 67.6242 95.1337C67.5882 95.0761 67.5797 95.0368 67.5807 95.0241H67.3465H67.1123C67.1151 95.2101 67.1999 95.352 67.2917 95.4762C67.4317 95.6621 67.6149 95.8261 67.7549 95.9769C67.8247 96.0514 67.8828 96.1216 67.9175 96.1778C67.9535 96.2345 67.961 96.272 67.9601 96.2809V96.2851C67.9615 96.2935 67.9385 96.3441 67.8533 96.4106C67.7301 96.5109 67.5118 96.6205 67.3057 96.7399C67.2022 96.8008 67.1006 96.8655 67.0097 96.9446C66.9202 97.0238 66.8345 97.1207 66.7933 97.2575C66.7774 97.3114 66.7713 97.3653 66.7713 97.4168C66.7722 97.5596 66.8144 97.6852 66.8654 97.807C66.9427 97.9882 67.0472 98.1639 67.1273 98.3222C67.2097 98.4777 67.2584 98.6201 67.2547 98.6754L67.2505 98.7054C67.25 98.7124 67.2144 98.7545 67.1137 98.7944C66.9671 98.8553 66.7268 98.8984 66.4949 98.9546C66.3783 98.9841 66.2621 99.0169 66.1525 99.0675C66.0438 99.118 65.9342 99.1874 65.856 99.3073C65.7773 99.4309 65.7604 99.5626 65.7595 99.6853C65.7604 99.8736 65.8026 100.061 65.8396 100.24C65.8775 100.418 65.9103 100.587 65.9094 100.698C65.9099 100.786 65.8902 100.823 65.8855 100.826C65.8818 100.831 65.8654 100.845 65.8148 100.858C65.7656 100.871 65.6902 100.878 65.6021 100.877C65.4194 100.878 65.1876 100.85 64.9641 100.849C64.8648 100.849 64.766 100.855 64.6672 100.876C64.5693 100.898 64.4672 100.935 64.3782 101.012C64.2353 101.14 64.1866 101.302 64.1533 101.456C64.107 101.691 64.1046 101.944 64.0793 102.15C64.0671 102.252 64.0498 102.34 64.0283 102.397C64.0067 102.456 63.9856 102.475 63.9805 102.478C63.9758 102.481 63.9603 102.489 63.9177 102.489C63.8184 102.492 63.617 102.428 63.4081 102.349C63.195 102.274 62.9748 102.184 62.7369 102.181C62.6549 102.181 62.5673 102.194 62.4816 102.233C62.3087 102.315 62.2174 102.457 62.142 102.596C62.0319 102.807 61.9579 103.05 61.8755 103.24C61.8352 103.334 61.7935 103.414 61.7565 103.463C61.719 103.513 61.6932 103.525 61.6867 103.527V103.527L61.674 103.529C61.6511 103.53 61.578 103.51 61.4871 103.456C61.3499 103.377 61.1794 103.239 61.0023 103.115C60.8225 102.994 60.6407 102.869 60.3943 102.862L60.3185 102.867C60.1292 102.898 60.0023 103.007 59.8913 103.119C59.7264 103.291 59.5873 103.502 59.4542 103.661C59.3891 103.74 59.3264 103.804 59.2767 103.841C59.2261 103.879 59.198 103.884 59.1896 103.884C59.1807 103.886 59.1273 103.871 59.0486 103.796C58.932 103.688 58.7924 103.487 58.6448 103.3C58.5699 103.207 58.4921 103.115 58.4013 103.037C58.3104 102.959 58.2022 102.888 58.0607 102.867H58.0612L57.9848 102.862C57.82 102.863 57.6855 102.926 57.56 102.997C57.3726 103.106 57.1979 103.249 57.0396 103.36C56.885 103.474 56.7407 103.536 56.7056 103.529L56.693 103.527C56.685 103.528 56.6386 103.498 56.5848 103.404C56.5033 103.268 56.4264 103.036 56.3374 102.815C56.292 102.704 56.2428 102.594 56.1772 102.492C56.1117 102.392 56.0278 102.293 55.8981 102.233C55.8128 102.194 55.7252 102.181 55.6433 102.181C55.4053 102.185 55.1847 102.274 54.9716 102.35C54.7627 102.428 54.5608 102.492 54.4619 102.489C54.4193 102.489 54.4034 102.481 54.3992 102.478C54.3926 102.477 54.3561 102.436 54.3313 102.33C54.2919 102.177 54.2835 101.933 54.2605 101.695C54.2479 101.575 54.2315 101.456 54.1973 101.34C54.1622 101.225 54.1092 101.107 54.0015 101.012C53.9125 100.935 53.8108 100.898 53.7129 100.876C53.6141 100.855 53.5153 100.85 53.4155 100.85C53.1921 100.85 52.9602 100.879 52.7771 100.878C52.689 100.878 52.6136 100.871 52.5649 100.859C52.5143 100.846 52.4979 100.831 52.4941 100.826C52.4895 100.824 52.4693 100.787 52.4703 100.699C52.4693 100.587 52.5021 100.418 52.5401 100.241C52.5766 100.062 52.6187 99.874 52.6197 99.6857C52.6192 99.563 52.6019 99.4314 52.5237 99.3077C52.4169 99.1485 52.2637 99.0778 52.1157 99.023C51.8904 98.9438 51.6398 98.9054 51.4398 98.851C51.3409 98.8248 51.2561 98.7948 51.2023 98.7653C51.147 98.7354 51.1315 98.7124 51.1292 98.7058L51.1245 98.6763C51.1236 98.6398 51.1414 98.563 51.1817 98.4712C51.2402 98.332 51.34 98.1615 51.4295 97.9864C51.517 97.8088 51.6046 97.6304 51.6079 97.4168C51.6079 97.3653 51.6018 97.3114 51.5859 97.2575C51.5288 97.0748 51.4018 96.9643 51.2753 96.8701C51.0819 96.731 50.8528 96.6233 50.6767 96.5146C50.5891 96.4612 50.5165 96.4083 50.4734 96.3647C50.4285 96.3202 50.42 96.2931 50.4191 96.2856V96.2814C50.4163 96.2701 50.436 96.2041 50.5039 96.1174C50.6022 95.9863 50.7774 95.8251 50.9362 95.6551C51.0158 95.5689 51.0922 95.4799 51.154 95.3792C51.2149 95.279 51.266 95.1628 51.2669 95.0241C51.2641 94.8382 51.1789 94.6967 51.0875 94.5721C50.9475 94.3862 50.7643 94.2222 50.6243 94.0714C50.5545 93.9969 50.4964 93.9267 50.4617 93.8704C50.4257 93.8142 50.4182 93.7763 50.4191 93.7674V93.7632C50.4177 93.7547 50.4406 93.7042 50.5259 93.6377C50.6491 93.5374 50.8674 93.4278 51.0735 93.3084C51.177 93.2475 51.2786 93.1828 51.3695 93.1041C51.459 93.025 51.5447 92.928 51.5859 92.7912C51.6018 92.7369 51.6079 92.6835 51.6079 92.632C51.607 92.4891 51.5648 92.3631 51.5138 92.2418C51.4365 92.06 51.332 91.8844 51.2519 91.7265C51.1695 91.5706 51.1208 91.4282 51.1245 91.3729L51.1287 91.3434C51.1292 91.3359 51.1648 91.2937 51.2655 91.2544C51.4121 91.1935 51.6529 91.1504 51.8843 91.0937C52.0009 91.0647 52.1171 91.0314 52.2267 90.9808C52.3354 90.9302 52.445 90.8609 52.5232 90.7415C52.6019 90.6173 52.6187 90.4857 52.6197 90.363C52.6187 90.1747 52.5766 89.9873 52.5396 89.8079C52.5016 89.6304 52.4689 89.4618 52.4698 89.3498C52.4693 89.2627 52.489 89.2257 52.4937 89.2229C52.4974 89.2182 52.5143 89.2032 52.5644 89.1906C52.6136 89.1779 52.689 89.1709 52.7771 89.1709C52.9597 89.1704 53.1916 89.1985 53.415 89.1995C53.5143 89.199 53.6132 89.1938 53.712 89.1728C53.8099 89.1512 53.912 89.1133 54.001 89.0369L54.009 89.0299L54.0015 89.0365C54.1439 88.9086 54.1926 88.747 54.2259 88.5919C54.2722 88.3577 54.2746 88.1039 54.2999 87.8987C54.312 87.7966 54.3294 87.7085 54.3509 87.6514C54.3725 87.5924 54.3935 87.5736 54.3992 87.5703C54.4029 87.5675 54.4188 87.5596 54.4615 87.5596C54.5603 87.5563 54.7622 87.6209 54.9706 87.6992C55.1838 87.7746 55.4044 87.864 55.6423 87.8673C55.7243 87.8673 55.8119 87.8547 55.8976 87.8153C56.0705 87.7329 56.1618 87.5914 56.2372 87.4523C56.3473 87.241 56.4213 86.9984 56.5037 86.8087C56.544 86.7146 56.5857 86.6349 56.6227 86.5857C56.6602 86.5352 56.6859 86.523 56.6925 86.5216H56.693L56.7051 86.5202C56.7281 86.5183 56.8012 86.5384 56.892 86.5928C57.0293 86.6715 57.1998 86.8092 57.3769 86.9338C57.5567 87.0541 57.738 87.1801 57.9848 87.1867L58.0607 87.1816C58.25 87.1511 58.3769 87.041 58.4879 86.9291C58.6528 86.7576 58.7919 86.5464 58.9249 86.3876C58.99 86.3084 59.0528 86.2438 59.1025 86.2073C59.1531 86.1693 59.1812 86.1642 59.1896 86.1646C59.1985 86.1623 59.2519 86.1778 59.3306 86.2527C59.4472 86.3604 59.5868 86.5609 59.7344 86.7478C59.8093 86.8415 59.8871 86.9328 59.9779 87.012C60.0688 87.0893 60.177 87.16 60.3185 87.1816L60.3245 87.1825L60.3185 87.1816L60.3943 87.1867C60.5592 87.1848 60.6937 87.1221 60.8192 87.0513C61.0066 86.9427 61.1813 86.7989 61.3396 86.6888C61.4942 86.5745 61.6384 86.5131 61.6736 86.5202L61.6862 86.5216C61.6942 86.5211 61.7406 86.5506 61.7944 86.6443C61.8759 86.7806 61.9527 87.0125 62.0417 87.2335C62.0872 87.345 62.1364 87.4551 62.2019 87.5563C62.2675 87.6565 62.3514 87.7549 62.4811 87.8153C62.5664 87.8542 62.6539 87.8668 62.7359 87.8668C62.9739 87.8636 63.1945 87.7741 63.4076 87.6987C63.6165 87.6205 63.818 87.5558 63.9173 87.5591C63.9599 87.5596 63.9753 87.5675 63.98 87.5703C63.9866 87.5713 64.0231 87.6125 64.0479 87.7179C64.0873 87.8715 64.0957 88.116 64.1187 88.3535C64.1313 88.473 64.1477 88.5924 64.1819 88.7086C64.217 88.8233 64.27 88.9414 64.3777 89.036C64.4667 89.1128 64.5688 89.1508 64.6667 89.1718C64.7655 89.1929 64.8644 89.1985 64.9637 89.1985C65.1876 89.1981 65.419 89.17 65.6017 89.1704C65.6902 89.1704 65.7651 89.1774 65.8143 89.1901C65.8649 89.2027 65.8813 89.2177 65.885 89.222C65.8897 89.2252 65.9099 89.2618 65.9089 89.3494C65.9099 89.4613 65.8771 89.6299 65.8391 89.8075C65.8021 89.9864 65.7604 90.1742 65.7595 90.3625C65.76 90.4852 65.7773 90.6169 65.8555 90.7405C65.9619 90.8998 66.1155 90.9705 66.2635 91.0253C66.4888 91.1045 66.7394 91.1434 66.9394 91.1977C67.0383 91.2235 67.123 91.2534 67.1769 91.283C67.2322 91.3129 67.2476 91.3364 67.25 91.3424L67.2547 91.3724C67.2556 91.4085 67.2378 91.4853 67.1975 91.5771C67.139 91.7162 67.0392 91.8867 66.9497 92.0619C66.8621 92.2394 66.7745 92.4179 66.7713 92.6315C66.7713 92.683 66.7774 92.7369 66.7933 92.7908C66.8504 92.9734 66.9774 93.084 67.1038 93.1786C67.2973 93.3173 67.5263 93.4255 67.7025 93.5341C67.7901 93.5875 67.8627 93.6405 67.9058 93.684C67.9507 93.7285 67.9592 93.7557 67.9601 93.7632V93.7674C67.9629 93.7782 67.9432 93.8442 67.8753 93.9309C67.7769 94.062 67.6018 94.2232 67.443 94.3932C67.3633 94.4794 67.287 94.5688 67.2252 94.6691C67.1643 94.7693 67.1132 94.8855 67.1123 95.0241H67.3465" fill="#17212F"/>
<path d="M64.8405 95.0244C64.8405 91.9034 62.3106 89.3735 59.1896 89.3735C56.0686 89.3735 53.5387 91.9034 53.5387 95.0244C53.5387 98.1454 56.0686 100.675 59.1896 100.675C62.3106 100.675 64.8405 98.1454 64.8405 95.0244Z" fill="#17212F"/>
<path d="M64.8405 95.0246H65.0747C65.0747 91.7743 62.4399 89.1395 59.1896 89.1395C55.9393 89.1395 53.3045 91.7743 53.3045 95.0246C53.3045 98.2749 55.9393 100.91 59.1896 100.91C62.4399 100.91 65.0747 98.2749 65.0747 95.0246H64.8405H64.6063C64.6063 96.5211 64.0006 97.8739 63.0198 98.8547C62.0389 99.8356 60.6862 100.441 59.1896 100.441C57.693 100.441 56.3403 99.8356 55.3594 98.8547C54.3786 97.8739 53.7729 96.5211 53.7729 95.0246C53.7729 93.528 54.3786 92.1752 55.3594 91.1944C56.3403 90.214 57.693 89.6079 59.1896 89.6079C60.6862 89.6079 62.0389 90.214 63.0198 91.1944C64.0006 92.1752 64.6063 93.528 64.6063 95.0246H64.8405Z" fill="#17212F"/>
<path d="M59.1896 91.1449L60.0608 93.8256H62.8793L60.599 95.4824L61.4698 98.1631L59.1896 96.5063L56.9094 98.1631L57.7802 95.4824L55.4999 93.8256H58.3184L59.1896 91.1449" fill="#4D6DCC"/>
<path d="M73.9909 92.5508H95.5377V92.0824H73.9909V92.5508Z" fill="#17212F"/>
<path d="M105.041 92.5508H126.588V92.0824H105.041V92.5508Z" fill="#17212F"/>
<path d="M73.9909 97.7002H95.5377V97.2318H73.9909V97.7002Z" fill="#17212F"/>
<path d="M105.041 97.7002H126.588V97.2318H105.041V97.7002Z" fill="#17212F"/>
<path d="M174.543 96.5289H174.777C174.777 91.9755 171.086 88.2849 166.533 88.2845C161.98 88.2849 158.289 91.9755 158.289 96.5289C158.289 101.082 161.98 104.773 166.533 104.773C171.086 104.773 174.777 101.082 174.777 96.5289H174.543H174.308C174.308 98.6766 173.439 100.619 172.031 102.027C170.623 103.435 168.681 104.305 166.533 104.305C164.385 104.305 162.443 103.435 161.035 102.027C159.627 100.619 158.757 98.6766 158.757 96.5289C158.757 94.3808 159.627 92.4383 161.035 91.0307C162.443 89.6232 164.385 88.7533 166.533 88.7529C168.681 88.7533 170.623 89.6232 172.031 91.0307C173.439 92.4383 174.308 94.3808 174.308 96.5289H174.543" fill="#4D6DCC"/>
<path d="M171.968 96.5289C171.968 93.5269 169.535 91.0935 166.533 91.0935C163.531 91.0935 161.097 93.5269 161.097 96.5289C161.097 99.5305 163.531 101.964 166.533 101.964C169.535 101.964 171.968 99.5305 171.968 96.5289Z" fill="#4D6DCC"/>
<path d="M79.324 46.3942H80.6106C80.5694 46.8848 80.4322 47.3223 80.1989 47.7065C79.9656 48.0873 79.6379 48.3875 79.216 48.6071C78.794 48.8266 78.2811 48.9364 77.6773 48.9364C77.2141 48.9364 76.7973 48.8541 76.4268 48.6894C76.0563 48.5213 75.7389 48.2846 75.4747 47.9792C75.2106 47.6705 75.0082 47.2982 74.8675 46.8625C74.7303 46.4268 74.6617 45.9397 74.6617 45.401V44.7784C74.6617 44.2397 74.732 43.7526 74.8726 43.3169C75.0167 42.8812 75.2226 42.5089 75.4902 42.2002C75.7578 41.888 76.0786 41.6495 76.4525 41.4849C76.8299 41.3202 77.2536 41.2379 77.7236 41.2379C78.3205 41.2379 78.8249 41.3476 79.2365 41.5672C79.6482 41.7868 79.9673 42.0904 80.1937 42.4781C80.4236 42.8657 80.5642 43.31 80.6157 43.8109H79.3292C79.2949 43.4884 79.2194 43.2122 79.1027 42.9824C78.9895 42.7525 78.8214 42.5776 78.5984 42.4575C78.3754 42.334 78.0838 42.2722 77.7236 42.2722C77.4285 42.2722 77.1712 42.3271 76.9517 42.4369C76.7321 42.5467 76.5486 42.7079 76.401 42.9206C76.2535 43.1333 76.142 43.3958 76.0665 43.708C75.9945 44.0167 75.9585 44.3701 75.9585 44.7681V45.401C75.9585 45.7784 75.9911 46.1215 76.0563 46.4303C76.1249 46.7356 76.2278 46.9981 76.365 47.2176C76.5057 47.4372 76.6841 47.607 76.9002 47.7271C77.1163 47.8472 77.3754 47.9072 77.6773 47.9072C78.0444 47.9072 78.3411 47.8489 78.5676 47.7322C78.7974 47.6156 78.9707 47.4458 79.0873 47.2228C79.2074 46.9963 79.2863 46.7202 79.324 46.3942ZM87.742 47.8094V48.8335H83.7641V47.8094H87.742ZM84.1295 41.3408V48.8335H82.8378V41.3408H84.1295ZM87.2223 44.4696V45.4782H83.7641V44.4696H87.2223ZM87.7163 41.3408V42.37H83.7641V41.3408H87.7163ZM92.6967 46.0392H90.7463V45.0151H92.6967C93.0363 45.0151 93.3108 44.9602 93.5201 44.8504C93.7293 44.7406 93.882 44.5897 93.9781 44.3976C94.0776 44.202 94.1273 43.979 94.1273 43.7286C94.1273 43.4918 94.0776 43.2706 93.9781 43.0647C93.882 42.8554 93.7293 42.6873 93.5201 42.5604C93.3108 42.4335 93.0363 42.37 92.6967 42.37H91.1426V48.8335H89.8509V41.3408H92.6967C93.2765 41.3408 93.7688 41.4437 94.1736 41.6495C94.5819 41.852 94.8924 42.1333 95.1051 42.4935C95.3178 42.8503 95.4241 43.2586 95.4241 43.7183C95.4241 44.202 95.3178 44.6171 95.1051 44.9636C94.8924 45.3101 94.5819 45.576 94.1736 45.7613C93.7688 45.9465 93.2765 46.0392 92.6967 46.0392ZM100.718 41.3408V48.8335H99.437V41.3408H100.718ZM103.07 41.3408V42.37H97.1059V41.3408H103.07ZM106.388 46.7287L109.713 41.3408H111.004V48.8335H109.713V43.4404L106.388 48.8335H105.102V41.3408H106.388V46.7287ZM116.324 42.0458H117.796C118.239 42.0458 118.645 42.1195 119.016 42.2671C119.39 42.4146 119.716 42.6239 119.994 42.8949C120.272 43.1625 120.488 43.485 120.642 43.8624C120.796 44.2363 120.874 44.6531 120.874 45.1129C120.874 45.5657 120.796 45.9791 120.642 46.3531C120.488 46.727 120.272 47.0495 119.994 47.3205C119.716 47.5881 119.39 47.794 119.016 47.9381C118.645 48.0822 118.239 48.1542 117.796 48.1542H116.324C115.885 48.1542 115.479 48.0822 115.105 47.9381C114.731 47.794 114.403 47.5881 114.122 47.3205C113.844 47.0529 113.628 46.7339 113.474 46.3634C113.323 45.9894 113.247 45.576 113.247 45.1232C113.247 44.6634 113.323 44.2466 113.474 43.8727C113.628 43.4953 113.844 43.1711 114.122 42.9C114.403 42.6256 114.731 42.4146 115.105 42.2671C115.479 42.1195 115.885 42.0458 116.324 42.0458ZM116.324 43.075C115.94 43.075 115.609 43.1573 115.331 43.322C115.053 43.4833 114.839 43.7166 114.688 44.0219C114.541 44.3272 114.467 44.6943 114.467 45.1232C114.467 45.4388 114.51 45.7201 114.595 45.9671C114.681 46.2141 114.805 46.4234 114.966 46.5949C115.127 46.7665 115.323 46.8986 115.553 46.9912C115.782 47.0838 116.04 47.1301 116.324 47.1301H117.807C118.187 47.1301 118.515 47.0495 118.789 46.8883C119.064 46.7236 119.275 46.4903 119.422 46.1884C119.573 45.8865 119.649 45.528 119.649 45.1129C119.649 44.7938 119.606 44.5091 119.52 44.2586C119.438 44.0047 119.316 43.7903 119.155 43.6153C118.997 43.4404 118.805 43.3066 118.578 43.214C118.352 43.1213 118.095 43.075 117.807 43.075H116.324ZM117.683 41.032V49.1423H116.443V41.032H117.683ZM124.336 46.7287L127.66 41.3408H128.952V48.8335H127.66V43.4404L124.336 48.8335H123.049V41.3408H124.336V46.7287ZM132.867 41.3408V48.8335H131.581V41.3408H132.867ZM137.375 41.3408L134.329 45.612H132.502L132.327 44.4902H133.613L135.795 41.3408H137.375ZM136.058 48.8335L133.634 45.4165L134.468 44.4233L137.607 48.8335H136.058ZM142.32 42.3391L140.081 48.8335H138.728L141.548 41.3408H142.412L142.32 42.3391ZM144.193 48.8335L141.949 42.3391L141.851 41.3408H142.721L145.551 48.8335H144.193ZM144.085 46.0546V47.0787H140.009V46.0546H144.085ZM149.878 41.3408V48.8335H148.597V41.3408H149.878ZM152.23 41.3408V42.37H146.266V41.3408H152.23Z" fill="#4D6DCC"/>
</svg>
