<svg  viewBox="0 0 221 433" fill="none" xmlns="http://www.w3.org/2000/svg">
<g clip-path="url(#clip0_291_3129)">
<path d="M191.759 74.3382C177.879 48.3691 158.96 28.1721 139.876 15.6445C115.049 -0.653154 85.0651 -2.62315 59.2666 19.3417C41.0067 34.8877 24.9093 64.3577 18.7776 96.242C15.7285 112.097 15.0265 128.411 17.0201 144.028C19.1764 160.925 23.9611 177.735 21.2521 195.854C17.9967 217.63 8.92825 236.334 5.1664 257.841C-3.17344 305.527 21.759 347.538 48.5152 356.419C72.5989 364.413 92.2631 336.327 113.361 319.567C129.377 306.843 147.07 305.358 162.981 291.219C186 270.761 203.935 235.146 210.703 194.988C218.582 148.233 209.102 106.782 191.759 74.3382Z" fill="#EBEEF7"/>
<path d="M150.695 354.479L149.868 402.43L131.128 402.982L124.514 358.337L150.695 354.479" fill="#1B151F"/>
<path d="M150.695 354.479L151.173 354.488L150.339 402.895L130.718 403.473L123.972 357.934L151.183 353.924L151.173 354.488L150.695 354.479L150.765 354.952L125.057 358.74L131.539 402.493L149.399 401.966L150.217 354.471L150.695 354.479L150.765 354.952L150.695 354.479" fill="#1B151F"/>
<path d="M149.868 402.43C149.868 402.43 151.522 407.116 152.624 408.769C153.726 410.424 157.86 415.384 160.065 419.517C162.27 423.65 157.584 426.682 151.522 426.682C145.459 426.682 139.397 423.099 137.743 420.068C136.089 417.036 134.16 414.832 134.16 414.832C134.16 414.832 133.057 415.107 132.782 411.25C132.507 407.392 131.128 402.982 131.128 402.982L149.868 402.43" fill="#767A7C"/>
<path d="M149.868 402.43L150.319 402.272C150.319 402.273 150.421 402.56 150.592 403.022C150.849 403.716 151.26 404.796 151.707 405.851C152.153 406.903 152.644 407.941 153.022 408.504C153.548 409.296 154.866 410.963 156.316 412.93C157.769 414.902 159.364 417.188 160.486 419.292C160.896 420.059 161.097 420.816 161.097 421.541C161.098 422.413 160.802 423.225 160.288 423.919C159.518 424.963 158.283 425.762 156.77 426.312C155.256 426.862 153.454 427.16 151.522 427.16C148.396 427.159 145.3 426.242 142.76 424.938C140.222 423.626 138.233 421.949 137.323 420.297C136.511 418.807 135.627 417.514 134.947 416.598C134.608 416.139 134.319 415.775 134.116 415.525C134.015 415.401 133.936 415.305 133.881 415.241L133.8 415.147L134.16 414.832L134.275 415.296L134.113 415.314C133.981 415.316 133.788 415.278 133.594 415.156C133.301 414.971 133.029 414.628 132.805 414.036C132.581 413.441 132.399 412.579 132.305 411.283C132.171 409.397 131.763 407.35 131.387 405.78C131.2 404.995 131.02 404.33 130.888 403.862C130.756 403.393 130.672 403.125 130.672 403.125L130.484 402.523L150.203 401.943L150.319 402.272L149.868 402.43L149.883 402.908L131.143 403.46L131.128 402.982L131.584 402.84C131.589 402.858 132.975 407.277 133.259 411.215C133.375 412.863 133.653 413.701 133.871 414.069C133.979 414.255 134.064 414.322 134.101 414.346L134.13 414.36L134.113 414.425V414.358L134.13 414.36L134.113 414.425V414.358V414.639L134.045 414.369L134.113 414.358V414.639L134.045 414.369L134.328 414.298L134.52 414.518C134.533 414.534 136.48 416.758 138.163 419.839C138.906 421.217 140.776 422.849 143.197 424.087C145.618 425.332 148.586 426.206 151.522 426.204C153.966 426.206 156.172 425.694 157.724 424.841C158.5 424.416 159.111 423.908 159.519 423.353C159.927 422.796 160.14 422.198 160.141 421.541C160.141 420.994 159.991 420.395 159.643 419.742C158.562 417.713 156.988 415.452 155.546 413.497C154.103 411.537 152.803 409.897 152.226 409.034C151.63 408.135 150.948 406.549 150.389 405.158C149.834 403.77 149.419 402.594 149.418 402.59L149.868 402.43L149.883 402.908L149.868 402.43Z" fill="#1B151F"/>
<path d="M151.522 426.682C145.459 426.682 139.397 423.099 137.743 420.068C136.089 417.036 134.16 414.832 134.16 414.832C134.16 414.832 133.057 415.107 132.782 411.25C132.749 410.785 132.699 410.314 132.639 409.842C133.749 410.671 134.883 411.566 135.54 412.221C137.147 413.83 139.291 420.976 147.509 424.013C155.728 427.05 160.065 419.517 160.065 419.517C162.27 423.65 157.584 426.682 151.522 426.682" fill="#767A7C"/>
<path d="M151.522 426.682V427.16C148.396 427.159 145.3 426.242 142.76 424.938C140.222 423.626 138.233 421.949 137.323 420.297C136.511 418.807 135.627 417.514 134.947 416.598C134.608 416.139 134.319 415.775 134.116 415.525C134.015 415.401 133.936 415.305 133.881 415.241L133.8 415.147L134.16 414.832L134.275 415.296L134.113 415.314C133.981 415.316 133.788 415.278 133.594 415.156C133.301 414.971 133.029 414.628 132.805 414.036C132.581 413.441 132.399 412.579 132.305 411.283C132.273 410.831 132.224 410.368 132.164 409.904L132.02 408.785L132.924 409.459C134.045 410.296 135.183 411.191 135.877 411.884H135.878C136.358 412.372 136.784 413.129 137.344 414.073C139.01 416.899 141.673 421.343 147.676 423.565C149.005 424.057 150.216 424.257 151.316 424.257C154.037 424.257 156.111 423.024 157.527 421.769C158.233 421.142 158.769 420.513 159.125 420.044C159.303 419.808 159.437 419.614 159.525 419.48L159.622 419.326L159.651 419.279L160.081 418.531L160.486 419.292C160.896 420.059 161.097 420.816 161.097 421.541C161.098 422.413 160.802 423.225 160.288 423.919C159.518 424.963 158.283 425.762 156.77 426.312C155.256 426.862 153.454 427.16 151.522 427.16V426.682V426.204C153.966 426.206 156.172 425.694 157.724 424.841C158.5 424.416 159.111 423.908 159.519 423.353C159.927 422.796 160.14 422.198 160.141 421.541C160.141 420.994 159.991 420.395 159.643 419.742L160.065 419.517L160.48 419.756C160.462 419.783 159.688 421.127 158.162 422.483C156.639 423.837 154.339 425.213 151.316 425.213C150.099 425.213 148.771 424.989 147.344 424.462C143.13 422.906 140.461 420.283 138.663 417.867C137.763 416.66 137.077 415.503 136.52 414.559C135.97 413.615 135.525 412.876 135.201 412.56L135.164 412.523L135.202 412.56C134.583 411.941 133.455 411.047 132.353 410.226L132.639 409.842L133.113 409.781C133.174 410.26 133.225 410.74 133.259 411.215C133.375 412.863 133.653 413.701 133.871 414.069C133.979 414.255 134.064 414.322 134.101 414.346L134.13 414.36L134.113 414.425V414.358L134.13 414.36L134.113 414.425V414.358V414.639L134.045 414.369L134.113 414.358V414.639L134.045 414.369L134.328 414.298L134.52 414.518C134.533 414.534 136.48 416.758 138.163 419.839C138.906 421.217 140.776 422.849 143.197 424.087C145.618 425.332 148.586 426.206 151.522 426.204V426.682Z" fill="#1B151F"/>
<path d="M91.7202 359.164L88.6882 400.502L70.2244 398.572L66.0911 357.511L91.7202 359.164Z" fill="#1B151F"/>
<path d="M91.7201 359.164L92.197 359.199L89.1287 401.028L69.7874 399.007L65.5586 356.997L92.2324 358.718L92.197 359.199L91.7201 359.164L91.6895 359.641L66.6224 358.024L70.661 398.138L88.2473 399.976L91.244 359.129L91.7201 359.164L91.6895 359.641L91.7201 359.164" fill="#1B151F"/>
<path d="M70.2243 398.573C70.2243 398.573 68.2953 404.636 66.0911 407.392C63.8859 410.147 58.3743 417.037 60.0279 421.722C61.6806 426.407 72.9801 425.029 77.1143 423.1C81.2475 421.171 81.7991 415.934 83.728 414.006C85.657 412.076 86.4838 410.424 87.0354 408.219C87.586 406.013 88.6881 400.503 88.6881 400.503L70.2243 398.573" fill="#767A7C"/>
<path d="M70.2244 398.573L70.6793 398.718C70.6774 398.726 70.1919 400.25 69.4272 402.129C68.6586 404.01 67.6244 406.234 66.4639 407.69C65.5033 408.891 63.9261 410.864 62.5955 413.08C61.2611 415.294 60.1953 417.753 60.201 419.84C60.201 420.449 60.2889 421.024 60.4782 421.564C60.828 422.555 61.696 423.261 62.9788 423.736C64.2539 424.208 65.9038 424.414 67.6397 424.413C71.1114 424.418 74.9474 423.589 76.9127 422.667C78.8282 421.774 79.939 420.101 80.8203 418.339C81.7093 416.581 82.3038 414.774 83.3897 413.668C85.268 411.781 86.0279 410.253 86.5718 408.103C86.8433 407.016 87.2572 405.086 87.6003 403.436C87.9445 401.785 88.2188 400.412 88.2198 400.409L88.6882 400.503L88.6384 400.978L70.1747 399.048L70.2244 398.573L70.6793 398.718L70.2244 398.573L70.2741 398.098L89.2598 400.081L89.1575 400.596C89.1556 400.6 88.0554 406.104 87.499 408.334C86.9399 410.594 86.0461 412.372 84.0655 414.344C83.2234 415.166 82.5782 416.941 81.6758 418.767C80.7648 420.587 79.5337 422.497 77.316 423.533C75.1462 424.539 71.2653 425.364 67.6397 425.369C65.8283 425.368 64.0857 425.162 62.6481 424.634C61.2181 424.11 60.0538 423.231 59.5768 421.881C59.3464 421.227 59.2451 420.54 59.2451 419.84C59.2518 417.438 60.4065 414.876 61.7753 412.588C63.148 410.303 64.7538 408.297 65.7174 407.092C66.7622 405.793 67.7945 403.608 68.542 401.768C68.9167 400.848 69.2245 400.01 69.4377 399.404C69.5447 399.101 69.6269 398.856 69.6833 398.687C69.7397 398.518 69.7684 398.429 69.7684 398.429L69.8869 398.057L70.2741 398.098L70.2244 398.573" fill="#1B151F"/>
<path d="M61.934 420.263C63.5427 422.584 67.8299 423.121 72.832 422.406C77.8351 421.692 81.5869 414.188 82.6584 411.687C83.3677 410.031 85.637 408.693 87.0938 407.974L87.0354 408.219C86.4839 410.424 85.657 412.076 83.7281 414.005C81.7991 415.934 81.2476 421.171 77.1143 423.1C72.9802 425.029 61.6807 426.407 60.028 421.722C59.4936 420.208 59.7135 418.465 60.3224 416.704C60.6082 417.721 61.1033 419.062 61.934 420.263" fill="#767A7C"/>
<path d="M61.934 420.263L62.3268 419.99C62.8354 420.726 63.6794 421.286 64.8198 421.663C65.9563 422.039 67.3768 422.223 68.9731 422.222C70.1546 422.222 71.4326 422.123 72.7651 421.932C75.0429 421.619 77.1755 419.67 78.8359 417.43C80.4991 415.2 81.6949 412.724 82.2187 411.498C82.6317 410.544 83.4356 409.758 84.3083 409.097C85.1829 408.439 86.1369 407.913 86.8825 407.546L87.7972 407.094L87.5 408.331L87.499 408.334C86.9398 410.594 86.0461 412.372 84.0655 414.343C83.2233 415.166 82.5781 416.941 81.6758 418.767C80.7648 420.587 79.5337 422.497 77.316 423.533C75.1462 424.539 71.2653 425.364 67.6396 425.369C65.8282 425.368 64.0857 425.162 62.648 424.634C61.218 424.11 60.0538 423.231 59.5768 421.881C59.3474 421.231 59.247 420.548 59.247 419.852C59.248 418.769 59.4879 417.654 59.8702 416.547L60.3682 415.106L60.7822 416.574C61.0584 417.559 61.5402 418.854 62.3268 419.99L61.934 420.263L61.5411 420.534C60.6665 419.269 60.1579 417.883 59.8616 416.833L60.3224 416.704L60.7735 416.86C60.4151 417.896 60.2029 418.912 60.2029 419.852C60.2029 420.456 60.2899 421.028 60.4782 421.564C60.828 422.555 61.696 423.261 62.9788 423.736C64.2539 424.208 65.9038 424.414 67.6396 424.413C71.1114 424.418 74.9473 423.589 76.9126 422.667C78.8282 421.774 79.9389 420.101 80.8203 418.339C81.7092 416.581 82.3038 414.774 83.3897 413.667C85.268 411.781 86.0279 410.253 86.5718 408.103L86.5708 408.107L86.6292 407.862L87.0937 407.974L87.3059 408.402C86.5948 408.753 85.6857 409.257 84.8837 409.861C84.0789 410.463 83.3935 411.173 83.0972 411.875C82.5504 413.151 81.3345 415.676 79.6025 418.002C77.8695 420.318 75.6241 422.478 72.8999 422.879C71.5291 423.075 70.2081 423.178 68.9731 423.178C67.3041 423.178 65.7919 422.99 64.5196 422.571C63.2502 422.152 62.2064 421.494 61.5411 420.534L61.934 420.263" fill="#1B151F"/>
<path d="M61.6988 241.801C61.6988 241.801 60.6693 265.524 60.6693 285.329C60.6693 305.136 61.9607 361.112 61.9607 361.112C61.9607 361.112 105.018 362.404 115.784 364.126C126.548 365.849 158.841 358.529 158.841 358.529C158.841 358.529 160.564 311.165 160.134 299.108C159.702 287.052 158.116 228.842 158.116 228.842V219.51C158.116 219.51 171.474 117.487 171.201 116.396C170.928 115.304 136.829 100.846 136.829 100.846L99.1837 96.2084C99.1837 96.2084 77.36 96.7542 75.7235 97.5725C74.0861 98.3907 44.4547 134.29 44.4547 134.29C44.4547 134.29 45.9841 178.419 46.8578 195.24C47.3587 204.895 49.9185 216.27 52.1008 219.27C54.2821 222.272 63.1747 221.149 63.1747 221.149L62.735 234.025L61.6988 241.801" fill="#4D6DCC"/>
<path d="M61.6987 241.801L62.1767 241.822C62.1757 241.825 62.1117 243.302 62.0151 245.835C61.7255 253.433 61.1472 270.487 61.1472 285.329C61.1472 295.225 61.4703 314.171 61.7934 330.639C61.954 338.873 62.1155 346.489 62.2369 352.046C62.2971 354.825 62.3478 357.088 62.3832 358.658C62.4185 360.226 62.4386 361.099 62.4386 361.101L61.9606 361.113L61.975 360.635C61.9769 360.635 72.743 360.958 84.8569 361.496C96.9774 362.036 110.417 362.785 115.859 363.654C116.954 363.83 118.305 363.911 119.835 363.91C126.347 363.912 136.092 362.452 144.186 360.988C148.234 360.257 151.873 359.525 154.499 358.976C155.812 358.702 156.872 358.473 157.603 358.313C158.334 358.153 158.735 358.062 158.736 358.062L158.841 358.529L158.364 358.511C158.364 358.51 158.385 357.927 158.422 356.872C158.682 349.483 159.724 318.995 159.724 304.325C159.724 302.228 159.703 300.456 159.655 299.126C159.224 287.063 157.638 228.856 157.638 228.854V228.848V219.479L157.641 219.448C157.641 219.444 157.846 217.886 158.203 215.147C159.457 205.558 162.588 181.546 165.407 159.593C166.816 148.617 168.147 138.155 169.125 130.271C169.615 126.328 170.016 123.03 170.294 120.635C170.434 119.437 170.543 118.465 170.617 117.753C170.69 117.047 170.728 116.573 170.726 116.46V116.45L171.071 116.428L170.737 116.512L170.726 116.45L171.071 116.428L170.737 116.512V116.511L171.051 116.433L170.804 116.649C170.8 116.64 170.769 116.62 170.737 116.511L171.051 116.433L170.804 116.649L170.832 116.625L170.805 116.651L170.804 116.649L170.832 116.625L170.805 116.651C170.789 116.628 170.576 116.473 170.269 116.298C169.092 115.615 166.373 114.318 162.995 112.78C157.922 110.469 151.333 107.595 146.013 105.3C143.353 104.152 141.01 103.148 139.333 102.432C137.655 101.715 136.645 101.287 136.642 101.286L136.829 100.846L136.77 101.321L99.1253 96.6835L99.1836 96.2085L99.1951 96.6864C99.1922 96.6864 97.8329 96.7208 95.7625 96.7849C92.6569 96.8805 87.9597 97.0429 83.8905 97.259C81.8564 97.366 79.9781 97.4874 78.5395 97.6184C77.8206 97.6843 77.2108 97.7532 76.7529 97.822C76.5235 97.8573 76.3323 97.8918 76.1899 97.9252C76.0475 97.9568 75.948 97.9931 75.9366 97.9998L75.8764 97.8784L75.9452 97.996L75.9366 97.9998L75.8764 97.8784L75.9452 97.996C75.9442 97.995 75.8678 98.0504 75.7712 98.1393C75.3793 98.4921 74.5716 99.3533 73.4972 100.556C69.7262 104.774 62.5533 113.288 56.3286 120.742C53.2163 124.469 50.34 127.932 48.2418 130.463C47.1923 131.729 46.3377 132.761 45.7451 133.478C45.1534 134.194 44.8246 134.593 44.8236 134.594L44.4547 134.29L44.9326 134.273C44.9326 134.275 44.9565 134.963 44.9995 136.202C45.3044 144.877 46.571 180.506 47.3347 195.215C47.5832 200.01 48.3451 205.249 49.3153 209.648C49.7999 211.847 50.3371 213.838 50.8839 215.455C51.4278 217.069 51.9946 218.317 52.4869 218.989C52.9869 219.691 54.0527 220.2 55.3594 220.49C56.6603 220.785 58.1735 220.877 59.5107 220.876C60.5115 220.876 61.4168 220.826 62.0687 220.775C62.3946 220.749 62.6575 220.724 62.8382 220.705C63.0188 220.686 63.1144 220.675 63.1144 220.675L63.6717 220.604L63.2119 234.065L62.1728 241.864L61.6987 241.801L62.1767 241.822L61.6987 241.801L61.2246 241.737L62.2579 233.985L62.6967 221.133L63.1746 221.149L63.2348 221.623C63.2215 221.624 61.5773 221.832 59.5107 221.832C58.1295 221.831 56.5609 221.74 55.149 221.422C53.742 221.1 52.4621 220.566 51.7146 219.551C51.1152 218.724 50.5436 217.425 49.9787 215.76C48.2944 210.779 46.7602 202.556 46.3798 195.264C45.5061 178.433 43.9767 134.308 43.9767 134.306L43.971 134.125L44.0857 133.985C44.0866 133.985 51.4947 125.009 59.1083 115.931C62.9156 111.392 66.7745 106.826 69.7855 103.342C71.291 101.601 72.5843 100.129 73.5564 99.0627C74.043 98.5303 74.4483 98.0992 74.7637 97.7828C74.9214 97.6241 75.0572 97.4941 75.1728 97.3918C75.2942 97.2876 75.3755 97.216 75.5093 97.1452C75.6966 97.0544 75.8945 97.0085 76.1641 96.9531C77.1563 96.76 79.0537 96.5956 81.3889 96.4465C88.3802 96.001 99.1683 95.7315 99.1712 95.7305H99.2065L136.953 100.38L137.015 100.407C137.016 100.407 145.542 104.022 154.105 107.774C158.386 109.65 162.676 111.561 165.917 113.072C167.539 113.829 168.896 114.485 169.866 114.991C170.352 115.244 170.74 115.458 171.024 115.636C171.166 115.726 171.282 115.805 171.381 115.885L171.524 116.02C171.569 116.075 171.625 116.137 171.664 116.28V116.279C171.687 116.385 171.68 116.409 171.682 116.46C171.681 116.711 171.629 117.264 171.533 118.176C170.093 131.716 158.59 219.569 158.589 219.573L158.116 219.51H158.593V228.842H158.116L158.593 228.828C158.593 228.831 158.617 229.738 158.662 231.353C158.972 242.659 160.234 288.548 160.61 299.092C160.659 300.442 160.68 302.222 160.68 304.325C160.68 321.129 159.319 358.542 159.319 358.546L159.306 358.913L158.947 358.994C158.942 358.995 152.474 360.462 144.356 361.929C136.234 363.395 126.477 364.866 119.835 364.866C118.271 364.866 116.878 364.785 115.708 364.599C110.385 363.745 96.9134 362.988 84.8138 362.451C78.7612 362.182 73.0441 361.966 68.8401 361.819C66.7381 361.744 65.0147 361.687 63.817 361.649C62.6193 361.61 61.9482 361.59 61.9463 361.59L61.4932 361.576L61.4837 361.123C61.4837 361.121 60.1913 305.15 60.1913 285.329C60.1913 265.508 61.2208 241.783 61.2208 241.781L61.2218 241.759L61.2246 241.737L61.6987 241.801" fill="#1B151F"/>
<path d="M80.9531 244.062C80.9828 251.461 81.0535 257.852 81.1787 262.675L80.2228 262.7C80.0976 257.864 80.0269 251.469 79.9973 244.066L80.9531 244.062Z" fill="#1B151F"/>
<path d="M82.0447 121.527C82.0447 121.53 82.0275 122.605 81.9969 124.578C81.7847 138.389 80.9368 196.085 80.9368 235.17C80.9368 235.394 80.9368 235.617 80.9368 235.84H79.9809C79.9809 235.617 79.9809 235.394 79.9809 235.17C79.9809 190.488 81.0888 121.513 81.0888 121.511L82.0447 121.527Z" fill="#1B151F"/>
<path d="M123.022 307.313C122.629 312.713 122.244 316.853 121.877 319.061L120.935 318.903C121.29 316.771 121.677 312.629 122.069 307.243L123.022 307.313" fill="#1B151F"/>
<path d="M127.08 222.433C127.079 222.434 125.295 271.629 123.487 300.41L122.533 300.35C123.436 285.972 124.335 266.482 125.007 250.589C125.342 242.642 125.622 235.594 125.817 230.534C125.915 228.002 125.992 225.968 126.044 224.568C126.096 223.167 126.124 222.4 126.124 222.398L127.08 222.433" fill="#1B151F"/>
<path d="M123.084 179.224C122.786 182.542 122.524 184.974 122.308 186.129L121.37 185.953C121.57 184.885 121.836 182.441 122.132 179.139L123.084 179.224" fill="#1B151F"/>
<path d="M127.079 120.682C127.079 120.684 124.966 156.346 123.421 175.273L122.468 175.196C123.239 165.743 124.154 152.099 124.875 140.819C125.236 135.18 125.549 130.131 125.771 126.492C125.881 124.673 125.97 123.206 126.031 122.194C126.092 121.182 126.125 120.626 126.125 120.625L127.079 120.682Z" fill="#1B151F"/>
<path d="M90.7059 144.897L91.1389 179.539L90.183 179.552L89.75 144.908" fill="#1B151F"/>
<path d="M142.23 114.671C142.229 114.674 140.989 121.904 138.763 133.303L137.825 133.12C138.937 127.425 139.803 122.771 140.391 119.542C140.684 117.928 140.909 116.67 141.059 115.814C141.21 114.96 141.287 114.512 141.287 114.51L142.23 114.671" fill="#1B151F"/>
<path d="M132.813 90.8996C132.813 90.8996 137.611 94.2978 137.811 95.4974C138.011 96.6971 138.611 101.894 137.411 103.294C136.213 104.693 127.816 110.89 126.217 111.89C124.618 112.889 119.82 116.887 119.82 116.887L115.622 123.284C115.622 123.284 114.822 115.088 114.422 114.088C114.022 113.089 103.427 98.8956 103.227 97.8957C103.027 96.8968 104.427 90.6999 105.027 89.8998C105.626 89.0997 109.625 88.5004 109.625 88.5004C109.625 88.5004 126.616 89.8998 132.813 90.8996Z" fill="white"/>
<path d="M132.814 90.8993L133.09 90.5093C133.095 90.5122 134.3 91.3658 135.54 92.3781C136.16 92.8847 136.788 93.4296 137.287 93.9381C137.537 94.1924 137.754 94.438 137.927 94.6751C138.096 94.915 138.231 95.1358 138.283 95.4187C138.394 96.0879 138.616 97.8763 138.617 99.6504C138.617 100.425 138.575 101.195 138.455 101.877C138.332 102.558 138.149 103.157 137.775 103.604C137.593 103.814 137.323 104.069 136.967 104.382C135.728 105.471 133.468 107.218 131.333 108.813C129.195 110.409 127.203 111.835 126.469 112.295C125.718 112.763 124.109 114.016 122.718 115.136C122.021 115.696 121.372 116.226 120.898 116.615C120.424 117.005 120.127 117.254 120.126 117.254L119.82 116.887L120.22 117.149L115.278 124.679L115.146 123.33C115.146 123.329 115.096 122.819 115.015 122.036C114.894 120.862 114.702 119.078 114.504 117.497C114.404 116.706 114.304 115.966 114.21 115.383C114.163 115.093 114.117 114.84 114.076 114.644C114.037 114.45 113.995 114.303 113.979 114.265V114.266L113.97 114.248C113.911 114.128 113.671 113.753 113.328 113.251C112.117 111.476 109.534 107.916 107.236 104.698C106.086 103.089 105.007 101.563 104.202 100.383C103.799 99.7919 103.465 99.2872 103.222 98.8972C103.1 98.7012 103.002 98.5349 102.926 98.3944C102.85 98.2462 102.797 98.1545 102.759 97.9891C102.736 97.8725 102.731 97.7606 102.73 97.6345C102.731 97.1929 102.814 96.5582 102.942 95.8049C103.135 94.6799 103.435 93.3149 103.743 92.1496C103.897 91.5675 104.052 91.036 104.198 90.6059C104.272 90.3898 104.344 90.1996 104.414 90.0362C104.487 89.8727 104.551 89.7399 104.645 89.6127C104.789 89.4244 104.966 89.3049 105.164 89.1921C105.851 88.8155 106.915 88.5479 107.848 88.3443C108.775 88.1445 109.547 88.0288 109.554 88.0279L109.609 88.0193L109.664 88.024C109.672 88.025 126.648 89.4216 132.89 90.4271L132.999 90.4443L133.09 90.5093L132.814 90.8993L132.737 91.3706C129.667 90.8754 123.867 90.2752 118.85 89.801C116.341 89.564 114.024 89.3575 112.335 89.2113C110.646 89.0641 109.588 88.9771 109.586 88.9771L109.625 88.5001L109.696 88.9732C109.695 88.9732 109.453 89.0096 109.074 89.0774C108.507 89.1778 107.639 89.3499 106.875 89.5659C106.493 89.673 106.137 89.7915 105.866 89.911C105.597 90.0237 105.416 90.1633 105.409 90.1863C105.391 90.2054 105.311 90.3545 105.233 90.559C104.944 91.2884 104.547 92.7652 104.234 94.1971C103.918 95.6243 103.682 97.0581 103.686 97.6345C103.686 97.7234 103.693 97.7874 103.696 97.8018L103.505 97.84L103.692 97.7846L103.696 97.8018L103.505 97.84L103.692 97.7846L103.698 97.8018C103.747 97.9251 103.977 98.317 104.311 98.8265C105.489 100.635 108.033 104.175 110.32 107.36C111.464 108.953 112.544 110.46 113.361 111.623C113.77 112.205 114.114 112.702 114.368 113.083C114.495 113.274 114.6 113.436 114.681 113.569C114.765 113.706 114.819 113.797 114.866 113.91C114.942 114.106 114.994 114.347 115.059 114.682C115.487 116.971 116.096 123.228 116.098 123.237L115.622 123.284L115.222 123.022L119.459 116.566L119.514 116.52C119.515 116.519 120.716 115.518 122.119 114.39C123.527 113.26 125.117 112.015 125.964 111.484C126.726 111.008 129.238 109.202 131.676 107.36C132.898 106.437 134.106 105.502 135.081 104.715C135.567 104.321 135.996 103.963 136.336 103.664C136.675 103.367 136.93 103.121 137.048 102.983C137.233 102.777 137.413 102.311 137.514 101.712C137.619 101.114 137.661 100.389 137.661 99.6504C137.662 97.9585 137.442 96.1863 137.34 95.5755C137.342 95.5573 137.283 95.4101 137.152 95.2352C136.695 94.5957 135.521 93.5729 134.484 92.7566C133.965 92.3446 133.478 91.9766 133.119 91.7128C132.762 91.448 132.538 91.2893 132.537 91.2893L132.814 90.8993L132.737 91.3706L132.814 90.8993" fill="#1B151F"/>
<path d="M133.484 98.9491L137.482 95.1504L138.141 95.8434L134.142 99.6421" fill="#1B151F"/>
<path d="M107.923 92.8694L104.726 90.2704L105.328 89.5286L108.526 92.1276" fill="#1B151F"/>
<path d="M134.813 87.1008L133.813 99.295C133.813 99.295 132.813 100.894 127.216 103.094C121.619 105.292 118.421 109.69 118.421 109.69C118.421 109.69 116.822 103.693 115.822 101.295C114.822 98.8954 108.225 92.4987 108.225 92.4987L109.025 85.9021L134.813 87.1008" fill="white"/>
<path d="M134.813 87.1008L135.289 87.14L134.28 99.4498L134.219 99.5482C134.134 99.6782 133.04 101.317 127.391 103.538C124.665 104.609 122.51 106.222 121.043 107.569C120.309 108.242 119.746 108.847 119.369 109.282C119.181 109.499 119.038 109.674 118.944 109.793L118.838 109.929L118.807 109.971L118.217 110.783L117.959 109.813C117.958 109.812 117.86 109.441 117.694 108.843C117.202 107.054 116.109 103.221 115.381 101.478C115.174 100.972 114.589 100.127 113.842 99.2089C112.72 97.8229 111.229 96.2266 110.022 94.982C109.418 94.3588 108.885 93.8235 108.504 93.444C108.122 93.0645 107.893 92.8428 107.893 92.8418L107.723 92.6764L108.604 85.4041L135.329 86.6467L135.289 87.14L134.813 87.1008L134.791 87.5778L109.446 86.4001L108.699 92.556L108.225 92.4986L108.558 92.1555C108.561 92.1583 110.215 93.7613 111.998 95.6702C112.89 96.6252 113.814 97.6565 114.585 98.6067C115.355 99.5626 115.97 100.417 116.263 101.11C116.78 102.351 117.428 104.451 117.955 106.259C118.481 108.063 118.882 109.565 118.882 109.567L118.421 109.69L118.034 109.409C118.064 109.374 121.301 104.91 127.042 102.649C129.812 101.56 131.427 100.626 132.336 99.9803C132.791 99.6572 133.07 99.4058 133.228 99.2443L133.385 99.0703L133.411 99.0368L133.413 99.0349L133.653 99.1955L133.408 99.0416L133.413 99.0349L133.653 99.1955L133.408 99.0416L133.813 99.2949L133.337 99.2557L134.336 87.0616L134.813 87.1008L134.791 87.5778L134.813 87.1008" fill="#1B151F"/>
<path d="M119.674 93.8053L133.813 99.2949L134.435 89.8298L119.674 93.8053Z" fill="#1B151F"/>
<path d="M119.674 93.8054L119.847 93.36L133.379 98.6144L133.914 90.4655L119.798 94.2671L119.674 93.8054L119.847 93.36L119.674 93.8054L119.55 93.3437L134.955 89.1952L134.247 99.9766L118.142 93.7232L119.55 93.3437L119.674 93.8054Z" fill="#1B151F"/>
<path d="M125.81 23.0484C125.81 23.0484 140.258 29.7511 148.897 33.6233C157.536 37.4966 169.154 40.6242 167.962 41.0716C166.771 41.5179 139.215 48.5188 132.661 50.0081C126.107 51.4973 103.02 40.7733 100.637 39.5813C98.2536 38.3903 85.8912 33.3251 86.9331 33.0278C87.976 32.7296 102.275 29.0064 112.404 26.7716C122.533 24.5377 124.767 23.4948 125.81 23.0484" fill="#4D6DCC"/>
<path d="M125.81 23.0484L126.01 22.6144C126.013 22.6154 126.914 23.0331 128.403 23.7223C132.871 25.7879 142.617 30.2844 149.092 33.1874C153.178 35.0189 157.955 36.6917 161.713 37.9869C163.592 38.6359 165.215 39.1903 166.38 39.6281C166.963 39.848 167.43 40.0372 167.771 40.2026C167.943 40.2867 168.082 40.3622 168.203 40.4502L168.385 40.6155C168.441 40.6863 168.521 40.7981 168.525 40.9883C168.529 41.1413 168.446 41.299 168.361 41.3755L168.13 41.5189C168.019 41.56 167.847 41.6106 167.572 41.689C163.515 42.838 138.932 49.0722 132.768 50.4745C132.296 50.5806 131.771 50.6274 131.191 50.6274C129.106 50.6255 126.315 50.0224 123.227 49.1133C113.974 46.3833 102.124 40.8583 100.423 40.0086C99.3137 39.4532 95.8581 37.9831 92.7028 36.5827C91.1218 35.8811 89.6124 35.1947 88.4883 34.6394C87.9262 34.3612 87.4617 34.1165 87.1214 33.912C86.9512 33.8087 86.8126 33.7169 86.696 33.6204L86.5287 33.4531C86.4781 33.3833 86.4007 33.2897 86.393 33.0861C86.3882 32.9513 86.4628 32.7869 86.5574 32.7056C86.6501 32.6187 86.7352 32.5881 86.8021 32.568C87.8679 32.264 102.153 28.5437 112.301 26.3051C117.358 25.1896 120.438 24.3723 122.374 23.7825C124.316 23.1898 125.096 22.8333 125.621 22.6087L125.817 22.5246L126.01 22.6144L125.81 23.0484L125.998 23.4871C125.481 23.7089 124.622 24.098 122.653 24.6973C120.68 25.2976 117.58 26.1196 112.508 27.239C102.397 29.4681 88.084 33.196 87.065 33.4876L86.9637 33.1329L87.216 33.3977L87.065 33.4876L86.9637 33.1329L87.216 33.3977L86.9197 33.0861H87.3489C87.3546 33.1941 87.2896 33.3356 87.216 33.3977L86.9197 33.0861H87.3489H86.9952L87.2801 32.8633C87.2868 32.8786 87.3422 32.9236 87.3489 33.0861H86.9952L87.2801 32.8633L87.2007 32.9255L87.2753 32.8576L87.2801 32.8633L87.2007 32.9255L87.2753 32.8576C87.2743 32.8595 87.3441 32.9207 87.4521 32.9905C87.866 33.2667 88.8114 33.7476 89.989 34.3001C91.7603 35.1326 94.085 36.1506 96.1583 37.0568C98.2354 37.9649 100.051 38.7544 100.851 39.154C101.944 39.7008 107.588 42.3438 113.931 44.8386C117.103 46.087 120.453 47.2991 123.497 48.1966C126.539 49.0961 129.285 49.6744 131.191 49.6716C131.718 49.6725 132.178 49.6286 132.555 49.5425C135.821 48.7998 144.351 46.6768 152.205 44.6847C156.133 43.6897 159.894 42.7261 162.745 41.9844C164.171 41.6125 165.37 41.2971 166.248 41.061C166.687 40.9425 167.046 40.844 167.311 40.7695C167.574 40.6949 167.757 40.6385 167.795 40.6242L167.901 40.9061L167.692 40.693L167.795 40.6242L167.901 40.9061L167.692 40.693L167.981 40.9883H167.569C167.565 40.8698 167.634 40.7427 167.692 40.693L167.981 40.9883H167.569H167.932L167.648 41.2235C167.632 41.2025 167.573 41.1374 167.569 40.9883H167.932L167.648 41.2235L167.741 41.1461L167.66 41.2369L167.648 41.2235L167.741 41.1461L167.66 41.2369C167.655 41.2321 167.583 41.1795 167.472 41.1222C167.045 40.8947 166.087 40.5257 164.816 40.0764C160.992 38.7181 154.251 36.5464 148.701 34.0592C140.057 30.185 125.609 23.4823 125.608 23.4814L125.81 23.0484L125.998 23.4871L125.81 23.0484" fill="#1B151F"/>
<path d="M143.236 67.5837C143.236 67.5837 143.982 65.4989 145.918 66.84C147.854 68.1801 146.811 72.9462 145.769 74.5845C144.727 76.2239 142.045 77.7131 142.045 77.7131L143.236 67.5837Z" fill="white"/>
<path d="M143.236 67.5837L142.786 67.4231C142.798 67.3944 142.917 67.0551 143.207 66.69C143.489 66.3296 143.991 65.9119 144.709 65.9119C145.166 65.9119 145.663 66.0811 146.19 66.4462C146.691 66.7932 147.015 67.3084 147.209 67.8791C147.404 68.4517 147.48 69.0902 147.48 69.7497C147.48 70.7056 147.319 71.7055 147.079 72.6031C146.836 73.5016 146.522 74.2902 146.172 74.8417C145.585 75.7565 144.62 76.5537 143.796 77.1511C142.972 77.7447 142.288 78.1242 142.277 78.1309L141.461 78.584L142.768 67.4747L142.786 67.4231L143.236 67.5837L143.711 67.6401L142.519 77.7686L142.045 77.7132L141.813 77.2955L141.922 77.2324C142.174 77.0861 142.834 76.6866 143.533 76.157C144.231 75.6294 144.967 74.9602 145.366 74.3284C145.634 73.9107 145.936 73.1823 146.156 72.3555C146.377 71.5286 146.526 70.5967 146.525 69.7497C146.526 69.1657 146.454 68.6228 146.305 68.1888C146.155 67.751 145.936 67.4336 145.646 67.2329C145.23 66.9461 144.926 66.8678 144.709 66.8678C144.382 66.8678 144.148 67.0475 143.955 67.2845C143.862 67.4002 143.792 67.5225 143.747 67.6124L143.698 67.7175L143.688 67.7434L143.687 67.7453L143.236 67.5837L143.711 67.6401L143.236 67.5837Z" fill="#1B151F"/>
<path d="M105.105 66.0954C105.105 66.0954 103.616 63.4141 102.126 65.7971C100.637 68.1802 104.062 75.3292 106.445 76.3721L105.105 66.0954Z" fill="white"/>
<path d="M105.105 66.0954L104.688 66.3267L104.684 66.32C104.655 66.2693 104.478 65.9787 104.232 65.7245C104.108 65.5974 103.969 65.4807 103.834 65.4033C103.697 65.3249 103.572 65.2877 103.457 65.2877C103.348 65.2896 103.236 65.3154 103.081 65.4215C102.926 65.5276 102.736 65.7226 102.531 66.0505C102.347 66.341 102.24 66.7922 102.242 67.3581C102.236 68.7537 102.885 70.7562 103.785 72.4663C104.234 73.3228 104.742 74.1114 105.248 74.7251C105.75 75.3397 106.26 75.7737 106.638 75.9342L106.446 76.3721L105.972 76.4342L104.631 66.1565L105.105 66.0954L104.688 66.3267L105.105 66.0954L105.579 66.0332L107.03 77.1492L106.254 76.8098C105.642 76.5374 105.071 76.0107 104.51 75.332C103.673 74.3131 102.878 72.9385 102.282 71.5114C101.687 70.0814 101.288 68.6093 101.286 67.3581C101.287 66.6813 101.402 66.0571 101.721 65.5438C101.975 65.1376 102.242 64.8393 102.536 64.6357C102.827 64.4312 103.152 64.3299 103.457 64.3318C103.802 64.3318 104.107 64.4503 104.357 64.6023C105.1 65.0659 105.499 65.8335 105.523 65.8631L105.568 65.9424L105.579 66.0332L105.105 66.0954" fill="#1B151F"/>
<path d="M143.684 61.4777C143.684 61.4777 143.087 77.7133 140.258 82.4793C137.427 87.2463 130.129 94.8427 123.427 96.4811C116.723 98.1194 109.276 87.3954 107.787 84.7132C106.296 82.0329 104.658 58.9455 104.956 57.6044C105.253 56.2643 110.02 51.9447 118.361 50.6036C126.703 49.2634 142.045 54.3277 143.087 56.1152C144.13 57.9027 143.684 61.4777 143.684 61.4777" fill="white"/>
<path d="M143.684 61.4774L144.162 61.4946C144.161 61.5013 144.012 65.5686 143.507 70.2419C143.254 72.579 142.913 75.0681 142.455 77.2839C141.994 79.5015 141.428 81.4381 140.669 82.7228C139.219 85.1622 136.666 88.2755 133.613 91.0093C130.558 93.7393 127.016 96.0908 123.539 96.9454C123.03 97.0696 122.516 97.1279 122.003 97.1279C120.307 97.127 118.639 96.4961 117.071 95.5441C112.376 92.6735 108.45 86.8752 107.369 84.9452C107.149 84.5419 106.983 83.9511 106.803 83.1463C105.584 77.5706 104.447 62.0643 104.443 58.3268C104.443 58.1385 104.446 57.9789 104.452 57.8451C104.459 57.7103 104.466 57.6109 104.49 57.5C104.552 57.2304 104.688 56.98 104.884 56.698C105.57 55.7316 107.053 54.4163 109.308 53.1574C111.562 51.9033 114.579 50.7276 118.286 50.1321C119.273 49.9724 120.345 49.9026 121.472 49.9026C125.827 49.9045 131.026 50.9512 135.278 52.1958C137.404 52.8181 139.289 53.491 140.716 54.1133C141.43 54.4249 142.028 54.7241 142.493 55.0051C142.958 55.2957 143.289 55.5328 143.5 55.874C144.142 56.9934 144.25 58.5209 144.256 59.7205C144.256 60.7462 144.16 61.5233 144.158 61.5367L143.684 61.4774L144.162 61.4946L143.684 61.4774L143.21 61.4182L143.223 61.2939C143.249 61.0444 143.301 60.4451 143.301 59.7205C143.307 58.5964 143.157 57.1616 142.675 56.3558C142.655 56.3023 142.406 56.0623 141.997 55.8224C140.554 54.943 137.239 53.6784 133.397 52.6642C129.552 51.6443 125.15 50.8576 121.472 50.8585C120.385 50.8585 119.361 50.9273 118.438 51.0755C114.332 51.7351 111.114 53.1268 108.895 54.51C107.787 55.2001 106.928 55.8893 106.34 56.4724C106.046 56.764 105.82 57.0297 105.666 57.2486C105.512 57.4646 105.434 57.6434 105.423 57.7074C105.422 57.7084 105.411 57.7839 105.406 57.8909C105.402 58.0009 105.399 58.149 105.399 58.3268C105.398 60.3867 105.772 66.3763 106.315 72.125C106.588 75.0012 106.902 77.823 107.233 80.0712C107.398 81.1944 107.569 82.1751 107.737 82.9417C107.901 83.7035 108.081 84.2685 108.204 84.4816C108.87 85.6832 110.842 88.6541 113.396 91.2837C114.673 92.5999 116.097 93.833 117.568 94.7268C119.04 95.6234 120.55 96.173 122.003 96.172C122.443 96.172 122.88 96.1224 123.313 96.0163C126.539 95.2315 129.997 92.966 132.976 90.2972C135.955 87.6313 138.466 84.5619 139.847 82.2353C140.502 81.137 141.073 79.2568 141.519 77.0898C142.192 73.836 142.617 69.9207 142.869 66.8265C142.996 65.2789 143.08 63.9359 143.133 62.981C143.186 62.0251 143.206 61.4612 143.206 61.4602L143.207 61.4382L143.21 61.4182L143.684 61.4774" fill="#1B151F"/>
<path d="M128.022 73.5835C128.025 73.6027 128.194 74.3167 128.195 75.0747C128.195 75.329 128.177 75.589 128.116 75.8423C128.055 76.0937 127.955 76.3489 127.745 76.5611C127.532 76.7685 127.246 76.9387 126.87 77.1366C126.312 77.4262 125.582 77.7311 124.844 77.9691C124.104 78.2052 123.368 78.3792 122.749 78.3821C122.568 78.3821 122.395 78.3668 122.227 78.3247C121.604 78.168 120.75 77.9003 119.995 77.453C119.618 77.2283 119.262 76.9578 118.979 76.6166C118.697 76.2772 118.489 75.8566 118.442 75.3768C118.41 75.0623 118.398 74.7717 118.398 74.5079C118.398 73.4564 118.6 72.8341 118.612 72.7949L119.519 73.097L119.468 73.0808L119.519 73.097L119.468 73.0808L119.519 73.097C119.511 73.1247 119.353 73.6371 119.354 74.5079C119.354 74.7411 119.364 74.9992 119.393 75.2812V75.2821C119.42 75.546 119.528 75.7783 119.716 76.0067C119.995 76.348 120.464 76.6538 120.975 76.888C121.485 77.1232 122.033 77.2914 122.459 77.3975C122.524 77.4147 122.625 77.4262 122.749 77.4262C123.329 77.431 124.345 77.1624 125.231 76.8192C125.677 76.6481 126.098 76.4607 126.43 76.2887C126.759 76.1205 127.013 75.9474 127.07 75.8853C127.098 75.8595 127.153 75.7696 127.186 75.6205C127.223 75.4733 127.24 75.2783 127.239 75.0747C127.24 74.7688 127.202 74.4429 127.164 74.1991C127.145 74.0768 127.126 73.9745 127.113 73.9038L127.091 73.7986L128.022 73.5835" fill="#1B151F"/>
<path d="M114.641 79.212C114.641 79.212 114.694 79.2349 114.8 79.2789C115.544 79.5905 118.809 80.879 122.247 81.2595C122.672 81.3073 123.133 81.3283 123.616 81.3283C125.548 81.3293 127.817 80.9813 129.591 80.6315C130.478 80.4566 131.244 80.2816 131.786 80.1507C132.328 80.0188 132.643 79.9327 132.644 79.9327L132.896 80.8551C132.875 80.858 127.693 82.2804 123.616 82.2842C123.105 82.2842 122.609 82.2613 122.141 82.2096C118.028 81.7499 114.28 80.0952 114.256 80.0866L114.641 79.212" fill="#1B151F"/>
<path d="M130.833 67.8817C130.833 68.9514 131.433 69.8184 132.174 69.8184C132.914 69.8184 133.514 68.9514 133.514 67.8817C133.514 66.8121 132.914 65.9461 132.174 65.9461C131.433 65.9461 130.833 66.8121 130.833 67.8817Z" fill="#1B151F"/>
<path d="M115.342 67.2863C115.342 68.3559 115.942 69.2229 116.682 69.2229C117.423 69.2229 118.023 68.3559 118.023 67.2863C118.023 66.2167 117.423 65.3497 116.682 65.3497C115.942 65.3497 115.342 66.2167 115.342 67.2863Z" fill="#1B151F"/>
<path d="M125.77 64.9035L125.474 64.5279C125.506 64.5078 126.677 63.5739 128.269 63.2432C128.715 63.1543 129.631 63.0692 130.833 62.9985C132.028 62.9287 133.484 62.879 134.925 62.879C136.22 62.879 137.502 62.9182 138.58 63.0224C139.12 63.074 139.61 63.1419 140.03 63.2317C140.452 63.3235 140.802 63.4296 141.091 63.5968C141.589 63.8884 141.9 64.3692 142.082 64.8949C142.265 65.4245 142.333 66.0152 142.333 66.6184C142.333 67.4691 142.195 68.3428 141.992 69.0788C141.891 69.4468 141.772 69.7795 141.642 70.0624C141.508 70.3463 141.373 70.5786 141.174 70.7669C141.008 70.9131 140.832 70.9963 140.607 71.0929C139.831 71.4121 138.457 71.7381 136.873 72.0019C135.294 72.2629 133.527 72.4512 132.024 72.4512C131.133 72.4502 130.337 72.3871 129.699 72.216C128.212 71.8098 127.118 70.6407 126.39 69.3187C125.662 67.9891 125.282 66.4846 125.279 65.2524C125.279 65.1215 125.284 64.9934 125.294 64.8691L125.309 64.6579L125.474 64.5279L125.77 64.9035L126.247 64.9379C126.239 65.0383 126.235 65.1435 126.235 65.2524C126.233 66.2867 126.577 67.6804 127.227 68.858C127.878 70.0433 128.818 70.9925 129.949 71.2936C130.446 71.4293 131.183 71.4962 132.024 71.4953C133.652 71.4962 135.68 71.2573 137.364 70.9457C138.205 70.7899 138.963 70.6159 139.536 70.4486C139.823 70.3654 140.064 70.2832 140.241 70.2096C140.416 70.1408 140.528 70.0653 140.527 70.0624C140.565 70.0328 140.676 69.8808 140.774 69.661C141.087 68.9957 141.381 67.7349 141.377 66.6184C141.378 66.0907 141.313 65.5937 141.179 65.2094C141.043 64.8204 140.852 64.5632 140.61 64.4227C140.478 64.3424 140.198 64.244 139.83 64.1666C138.72 63.9276 136.834 63.8329 134.925 63.8348C133.506 63.8348 132.065 63.8836 130.888 63.9524C129.716 64.0194 128.784 64.1121 128.46 64.1799C127.798 64.3147 127.19 64.5919 126.753 64.8366C126.534 64.958 126.359 65.0718 126.24 65.153L126.105 65.2486L126.073 65.2735L126.066 65.2792L125.77 64.9035L126.247 64.9379L125.77 64.9035" fill="#1B151F"/>
<path d="M121.933 64.9035L121.634 65.2763L121.627 65.2706C121.53 65.1922 120.502 64.4285 119.283 64.1799C118.968 64.1121 118.049 64.0194 116.896 63.9524C115.739 63.8836 114.322 63.8348 112.925 63.8348C111.672 63.8339 110.434 63.8741 109.42 63.9735C108.915 64.0232 108.464 64.0882 108.103 64.1666C107.743 64.243 107.468 64.3415 107.34 64.4208C107.105 64.5594 106.915 64.8175 106.781 65.2065C106.648 65.5918 106.585 66.0898 106.585 66.6184C106.585 67.364 106.709 68.1717 106.888 68.8265C106.976 69.1534 107.078 69.443 107.18 69.6638C107.277 69.8837 107.385 70.0366 107.422 70.0653L107.428 70.0701L107.422 70.0653L107.495 70.1131C107.684 70.2221 108.142 70.3884 108.728 70.5442C110.499 71.0212 113.53 71.4972 115.78 71.4953C116.607 71.4962 117.331 71.4293 117.818 71.2945C118.926 70.9944 119.85 70.0471 120.49 68.8609C121.13 67.6823 121.469 66.2876 121.467 65.2515C121.467 65.1425 121.463 65.0374 121.456 64.9379L121.933 64.9035L121.634 65.2763L121.933 64.9035L122.41 64.8691C122.418 64.9943 122.423 65.1215 122.423 65.2515C122.42 66.4826 122.047 67.9862 121.331 69.3159C120.615 70.6379 119.539 71.8079 118.071 72.216C117.441 72.3871 116.657 72.4502 115.78 72.4512C114.089 72.4502 112.058 72.2055 110.353 71.8853C109.501 71.7247 108.731 71.5459 108.121 71.3662C107.816 71.2754 107.552 71.1846 107.331 71.0919C107.107 70.9954 106.933 70.9112 106.77 70.764V70.7631C106.573 70.5748 106.441 70.3435 106.31 70.0596C105.929 69.2165 105.633 67.8954 105.629 66.6184C105.63 66.0162 105.697 65.4254 105.877 64.8978C106.056 64.373 106.36 63.8912 106.852 63.5988C107.139 63.4305 107.485 63.3244 107.899 63.2327C109.138 62.965 111.012 62.8799 112.925 62.879C114.344 62.879 115.777 62.9287 116.954 62.9985C118.135 63.0692 119.036 63.1543 119.477 63.2441C121.048 63.5749 122.199 64.5097 122.232 64.5298L122.394 64.6607L122.41 64.8691L121.933 64.9035" fill="#1B151F"/>
<path d="M127.979 63.7113H119.724L121.935 64.9033H125.768L127.979 63.7113Z" fill="#1B151F"/>
<path d="M127.979 63.7114V64.1894H121.617L122.055 64.4255H125.647L127.752 63.2908L127.979 63.7114V64.1894V63.7114L128.205 64.132L125.889 65.3813H121.813L117.83 63.2335H129.872L128.205 64.132L127.979 63.7114" fill="#1B151F"/>
<path d="M136.746 62.6592L136.725 62.6496C136.485 62.5454 134.231 61.6268 131.368 61.6287C130.477 61.6287 129.527 61.7167 128.559 61.9432L128.341 61.0122C129.391 60.7675 130.414 60.6729 131.368 60.6729C134.637 60.6757 137.099 61.7712 137.134 61.7855L136.746 62.6592" fill="#1B151F"/>
<path d="M119.626 61.769L119.554 61.7403C119.201 61.6027 117.579 61.0253 115.721 61.0272C114.496 61.0272 113.181 61.2748 112.029 62.0261L111.507 61.2261C112.861 60.3428 114.372 60.0714 115.721 60.0714C118.063 60.0742 119.963 60.8762 119.995 60.8877L119.626 61.769" fill="#1B151F"/>
<path d="M142.047 65.0449L143.387 65.4923L143.085 66.3994L141.745 65.9521" fill="#1B151F"/>
<path d="M135.789 53.7318C135.789 53.7318 139.066 57.0086 138.024 57.0086C136.981 57.0086 131.023 53.4336 131.023 53.4336C131.023 53.4336 137.577 57.9023 135.044 58.9452C132.512 59.988 123.873 59.5407 121.49 58.0514C119.107 56.5612 116.277 54.1782 116.277 54.1782C116.277 54.1782 118.213 57.6041 116.574 56.8594C114.936 56.1148 112.105 52.5398 111.957 52.0934C111.808 51.6461 123.873 48.2202 135.789 53.7318" fill="#1B151F"/>
<path d="M135.789 53.7319L136.127 53.3935C136.131 53.3983 136.746 54.0119 137.368 54.7193C137.679 55.0739 137.992 55.4505 138.237 55.7956C138.36 55.9696 138.466 56.135 138.55 56.2975C138.63 56.4628 138.701 56.6138 138.706 56.8404C138.711 56.979 138.653 57.1912 138.492 57.326C138.333 57.4608 138.159 57.4866 138.024 57.4866C137.767 57.4808 137.546 57.4063 137.256 57.303C136.276 56.936 134.681 56.0795 133.3 55.3043C131.923 54.531 130.779 53.8456 130.777 53.8437L131.023 53.4336L131.293 53.0388C131.3 53.0455 132.461 53.8361 133.636 54.8445C134.224 55.3492 134.815 55.9075 135.276 56.4657C135.728 57.0297 136.088 57.5707 136.104 58.2025C136.106 58.4463 136.031 58.7063 135.871 58.9166C135.712 59.1269 135.488 59.2798 135.226 59.3869C134.685 59.6086 133.977 59.751 133.141 59.8485C132.308 59.9451 131.351 59.991 130.342 59.991C128.63 59.991 126.773 59.8591 125.141 59.6057C123.503 59.3477 122.108 58.993 121.237 58.4568C118.809 56.9379 115.977 54.5511 115.969 54.5444L116.277 54.1783L116.692 53.9431C116.696 53.9498 116.94 54.3809 117.189 54.9162C117.313 55.1848 117.438 55.4792 117.536 55.7669C117.632 56.0575 117.708 56.3319 117.71 56.6177C117.709 56.7782 117.688 56.9627 117.557 57.152C117.425 57.346 117.162 57.4522 116.958 57.4436C116.753 57.4416 116.574 57.3824 116.376 57.2954C115.887 57.0698 115.382 56.6827 114.863 56.2191C114.089 55.5241 113.3 54.6524 112.683 53.9058C112.374 53.5321 112.109 53.1908 111.91 52.9155C111.811 52.7769 111.728 52.6556 111.662 52.5514C111.596 52.4414 111.548 52.3697 111.504 52.2445L111.478 52.0849C111.48 51.9319 111.538 51.8354 111.579 51.7761C111.666 51.6633 111.731 51.627 111.799 51.5821C112.041 51.4377 112.388 51.3116 112.914 51.1567C114.47 50.7065 117.45 50.155 121.207 50.154C125.476 50.154 130.742 50.8709 135.99 53.2979L136.067 53.3333L136.127 53.3935L135.789 53.7319L135.588 54.1649C130.499 51.8115 125.371 51.1099 121.207 51.1099C118.52 51.1099 116.237 51.4024 114.634 51.7255C113.834 51.887 113.203 52.0562 112.789 52.1967C112.581 52.2655 112.426 52.3296 112.346 52.3707L112.303 52.3946L112.295 52.3994L112.141 52.1891L112.343 52.3506L112.295 52.3994L112.141 52.1891L112.343 52.3506L112.01 52.0849H112.434C112.43 52.2378 112.37 52.3153 112.343 52.3506L112.01 52.0849H112.434H111.983L112.411 51.9425L112.434 52.0849H111.983L112.411 51.9425L112.246 51.9979L112.405 51.9291L112.411 51.9425L112.246 51.9979L112.405 51.9291C112.404 51.931 112.466 52.0419 112.558 52.1747C112.888 52.6594 113.633 53.5971 114.453 54.4717C115.265 55.3473 116.195 56.1703 116.772 56.4246L116.915 56.4791L116.951 56.4867L116.958 56.4877V56.6664L116.885 56.5068L116.958 56.4877V56.6664L116.885 56.5068L116.987 56.7286L116.759 56.6301L116.885 56.5068L116.987 56.7286L116.759 56.6301L116.837 56.6636L116.753 56.6492L116.759 56.6301L116.837 56.6636L116.753 56.6492L116.755 56.6177C116.757 56.5288 116.713 56.3118 116.63 56.0747C116.509 55.7153 116.314 55.2919 116.151 54.9659C116.07 54.8034 115.997 54.6638 115.944 54.5663C115.89 54.4679 115.86 54.4134 115.86 54.4134L114.554 52.103L116.584 53.8131C116.584 53.8131 116.757 53.9584 117.058 54.2031C117.957 54.9372 119.99 56.5517 121.743 57.6462C122.371 58.0467 123.716 58.4233 125.287 58.6613C126.861 58.9051 128.68 59.0351 130.342 59.0351C131.321 59.0351 132.246 58.9902 133.031 58.8994C133.816 58.8095 134.465 58.668 134.863 58.5027C135.011 58.4415 135.078 58.3803 135.107 58.3411L135.149 58.2025C135.164 58.0199 134.949 57.5573 134.538 57.0736C133.934 56.3385 132.979 55.5136 132.183 54.8885C131.786 54.575 131.426 54.3083 131.167 54.1219C130.909 53.9345 130.754 53.8294 130.753 53.8284L131.269 53.0236C131.27 53.0245 131.639 53.2453 132.211 53.5799C133.07 54.0798 134.383 54.8321 135.572 55.4544C136.166 55.765 136.729 56.0441 137.181 56.241C137.406 56.3385 137.604 56.416 137.757 56.4657C137.907 56.5164 138.023 56.5326 138.024 56.5307V56.676L137.984 56.5374L138.024 56.5307V56.676L137.984 56.5374L138.075 56.8519L137.809 56.6674L137.984 56.5374L138.075 56.8519L137.809 56.6674L138.057 56.8404H137.751L137.809 56.6674L138.057 56.8404H137.751H137.865L137.751 56.8624L137.751 56.8404H137.865L137.751 56.8624C137.753 56.8585 137.724 56.7706 137.66 56.6617C137.438 56.265 136.873 55.5882 136.379 55.0472C136.13 54.7738 135.898 54.5281 135.728 54.3522C135.558 54.1754 135.452 54.0702 135.452 54.0693L135.789 53.7319L135.588 54.1649L135.789 53.7319" fill="#1B151F"/>
<path d="M139.513 54.9229C139.513 54.9229 139.066 58.2006 140.109 60.1363C141.152 62.0729 143.684 64.7542 143.684 64.7542C143.684 64.7542 145.471 58.7962 144.13 56.7104C142.79 54.6256 139.96 53.88 139.513 54.9229Z" fill="#1B151F"/>
<path d="M139.513 54.9227L139.986 54.9878L139.973 55.0996C139.948 55.3271 139.896 55.8806 139.896 56.5631C139.892 57.6231 140.033 59.0015 140.53 59.9096C141.019 60.8205 141.9 61.9657 142.653 62.8642C143.031 63.3154 143.376 63.7063 143.627 63.9845C143.878 64.2627 144.031 64.4252 144.032 64.4261L143.684 64.754L143.226 64.6164C143.226 64.6164 143.282 64.429 143.369 64.1002C143.631 63.1156 144.153 60.8874 144.151 59.0818C144.156 58.1804 144.01 57.3947 143.729 56.9693C143.31 56.3174 142.718 55.8003 142.112 55.4523C141.509 55.1025 140.887 54.9304 140.468 54.9333C140.288 54.9323 140.149 54.9648 140.071 55.0031L139.952 55.1111L139.513 54.9227L139.986 54.9878L139.513 54.9227L139.074 54.7354C139.189 54.4601 139.415 54.2527 139.662 54.1389C139.912 54.0214 140.184 53.9774 140.468 53.9774C141.121 53.9803 141.862 54.2087 142.588 54.6236C143.313 55.0403 144.016 55.6511 144.533 56.4522C144.982 57.1643 145.102 58.0925 145.107 59.0818C145.102 61.7114 144.145 64.8687 144.142 64.8916L143.904 65.6831L143.337 65.0819C143.332 65.0771 142.693 64.4013 141.921 63.4779C141.147 62.5526 140.242 61.3883 139.688 60.3627C139.061 59.186 138.944 57.7006 138.94 56.5631C138.94 55.589 139.037 54.8731 139.039 54.8587L139.048 54.7947L139.074 54.7354L139.513 54.9227" fill="#1B151F"/>
<path d="M107.936 55.2214C107.936 55.2214 108.679 58.7964 107.787 60.5829C106.893 62.3714 105.253 63.8606 105.253 63.8606C105.253 63.8606 104.361 58.9455 104.956 57.6044C105.552 56.2642 107.637 53.583 107.936 55.2214" fill="#1B151F"/>
<path d="M107.936 55.2213L108.404 55.1238C108.407 55.1419 108.703 56.5566 108.704 58.1004C108.701 59.0285 108.605 60.0045 108.214 60.7969C107.262 62.6915 105.595 64.1922 105.576 64.2142L104.938 64.7935L104.783 63.9456C104.782 63.9322 104.276 61.1678 104.274 59.148C104.279 58.4665 104.319 57.8805 104.519 57.4102C104.778 56.83 105.248 56.0902 105.766 55.4602C106.026 55.1458 106.295 54.8619 106.571 54.6401C106.85 54.425 107.122 54.2405 107.508 54.2291C107.728 54.2224 107.983 54.3304 108.135 54.513C108.289 54.6927 108.362 54.903 108.406 55.1352L107.936 55.2213L108.404 55.1238L107.936 55.2213L107.465 55.3073L107.428 55.1706L107.414 55.14L107.496 55.0808L107.451 55.1687L107.414 55.14L107.496 55.0808L107.451 55.1687L107.508 55.0569V55.1849L107.451 55.1687L107.508 55.0569V55.1849V55.1811L107.509 55.1849H107.508V55.1811L107.509 55.1849C107.487 55.1811 107.308 55.2595 107.112 55.4325C106.503 55.9391 105.686 57.1235 105.393 57.7983C105.297 57.9991 105.225 58.5296 105.23 59.148C105.229 60.0819 105.352 61.2481 105.476 62.1705C105.538 62.6332 105.6 63.0356 105.647 63.3214C105.693 63.6072 105.724 63.7745 105.724 63.7755L105.254 63.8605L104.932 63.5068L104.997 63.4466C105.304 63.158 106.628 61.8398 107.359 60.3696C107.638 59.821 107.751 58.953 107.748 58.1004C107.748 57.3892 107.679 56.6885 107.608 56.1685C107.572 55.9085 107.537 55.6944 107.51 55.5453C107.485 55.3971 107.467 55.3188 107.468 55.3188L107.466 55.313L107.465 55.3073L107.936 55.2213" fill="#1B151F"/>
<path d="M144.578 62.0732C144.578 62.0732 136.087 55.6688 123.724 55.2215C111.362 54.7751 104.808 60.2858 104.808 60.2858C104.808 60.2858 104.063 58.6474 104.51 55.6688C104.956 52.6894 106.296 42.4117 106.893 41.0716C107.488 39.7305 117.469 34.6662 126.704 34.8153C135.938 34.9645 145.77 40.9225 146.216 43.3055C146.662 45.6885 144.578 62.0732 144.578 62.0732" fill="#4D6DCC"/>
<path d="M144.577 62.0729L144.29 62.4543L144.2 62.3884C143.264 61.7116 135.148 56.1083 123.707 55.6991C123.231 55.6819 122.764 55.6733 122.306 55.6733C116.655 55.6733 112.347 56.9294 109.455 58.1796C108.008 58.8048 106.917 59.428 106.19 59.8926C105.826 60.1258 105.555 60.318 105.375 60.4508C105.285 60.5177 105.218 60.5694 105.175 60.6038L105.127 60.641L105.115 60.6516L104.633 61.0569L104.372 60.4833C104.349 60.4327 103.888 59.3946 103.889 57.5134C103.889 56.9485 103.931 56.309 104.038 55.5969C104.259 54.1152 104.707 50.7974 105.172 47.6841C105.405 46.1269 105.643 44.6205 105.861 43.4132C105.97 42.81 106.075 42.2814 106.172 41.8551C106.271 41.425 106.354 41.1114 106.456 40.8763V40.8773C106.612 40.5551 106.865 40.3343 107.229 40.0437C108.497 39.0726 111.211 37.6703 114.654 36.4792C118.092 35.293 122.237 34.3343 126.302 34.3343C126.439 34.3343 126.575 34.3342 126.711 34.3371C131.428 34.4145 136.247 35.964 139.966 37.7936C141.826 38.7093 143.41 39.6958 144.575 40.6201C145.157 41.0828 145.635 41.5292 145.993 41.9545C146.35 42.3818 146.599 42.7823 146.685 43.2172C146.739 43.5078 146.756 43.8825 146.757 44.3624C146.755 46.5848 146.329 51.0048 145.903 54.8981C145.477 58.7876 145.052 62.1313 145.052 62.1332L144.947 62.9504L144.29 62.4543L144.577 62.0729L144.103 62.0127C144.103 62.0099 144.209 61.1792 144.369 59.8591C144.847 55.9075 145.803 47.5541 145.801 44.3624C145.801 43.9131 145.779 43.5642 145.746 43.3931C145.721 43.2325 145.565 42.9247 145.263 42.5701C144.736 41.9431 143.797 41.1602 142.573 40.3611C138.894 37.9561 132.624 35.3828 126.696 35.293C126.565 35.2901 126.434 35.2901 126.302 35.2901C121.828 35.2882 117.167 36.507 113.57 37.892C111.771 38.5841 110.236 39.3163 109.128 39.9501C108.574 40.2664 108.127 40.5589 107.813 40.8017C107.5 41.034 107.323 41.2558 107.33 41.2653C107.283 41.3657 107.194 41.6668 107.104 42.0673C106.78 43.4858 106.344 46.2636 105.945 48.9955C105.545 51.7313 105.179 54.4288 104.983 55.7393C104.883 56.4027 104.845 56.9953 104.845 57.5134C104.845 58.3756 104.95 59.0313 105.053 59.4663C105.103 59.6832 105.154 59.8448 105.19 59.949L105.232 60.0627L105.242 60.0866L105.243 60.0876L104.808 60.2855L104.5 59.9193C104.553 59.8744 110.714 54.7175 122.306 54.7175C122.776 54.7175 123.255 54.7261 123.741 54.7433C136.264 55.2011 144.823 61.6629 144.865 61.6916L144.577 62.0729L144.103 62.0127L144.577 62.0729" fill="#1B151F"/>
<path d="M26.3217 128.828C26.3217 128.828 23.2638 139.97 21.9533 150.019C20.6418 160.068 21.2976 167.058 27.8511 172.52C34.4046 177.981 43.1433 205.29 46.421 211.188C49.6968 217.086 52.1008 219.271 52.1008 219.271C52.1008 219.271 45.7653 183.662 45.7653 166.403C45.7653 149.145 41.3959 136.037 38.7749 131.449C36.152 126.862 27.6322 121.182 26.3217 128.828" fill="#1B151F"/>
<path d="M26.3217 128.828L26.7824 128.955C26.7824 128.957 26.5931 129.646 26.2863 130.845C25.3677 134.438 23.4053 142.579 22.4274 150.08C22.0823 152.718 21.8759 155.137 21.8759 157.361C21.8759 160.465 22.2783 163.185 23.259 165.612C24.2398 168.039 25.7969 170.185 28.157 172.153C29.8957 173.61 31.6708 176.371 33.4803 179.815C36.1844 184.977 38.9135 191.668 41.2774 197.625C42.4589 200.602 43.5476 203.395 44.4939 205.716C45.4383 208.036 46.2451 209.889 46.8387 210.955C48.4646 213.883 49.8708 215.883 50.8649 217.146C51.3619 217.776 51.7567 218.224 52.0234 218.512C52.1572 218.655 52.2595 218.758 52.3274 218.825L52.4019 218.898L52.422 218.917L52.1008 219.27L51.6305 219.355C51.6296 219.351 50.0447 210.445 48.4599 199.377C46.875 188.306 45.2883 175.085 45.2873 166.403C45.2873 157.814 44.1995 150.258 42.7877 144.285C41.3778 138.314 39.6342 133.914 38.3591 131.687C37.559 130.282 36.1347 128.721 34.5508 127.537C32.9708 126.346 31.2234 125.548 29.8584 125.556C29.1042 125.56 28.482 125.775 27.962 126.278C27.4429 126.781 27.0147 127.616 26.7929 128.909L26.7891 128.932L26.7824 128.955L26.3217 128.828L25.8504 128.748C26.0942 127.325 26.5855 126.284 27.2948 125.592C28.0031 124.899 28.9159 124.596 29.8584 124.6C31.5752 124.609 33.4391 125.516 35.1244 126.772C36.8058 128.034 38.2988 129.659 39.1897 131.212C40.5356 133.572 42.2878 138.021 43.7177 144.065C45.1458 150.107 46.2432 157.734 46.2432 166.403C46.2422 174.98 47.8233 188.193 49.4062 199.241C50.1977 204.766 50.9891 209.754 51.5827 213.359C51.8791 215.162 52.1266 216.619 52.2996 217.625C52.4727 218.632 52.5711 219.185 52.5711 219.186L52.8168 220.567L51.7796 219.624C51.7404 219.589 49.303 217.362 46.0023 211.42C45.1563 209.893 43.9997 207.083 42.6137 203.602C40.5385 198.386 37.9681 191.689 35.307 185.796C33.9764 182.85 32.6238 180.104 31.3047 177.852C29.9894 175.601 28.6951 173.842 27.5452 172.887C25.08 170.834 23.411 168.545 22.372 165.97C21.332 163.394 20.92 160.546 20.92 157.361C20.92 155.078 21.1322 152.621 21.4792 149.957C22.7964 139.862 25.8581 128.713 25.8609 128.702L26.3217 128.828L25.8504 128.748L26.3217 128.828" fill="#1B151F"/>
<path d="M109.778 129.184L105.227 115.279C105.227 115.279 96.8848 114.268 96.1268 114.016C95.3679 113.763 84.2443 102.892 82.7273 102.386C81.2113 101.881 79.6943 101.881 80.4523 104.157C81.2113 106.432 90.0589 116.292 90.0589 116.292C90.0589 116.292 86.5202 117.808 86.7726 119.83C87.0249 121.853 87.0249 121.853 87.0249 121.853C87.0249 121.853 85.7613 124.634 85.2556 126.656C84.7499 128.679 83.7396 131.712 85.0032 133.735C86.2669 135.757 93.3452 140.813 97.3905 142.077C101.435 143.341 103.71 143.847 103.71 143.847L117.362 155.982L123.682 139.549L109.778 129.184" fill="white"/>
<path d="M109.778 129.184L109.324 129.333L104.773 115.429L105.227 115.279L105.169 115.754C105.168 115.754 103.082 115.501 100.899 115.216C99.8069 115.074 98.6923 114.924 97.7986 114.793C97.3522 114.727 96.9612 114.667 96.6534 114.614C96.3408 114.559 96.1353 114.52 95.9757 114.47C95.8753 114.434 95.8275 114.401 95.7664 114.363C95.5475 114.22 95.2425 113.966 94.8152 113.596C93.3374 112.311 90.5616 109.709 87.9903 107.371C86.7056 106.203 85.4734 105.101 84.4879 104.271C83.9947 103.855 83.5636 103.507 83.2243 103.255C82.8935 103.005 82.6182 102.847 82.5762 102.84C82.1202 102.687 81.6719 102.591 81.345 102.593C81.0878 102.592 80.9301 102.65 80.8623 102.71C80.7982 102.768 80.7351 102.842 80.7284 103.123C80.7284 103.326 80.7772 103.621 80.9053 104.006C80.9722 104.212 81.1796 104.603 81.4845 105.072C82.5551 106.733 84.7976 109.475 86.761 111.781C87.7427 112.935 88.6565 113.983 89.3247 114.743C89.9928 115.502 90.4134 115.971 90.4144 115.972L90.8598 116.469L90.2471 116.73L90.2175 116.744C90.055 116.815 89.2645 117.185 88.5437 117.733C88.1834 118.006 87.8421 118.322 87.605 118.65C87.3661 118.98 87.237 119.306 87.238 119.623L87.2475 119.771C87.4989 121.794 87.4989 121.794 87.4989 121.794L87.5161 121.928L87.4597 122.051C87.4597 122.051 87.3833 122.22 87.2581 122.509C86.8834 123.373 86.0833 125.311 85.72 126.772C85.3855 128.095 84.8674 129.791 84.8703 131.291C84.8703 132.116 85.0232 132.866 85.4084 133.481C85.6665 133.902 86.328 134.592 87.2151 135.351C89.8724 137.646 94.625 140.721 97.5328 141.621C99.5478 142.251 101.121 142.691 102.189 142.974C102.723 143.116 103.13 143.217 103.404 143.284C103.677 143.35 103.813 143.379 103.814 143.38L103.934 143.407L117.164 155.165L123.106 139.716L109.37 129.477L109.324 129.333L109.778 129.184L110.063 128.8L124.257 139.382L117.56 156.797L103.392 144.203L103.71 143.847L103.606 144.313C103.594 144.31 101.307 143.802 97.248 142.533C95.1364 141.87 92.3443 140.276 89.8829 138.584C88.6536 137.738 87.5123 136.869 86.5909 136.076C85.6684 135.278 84.9706 134.579 84.5978 133.988C84.0864 133.169 83.9144 132.229 83.9144 131.291C83.9173 129.585 84.4726 127.827 84.7919 126.54C85.3176 124.447 86.5851 121.669 86.5899 121.655L87.0248 121.853L86.5507 121.912C86.5507 121.912 86.5507 121.912 86.2984 119.89C86.2878 119.8 86.2821 119.711 86.2821 119.623C86.2831 119.002 86.5469 118.456 86.8967 118.002C87.952 116.651 89.8418 115.874 89.8705 115.852L90.0588 116.292L89.7032 116.61C89.7013 116.608 87.4865 114.141 85.1742 111.384C84.0176 110.006 82.8361 108.556 81.8917 107.3C81.4186 106.672 81.0056 106.092 80.6816 105.591C80.3566 105.085 80.1224 104.67 79.9991 104.308C79.849 103.857 79.7735 103.47 79.7726 103.123C79.7668 102.66 79.9322 102.23 80.2562 101.971C80.5765 101.711 80.9645 101.638 81.345 101.637C81.8401 101.638 82.363 101.762 82.8782 101.933C83.0493 101.993 83.1965 102.08 83.3801 102.197C84.0492 102.635 85.1226 103.536 86.4111 104.67C88.3382 106.368 90.7136 108.571 92.6741 110.372C93.6539 111.272 94.5294 112.071 95.19 112.654C95.5197 112.944 95.796 113.181 95.9996 113.346C96.1009 113.427 96.185 113.491 96.2424 113.532L96.3036 113.572L96.3083 113.575L96.1994 113.797L96.2777 113.563L96.3083 113.575L96.1994 113.797L96.2777 113.563C96.3064 113.574 96.5272 113.623 96.8159 113.672C97.8492 113.85 99.9751 114.135 101.831 114.373C103.689 114.612 105.281 114.805 105.284 114.805L105.586 114.842L110.232 129.035L109.778 129.184L110.063 128.8L109.778 129.184" fill="#1B151F"/>
<path d="M96.1267 114.016L103.205 118.061Z" fill="white"/>
<path d="M96.3639 113.601L103.442 117.646L102.968 118.476L95.8897 114.43" fill="#1B151F"/>
<path d="M125.977 159.38C125.977 159.38 133.233 192.036 133.752 206.032C134.27 220.029 137.6 239.396 137.6 239.396C137.6 239.396 144.12 229.36 145.157 211.216C146.193 193.074 139.454 164.045 139.454 164.045L125.977 159.38Z" fill="#1B151F"/>
<path d="M125.977 159.38L126.443 159.276C126.443 159.279 128.259 167.447 130.14 177.369C132.02 187.294 133.966 198.957 134.23 206.015C134.487 212.985 135.448 221.316 136.344 227.898C136.792 231.189 137.224 234.045 137.544 236.077C137.864 238.108 138.071 239.312 138.072 239.314L137.6 239.396L137.199 239.135L137.267 239.028C137.956 237.907 143.712 228.099 144.679 211.19C144.752 209.904 144.787 208.562 144.787 207.177C144.788 198.175 143.339 187.408 141.889 178.904C141.163 174.65 140.438 170.961 139.894 168.336C139.622 167.023 139.396 165.977 139.237 165.259C139.078 164.541 138.988 164.154 138.988 164.154L139.454 164.046L139.298 164.497L125.82 159.831L125.977 159.38L126.443 159.276L125.977 159.38L126.133 158.928L139.86 163.679L139.919 163.937C139.921 163.955 145.74 188.985 145.743 207.177C145.743 208.577 145.708 209.937 145.634 211.244C144.59 229.493 138.033 239.607 138.001 239.656L137.336 240.679L137.129 239.476C137.128 239.465 133.796 220.099 133.274 206.051C133.019 199.113 131.078 187.448 129.2 177.546C128.262 172.594 127.339 168.077 126.651 164.799C126.307 163.16 126.022 161.831 125.822 160.911C125.623 159.992 125.511 159.485 125.51 159.483L125.324 158.648L126.133 158.928L125.977 159.38" fill="#1B151F"/>
<path d="M121.154 136.768L115.087 158.257L135.817 171.15L136.069 144.605L121.154 136.768" fill="white"/>
<path d="M121.154 136.768L121.613 136.898L115.644 158.041L135.347 170.294L135.588 144.892L120.932 137.191L121.154 136.768L121.613 136.898L121.154 136.768L121.376 136.345L136.55 144.318L136.286 172.004L114.528 158.473L120.854 136.071L121.376 136.345L121.154 136.768" fill="#1B151F"/>
<path d="M161.349 116.291C164.889 113.763 170.704 114.521 171.201 116.396C171.699 118.269 179.551 148.65 179.551 157.498C179.551 166.346 170.956 174.688 170.704 176.458C170.45 178.228 163.639 215.885 156.56 226.249C149.482 236.615 138.106 240.406 137.6 239.396C137.094 238.384 140.114 213.116 139.103 208.311C138.092 203.508 133.035 171.907 132.024 160.532C131.013 149.156 131.518 141.571 131.518 141.571L146.687 146.122C146.687 146.122 143.653 140.055 145.676 136.263C147.698 132.47 157.811 124.38 157.811 124.38" fill="#4D6DCC"/>
<path d="M161.072 115.902C162.783 114.684 164.935 114.201 166.844 114.199C168.002 114.2 169.072 114.377 169.924 114.705C170.349 114.871 170.723 115.074 171.025 115.329C171.325 115.582 171.562 115.896 171.662 116.273C171.914 117.217 174.001 125.281 176.029 134.226C177.042 138.698 178.041 143.389 178.787 147.521C179.532 151.657 180.027 155.221 180.029 157.497C180.024 162.079 177.823 166.443 175.624 169.889C174.524 171.612 173.419 173.107 172.58 174.272C172.161 174.854 171.809 175.355 171.561 175.752C171.312 176.141 171.178 176.455 171.177 176.526C171.109 176.995 170.638 179.67 169.851 183.621C168.672 189.539 166.792 198.284 164.54 206.532C163.414 210.657 162.194 214.657 160.921 218.122C159.645 221.587 158.321 224.515 156.955 226.519C153.734 231.234 149.646 234.601 146.064 236.793C144.273 237.891 142.608 238.694 141.234 239.227C139.853 239.758 138.792 240.025 138.088 240.031C137.923 240.03 137.772 240.017 137.618 239.968C137.469 239.921 137.282 239.823 137.173 239.609C137.096 239.439 137.097 239.347 137.081 239.208C137.069 239.074 137.065 238.918 137.064 238.733C137.066 236.916 137.509 232.047 137.95 226.642C138.393 221.245 138.834 215.335 138.834 211.562C138.835 210.154 138.769 209.037 138.635 208.41C137.616 203.562 132.565 171.998 131.548 160.573C131.041 154.87 130.914 150.115 130.914 146.785C130.914 143.455 131.041 141.549 131.042 141.539L131.081 140.941L146.825 145.664L146.687 146.121L146.26 146.336C146.249 146.302 144.511 142.866 144.503 139.403C144.503 138.247 144.7 137.077 145.254 136.037C145.804 135.011 146.833 133.785 148.079 132.476C151.813 128.564 157.504 124.015 157.511 124.007L158.109 124.754C158.109 124.754 157.953 124.878 157.674 125.105C156.697 125.902 154.22 127.95 151.775 130.206C150.553 131.333 149.338 132.514 148.325 133.611C147.312 134.705 146.501 135.726 146.097 136.487C145.64 137.343 145.458 138.354 145.459 139.403C145.457 140.974 145.87 142.613 146.287 143.849C146.495 144.468 146.703 144.986 146.859 145.347C146.938 145.529 147.002 145.67 147.047 145.766C147.091 145.861 147.114 145.907 147.114 145.907L147.61 146.898L131.382 142.028L131.518 141.571L131.995 141.603C131.995 141.603 131.988 141.717 131.976 141.943C131.941 142.625 131.87 144.305 131.87 146.785C131.87 150.091 131.996 154.817 132.5 160.489C133.506 171.816 138.568 203.454 139.571 208.213C139.73 208.98 139.788 210.122 139.789 211.562C139.788 215.401 139.346 221.315 138.903 226.719C138.461 232.116 138.019 237.027 138.02 238.733C138.02 238.902 138.025 239.038 138.033 239.127L138.044 239.219L138.045 239.225L137.845 239.272L138.028 239.181L138.045 239.225L137.845 239.272L138.028 239.181L137.773 239.309L137.941 239.076L138.028 239.181L137.773 239.309L137.941 239.076L137.856 239.194L137.909 239.058L137.941 239.076L137.856 239.194L137.909 239.058L137.953 239.067L138.088 239.075C138.545 239.08 139.58 238.847 140.889 238.335C144.841 236.807 151.48 232.848 156.166 225.98C157.884 223.467 159.637 219.192 161.266 214.197C163.714 206.701 165.911 197.572 167.517 190.156C168.32 186.448 168.975 183.168 169.442 180.732C169.907 178.3 170.186 176.698 170.23 176.39C170.292 176.019 170.482 175.685 170.75 175.245C171.693 173.742 173.77 171.208 175.623 168.069C177.475 164.937 179.076 161.231 179.073 157.497C179.075 155.35 178.589 151.798 177.846 147.691C175.62 135.356 171.11 117.912 170.739 116.518C170.704 116.382 170.604 116.224 170.408 116.059C169.827 115.551 168.429 115.145 166.844 115.155C165.095 115.153 163.117 115.612 161.628 116.679L161.072 115.902" fill="#1B151F"/>
<path d="M173.611 161.368C173.643 161.991 173.656 162.597 173.656 163.168C173.656 165.436 173.455 167.148 173.454 167.161L172.503 167.049C172.503 167.049 172.516 166.948 172.534 166.758C172.589 166.188 172.7 164.826 172.7 163.168C172.7 162.612 172.688 162.022 172.656 161.417L173.611 161.368" fill="#1B151F"/>
<path d="M150.576 146.159C150.582 146.161 155.205 147.11 160.157 148.571C162.635 149.301 165.193 150.158 167.31 151.096C168.369 151.566 169.317 152.055 170.097 152.567C170.875 153.081 171.488 153.61 171.867 154.211L171.056 154.718C170.803 154.307 170.287 153.834 169.572 153.365C167.064 151.71 162.233 150.115 158.07 148.969C155.986 148.394 154.062 147.925 152.66 147.601C151.96 147.438 151.389 147.312 150.995 147.226C150.6 147.14 150.383 147.096 150.382 147.096L150.576 146.159" fill="#1B151F"/>
<path d="M172.765 148.825C172.765 148.825 172.708 148.796 172.594 148.743C171.804 148.365 168.341 146.845 165.395 146.853C161.804 146.852 154.233 146.092 154.223 146.092L154.319 145.141C154.32 145.141 154.791 145.188 155.556 145.259C157.847 145.472 162.782 145.897 165.395 145.897C167.254 145.899 169.188 146.42 170.671 146.934C172.153 147.45 173.179 147.964 173.193 147.969L172.765 148.825" fill="#1B151F"/>
<path d="M68.1643 205.528C68.1557 210.885 68.0114 213.905 67.5889 215.772C67.3767 216.704 67.0861 217.364 66.677 217.857C66.2678 218.352 65.7583 218.639 65.2154 218.865L64.8474 217.983C65.3292 217.78 65.6628 217.58 65.9419 217.247C66.3596 216.752 66.698 215.843 66.9064 214.026C67.1166 212.215 67.2036 209.529 67.2084 205.526L68.1643 205.528" fill="#1B151F"/>
<path d="M73.5938 105.738C73.5938 105.74 73.5048 106.385 73.3471 107.58C72.2479 115.944 67.8479 151.172 67.8489 178.89C67.8489 180.177 67.8585 181.448 67.8785 182.698C67.9894 189.766 68.084 195.392 68.1309 199.884L67.175 199.895C67.1282 195.408 67.0335 189.781 66.9227 182.714C66.9026 181.458 66.893 180.181 66.893 178.89C66.894 147.108 72.6465 105.618 72.6474 105.607L73.5938 105.738Z" fill="#1B151F"/>
<path d="M59.9084 43.2822L53.8166 119.344C53.8166 119.344 52.2499 121.607 45.6362 119.692L48.4207 42.0634C48.4207 42.0634 56.95 39.105 59.9084 43.2822Z" fill="white"/>
<path d="M59.9084 43.2822L60.3845 43.3204L54.2831 119.511L54.2095 119.616C54.1416 119.734 53.1723 120.95 50.2885 120.94C49.0678 120.94 47.504 120.731 45.5033 120.151L45.1458 120.048L47.9551 41.7193L48.2639 41.6123C48.2906 41.6056 51.2482 40.5723 54.3729 40.5694C55.477 40.5694 56.6059 40.6985 57.642 41.0665C58.6753 41.4326 59.6207 42.0482 60.2984 43.006L60.3988 43.1474L60.3845 43.3204L59.9084 43.2822L59.5184 43.5585C58.9717 42.788 58.2165 42.2862 57.3218 41.9669C56.429 41.6486 55.4024 41.5243 54.3729 41.5253C52.9152 41.5243 51.4575 41.7719 50.3706 42.0214C49.8267 42.1457 49.3756 42.2699 49.062 42.3636C48.9053 42.4095 48.782 42.4477 48.6998 42.4745L48.5774 42.5156L48.4207 42.0635L48.8986 42.0807L46.1141 119.71L45.6362 119.692L45.769 119.234C47.7009 119.793 49.1777 119.984 50.2885 119.984C51.6018 119.983 52.4019 119.719 52.8655 119.479C53.0968 119.359 53.245 119.243 53.332 119.165L53.417 119.079L53.4295 119.064L53.5757 119.177L53.4237 119.072L53.4295 119.064L53.5757 119.177L53.4237 119.072L53.8166 119.345L53.3396 119.306L59.4324 43.244L59.9084 43.2822L59.5184 43.5585L59.9084 43.2822" fill="#1B151F"/>
<path d="M56.6517 80.9825C56.6517 80.9825 52.2738 78.5086 47.2258 80.4233L47.1455 83.2192C47.1455 83.2192 53.3453 82.6113 56.6517 84.177V80.9825" fill="#4D6DCC"/>
<path d="M56.6517 80.9824L56.4166 81.3982L56.3984 81.3877C56.1776 81.2673 54.0555 80.1719 51.2137 80.1738C50.0408 80.1738 48.7437 80.3583 47.3959 80.8697L47.2258 80.4232L47.7037 80.4366L47.6234 83.2326L47.1455 83.2192L47.0996 82.7432C47.1101 82.7422 48.3078 82.6246 49.9395 82.6246C52.0453 82.6304 54.8566 82.8063 56.8563 83.7449L56.6517 84.177H56.1738V80.9824H56.6517L56.4166 81.3982L56.6517 80.9824H57.1296V84.9331L56.4472 84.609C54.7237 83.7851 51.9794 83.5757 49.9395 83.5805C49.1461 83.5805 48.4569 83.6092 47.9675 83.6379C47.7219 83.6522 47.5269 83.6666 47.394 83.6771C47.2611 83.6885 47.1923 83.6952 47.1923 83.6952L46.6522 83.7478L46.7574 80.0896L47.0566 79.9759C48.5248 79.4196 49.9405 79.2179 51.2137 79.2179C54.5067 79.2217 56.8448 80.5446 56.8869 80.5657L57.1296 80.7033V80.9824H56.6517" fill="#1B151F"/>
<path d="M58.8723 74.6496L57.9986 80.7663C57.9986 80.7663 61.7131 85.5725 61.0574 86.2282C60.4026 86.8839 58.2165 87.3208 58.2165 87.3208L56.6517 80.9824C56.6517 80.9824 53.8481 77.9264 54.067 76.6159C54.285 75.3054 57.3428 72.2465 57.9986 72.2465C58.6533 72.2465 58.8723 74.6496 58.8723 74.6496" fill="#4D6DCC"/>
<path d="M58.8723 74.6493L59.3454 74.7171L58.4717 80.8338L57.9986 80.766L58.3771 80.4744C58.38 80.4792 59.1686 81.4982 59.9629 82.6739C60.3606 83.2618 60.7592 83.8879 61.0651 84.4557C61.219 84.7396 61.349 85.0091 61.4465 85.2605C61.5411 85.5129 61.6099 85.7404 61.6128 85.9908C61.6137 86.1629 61.5726 86.3865 61.3958 86.5653C61.1559 86.8014 60.8576 86.9629 60.5326 87.1111C59.5653 87.5422 58.3274 87.784 58.3102 87.7888L57.8629 87.8787L56.1872 81.0967L56.6517 80.982L56.299 81.3051C56.2923 81.2974 55.6347 80.5815 54.9684 79.6772C54.6348 79.2251 54.2984 78.7261 54.0384 78.2348C53.7803 77.7396 53.5824 77.2627 53.5767 76.7704L53.5948 76.5371C53.6799 76.0688 53.9447 75.6099 54.2888 75.1072C54.8079 74.3616 55.5296 73.5644 56.1968 72.9354C56.5313 72.6209 56.8506 72.3504 57.1335 72.1487C57.2759 72.0464 57.4088 71.9623 57.5407 71.8963C57.6765 71.8323 57.7998 71.774 57.9986 71.7682C58.2328 71.7673 58.4307 71.883 58.5549 72.0044C58.7738 72.2223 58.8799 72.4737 58.9793 72.7452C59.2575 73.5481 59.3445 74.5872 59.3483 74.6063L59.3531 74.6617L59.3454 74.7171L58.8723 74.6493L58.3962 74.6923L58.3867 74.5986C58.3628 74.3816 58.2911 73.8205 58.164 73.3464C58.1028 73.1113 58.0225 72.8962 57.9546 72.7805L57.8925 72.6936L57.9986 72.5664V72.7241L57.8925 72.6936L57.9986 72.5664V72.7241V72.5483L58.0387 72.7213L57.9986 72.7241V72.5483L58.0387 72.7213L57.9737 72.748C57.8103 72.8264 57.4815 73.0644 57.1249 73.3818C56.5858 73.8578 55.9501 74.5193 55.4454 75.1559C55.1921 75.4733 54.9713 75.7858 54.8117 76.0592C54.6511 76.3307 54.5565 76.5696 54.5383 76.6949L54.5326 76.7704C54.5268 76.9682 54.653 77.363 54.8824 77.7874C55.2218 78.4288 55.7561 79.1582 56.2025 79.7145C56.4262 79.9936 56.6278 80.2307 56.7722 80.3979C56.9175 80.5643 57.0035 80.6579 57.0035 80.6579L57.0857 80.7488L58.6811 87.2057L58.2165 87.3204L58.1229 86.852C58.1238 86.852 58.25 86.8262 58.4584 86.7765C58.77 86.7029 59.2556 86.5758 59.7087 86.4124C60.1598 86.2546 60.5862 86.0348 60.719 85.8895L60.8825 86.0529L60.6607 85.9822L60.72 85.8895L60.8825 86.0529L60.6607 85.9822L60.7601 86.0137L60.6569 85.9994L60.6607 85.9822L60.7601 86.0137L60.6569 85.9994V85.9908C60.6598 85.9507 60.6301 85.7958 60.5546 85.6037C60.2917 84.9116 59.5481 83.7426 58.8818 82.7876C58.5482 82.3068 58.2318 81.8738 57.9995 81.5613C57.7673 81.2487 57.621 81.0594 57.6201 81.0585L57.4967 80.8988L58.3991 74.5814L58.8723 74.6493L58.3962 74.6923L58.8723 74.6493" fill="#1B151F"/>
<path d="M40.3033 119.871C40.3033 119.871 45.3284 132.542 44.8915 142.154C44.4547 151.766 41.177 161.16 39.2117 162.689C37.2454 164.218 30.473 163.127 29.1625 158.756C27.8511 154.388 24.3564 140.843 25.0111 136.474C25.6669 132.105 27.1953 126.644 27.6322 124.677C28.069 122.711 37.2455 117.249 40.3033 119.871Z" fill="white"/>
<path d="M40.3033 119.871L40.7478 119.694C40.7535 119.723 45.3886 131.366 45.3962 140.938C45.3962 141.355 45.3877 141.768 45.3685 142.176C45.1477 147.029 44.2129 151.812 43.083 155.59C42.5171 157.48 41.9035 159.116 41.2984 160.392C40.6866 161.67 40.1179 162.578 39.5052 163.067C38.8035 163.601 37.7865 163.815 36.6346 163.821C35.1664 163.819 33.4707 163.443 31.9862 162.648C30.5056 161.854 29.2218 160.618 28.7047 158.894C28.0996 156.879 27.0405 152.951 26.1295 148.852C25.2195 144.748 24.4548 140.496 24.452 137.765C24.452 137.26 24.4787 136.805 24.5389 136.403C25.2004 131.993 26.7355 126.513 27.1657 124.573C27.2402 124.253 27.4152 123.976 27.6484 123.682C28.4666 122.676 30.1356 121.473 32.0722 120.471C34.0098 119.477 36.1873 118.7 38.0398 118.695C39.0119 118.695 39.9229 118.917 40.6149 119.508L40.7038 119.585L40.7478 119.694L40.3033 119.871L39.9927 120.234C39.5386 119.844 38.8752 119.651 38.0398 119.651C36.2303 119.643 33.7508 120.587 31.7338 121.741C30.7235 122.316 29.8231 122.941 29.1683 123.505C28.8414 123.787 28.5766 124.053 28.393 124.282C28.2076 124.507 28.113 124.701 28.0986 124.781C27.6551 126.775 26.1324 132.217 25.4843 136.545C25.4336 136.881 25.4078 137.294 25.4078 137.765C25.4059 140.333 26.1572 144.577 27.0625 148.644C27.9677 152.715 29.0239 156.634 29.6204 158.62C30.0439 160.035 31.1106 161.091 32.4383 161.806C33.7613 162.518 35.3308 162.867 36.6346 162.865C37.6574 162.871 38.5111 162.639 38.9183 162.311C39.2882 162.036 39.8665 161.197 40.4352 159.983C42.1711 156.328 44.0934 149.268 44.4136 142.132C44.4318 141.74 44.4404 141.341 44.4404 140.938C44.4423 136.299 43.299 131.062 42.151 126.998C41.5775 124.966 41.003 123.226 40.5738 121.994C40.3588 121.379 40.1791 120.891 40.0538 120.558C39.9296 120.224 39.8598 120.048 39.8588 120.047L40.3033 119.871L39.9927 120.234L40.3033 119.871" fill="#1B151F"/>
<path d="M31.6613 111.487C31.6613 111.487 38.2339 96.0669 39.2462 93.5386C40.2565 91.0103 40.0042 88.9886 41.2679 88.9886C42.5315 88.9886 56.1825 87.9764 57.1947 88.7353C58.2061 89.4933 57.448 94.2967 57.448 94.2967C57.448 94.2967 58.2061 96.5726 58.2061 98.3419C58.2061 100.111 58.2061 100.111 58.2061 100.111C58.2061 100.111 57.4481 104.662 57.1947 105.674C56.9414 106.684 56.9414 109.465 56.1825 110.729C56.1825 110.729 52.3914 111.235 51.3801 111.235C50.3688 111.235 48.5995 113.763 46.5768 116.291C44.5542 118.819 41.7735 121.347 41.7735 121.347C41.7735 121.347 41.7735 129.942 41.7735 135.251C41.7735 140.56 40.2565 151.683 37.7292 151.431C35.1999 151.178 27.6169 139.549 27.1103 133.481C26.6056 127.414 30.6509 113.51 31.6613 111.487" fill="white"/>
<path d="M31.6612 111.487L31.2215 111.3C31.2225 111.298 31.6325 110.336 32.2644 108.851C34.1589 104.398 38.0494 95.243 38.8026 93.3608C39.2872 92.1488 39.4708 91.0505 39.7002 90.1911C39.8187 89.761 39.9411 89.3825 40.1772 89.0594C40.2947 88.8988 40.4486 88.7544 40.6389 88.656C40.8291 88.5566 41.047 88.5097 41.2678 88.5107C41.4647 88.5107 42.1147 88.4772 43.0085 88.4275C45.7041 88.2774 50.733 87.9754 54.0546 87.9754C54.8863 87.9754 55.6118 87.9936 56.1786 88.0404C56.4625 88.0633 56.7062 88.0939 56.9146 88.135C57.1249 88.1828 57.2903 88.2182 57.4815 88.353C57.8533 88.6483 57.9804 89.0613 58.0779 89.5115C58.1688 89.9665 58.1984 90.4865 58.1984 91.0208C58.1974 92.621 57.9212 94.3588 57.9202 94.3712L57.448 94.2966L57.9011 94.1456C57.9049 94.1705 58.6782 96.4493 58.684 98.3419C58.684 100.111 58.684 100.111 58.684 100.111V100.151L58.6773 100.19C58.6773 100.191 58.4871 101.329 58.2663 102.596C58.0435 103.866 57.794 105.245 57.6583 105.789C57.5493 106.21 57.4786 107.176 57.3524 108.167C57.2186 109.169 57.0418 110.213 56.5925 110.976L56.474 111.173L56.2465 111.203C56.2446 111.203 55.2954 111.329 54.2162 111.457C53.1313 111.584 51.945 111.711 51.3801 111.713C51.3313 111.702 51.0895 111.787 50.7894 112.04C50.3334 112.41 49.7417 113.076 49.0898 113.881C48.436 114.687 47.7124 115.636 46.9496 116.59C44.8935 119.159 42.1042 121.691 42.0956 121.701L41.7735 121.347H42.2514C42.2514 121.347 42.2514 129.942 42.2514 135.251C42.2505 137.918 41.8786 141.976 41.1913 145.406C40.8463 147.121 40.4257 148.675 39.9153 149.837C39.6581 150.418 39.3809 150.905 39.0502 151.274C38.7261 151.638 38.3103 151.911 37.8133 151.912L37.6823 151.906H37.6814C37.1986 151.85 36.7599 151.588 36.2724 151.212C35.4264 150.544 34.4562 149.461 33.4401 148.113C31.9193 146.091 30.3125 143.481 29.0364 140.861C27.7622 138.238 26.813 135.62 26.6343 133.521C26.6037 133.151 26.5893 132.758 26.5893 132.344C26.5912 129.006 27.5098 124.257 28.5431 120.073C29.0603 117.983 29.607 116.038 30.085 114.492C30.5667 112.942 30.9663 111.813 31.2339 111.274L31.6612 111.487L31.2215 111.3L31.6612 111.487L32.0885 111.701C31.8801 112.114 31.4681 113.255 30.9988 114.775C29.5793 119.347 27.5395 127.576 27.5452 132.344C27.5452 132.735 27.5586 133.103 27.5873 133.442C27.7048 134.875 28.2573 136.706 29.0679 138.625C30.2828 141.504 32.0704 144.59 33.7795 146.961C34.6321 148.145 35.4675 149.152 36.1883 149.859C36.5477 150.212 36.8794 150.49 37.1585 150.675C37.4367 150.863 37.6661 150.947 37.776 150.955L37.8133 150.956C37.9366 150.958 38.1086 150.89 38.339 150.635C38.7386 150.198 39.1735 149.274 39.5396 148.091C40.6561 144.532 41.2984 138.639 41.2955 135.251C41.2955 132.597 41.2955 129.12 41.2955 126.308C41.2955 123.496 41.2955 121.352 41.2955 121.347V121.135L41.4523 120.993C41.4523 120.992 41.6215 120.839 41.9111 120.565C42.78 119.744 44.7138 117.856 46.203 115.992C47.2096 114.735 48.1578 113.471 48.9971 112.501C49.4177 112.017 49.8096 111.606 50.1862 111.299C50.5647 110.999 50.9232 110.767 51.3801 110.757C51.8255 110.759 53.0414 110.634 54.1043 110.507C55.1749 110.381 56.1174 110.256 56.1193 110.256L56.1824 110.729L55.7733 110.484C56.083 109.982 56.2857 109.003 56.4042 108.045C56.5313 107.078 56.5868 106.148 56.7311 105.557C56.8487 105.09 57.1048 103.688 57.3247 102.431C57.5455 101.169 57.7338 100.036 57.7338 100.033L58.206 100.111H57.7281C57.7281 100.111 57.7281 100.111 57.7281 98.3419C57.729 97.5237 57.5474 96.5363 57.362 95.7668C57.2693 95.3825 57.1765 95.0499 57.1077 94.8157C57.0733 94.6981 57.0446 94.6054 57.0246 94.5423L56.994 94.4477L56.9577 94.3377L56.9758 94.2221C56.9758 94.2221 56.9921 94.1198 57.0169 93.9372C57.0924 93.3905 57.2435 92.1411 57.2425 91.0208C57.2435 90.5247 57.2119 90.0535 57.1402 89.6988C57.0771 89.3404 56.9414 89.1253 56.9079 89.1177L56.9643 89.0431L56.9232 89.1272L56.9079 89.1177L56.9643 89.0431L56.9232 89.1272C56.9089 89.1186 56.7951 89.0813 56.6336 89.0555C56.1404 88.9705 55.2007 88.9303 54.0546 88.9313C51.8752 88.9313 48.911 89.0641 46.3827 89.198C45.1181 89.2649 43.9615 89.3318 43.062 89.3815C42.1587 89.4321 41.5307 89.4656 41.2678 89.4666C41.1732 89.4666 41.1216 89.4828 41.0795 89.5038C41.0107 89.5392 40.9228 89.6252 40.8243 89.8413C40.6771 90.1586 40.5528 90.7054 40.3961 91.3774C40.2374 92.0494 40.0357 92.8513 39.6897 93.7155C38.6716 96.26 32.1028 111.672 32.1009 111.675L32.0952 111.688L32.0885 111.701L31.6612 111.487" fill="#1B151F"/>
<path d="M57.406 94.7727L47.1905 93.8732L47.0777 93.7834L47.071 93.7786C47.0251 93.7423 46.7527 93.5377 46.379 93.3494C46.0052 93.1601 45.5321 92.9948 45.1038 92.9967C44.8754 92.9976 44.6613 93.0397 44.4576 93.141L44.0304 92.2865C44.3831 92.1096 44.754 92.0408 45.1038 92.0408C45.8064 92.0437 46.4344 92.2998 46.8971 92.5417C47.3597 92.7854 47.6589 93.0244 47.6751 93.0368L47.3769 93.4106L47.418 92.9336L57.4901 93.8207L57.406 94.7727Z" fill="#1B151F"/>
<path d="M57.5522 101.885L47.8375 99.9422L47.7353 99.8399L47.7247 99.8304C47.6655 99.772 47.3386 99.4643 46.9046 99.1832C46.4716 98.8984 45.9305 98.6584 45.4985 98.6642C45.3589 98.6642 45.2309 98.6852 45.1075 98.7311L44.772 97.8364C45.0129 97.7465 45.2595 97.7083 45.4985 97.7083C46.2957 97.715 46.9983 98.0964 47.525 98.4482C48.0507 98.8037 48.3967 99.1507 48.4111 99.1641L48.0727 99.5025L48.1664 99.0332L57.7395 100.948L57.5522 101.885" fill="#1B151F"/>
<path d="M57.1564 106.149L49.4549 105.537L49.3402 105.445L49.2503 105.374C49.0381 105.212 48.478 104.795 47.8481 104.429C47.2248 104.058 46.5003 103.759 46.1141 103.769L45.9411 103.79C45.3637 103.956 44.8648 104.163 44.513 104.329C44.3371 104.412 44.1976 104.484 44.1039 104.535L43.9987 104.593L43.9682 104.611L43.4759 103.791C43.4988 103.779 44.3974 103.239 45.6792 102.872C45.8235 102.831 45.9698 102.814 46.1141 102.813C46.5471 102.816 46.9754 102.951 47.4007 103.13C48.6644 103.673 49.9195 104.687 49.9376 104.698L49.6394 105.071L49.6767 104.595L57.2329 105.196L57.1564 106.149Z" fill="#1B151F"/>
<path d="M41.7734 121.347C41.7734 121.347 39.3704 122.129 37.8037 121.085Z" fill="white"/>
<path d="M41.9216 121.802C41.8939 121.809 40.9944 122.105 39.8789 122.106C39.1362 122.105 38.2816 121.975 37.5389 121.483L38.0685 120.688C38.5799 121.031 39.2471 121.152 39.8789 121.151C40.3511 121.151 40.7956 121.086 41.1168 121.02C41.2783 120.987 41.4083 120.954 41.4972 120.93L41.5976 120.901L41.6263 120.892L41.9216 121.802" fill="#1B151F"/>
</g>
<defs>
<clipPath id="clip0_291_3129">
<rect width="221" height="433" fill="white"/>
</clipPath>
</defs>
</svg>
