<svg viewBox="0 0 210 172" fill="none" xmlns="http://www.w3.org/2000/svg">
<path d="M23.3071 82.2334H21.2004C21.0549 82.2334 20.937 82.3514 20.937 82.497C20.937 82.6426 21.0549 82.76 21.2004 82.76H23.3071C23.4524 82.76 23.5702 82.6426 23.5702 82.497C23.5702 82.3514 23.4524 82.2334 23.3071 82.2334ZM19.0602 82.3609C18.3387 82.4731 17.6408 82.6569 16.9742 82.9052C16.8378 82.9558 16.7687 83.1076 16.8194 83.2437C16.8701 83.3803 17.0218 83.4495 17.1581 83.3989C17.7916 83.163 18.4551 82.9878 19.141 82.8813C19.2848 82.8594 19.3833 82.7247 19.3609 82.581C19.3385 82.4373 19.204 82.3389 19.0602 82.3609ZM15.0402 83.8577C14.4279 84.2401 13.8568 84.6827 13.3355 85.1769C13.23 85.2772 13.2255 85.4438 13.3257 85.5493C13.4256 85.6548 13.5924 85.6591 13.6979 85.5589C14.1938 85.089 14.7369 84.6679 15.3192 84.3041C15.4425 84.2272 15.4801 84.0649 15.4031 83.9413C15.3259 83.8181 15.1634 83.7804 15.0402 83.8577M11.9273 86.8083C11.5158 87.3946 11.1617 88.0239 10.8724 88.688C10.8144 88.8217 10.8754 88.9769 11.0089 89.0347C11.1422 89.0929 11.2974 89.0318 11.3554 88.8981C11.6301 88.2669 11.9672 87.6687 12.3582 87.111C12.4418 86.9921 12.4131 86.8279 12.2941 86.7443C12.1749 86.6608 12.0108 86.6894 11.9273 86.8083M10.2165 90.7415C10.0704 91.4338 9.99116 92.1505 9.98557 92.8843C9.98443 93.0295 10.1014 93.1484 10.2469 93.1498C10.3923 93.1507 10.5111 93.0338 10.5122 92.8881C10.5175 92.1896 10.593 91.5083 10.7318 90.8504C10.7618 90.7081 10.6708 90.5682 10.5285 90.5382C10.3862 90.5085 10.2465 90.5993 10.2165 90.7415M9.98519 94.9932V97.0997C9.98519 97.2448 10.1031 97.3628 10.2486 97.3628C10.394 97.3628 10.5119 97.2448 10.5119 97.0997V94.9932C10.5119 94.8476 10.394 94.7297 10.2486 94.7297C10.1031 94.7297 9.98519 94.8476 9.98519 94.9932ZM9.98519 99.2062V101.313C9.98519 101.458 10.1031 101.576 10.2486 101.576C10.394 101.576 10.5119 101.458 10.5119 101.313V99.2062C10.5119 99.0611 10.394 98.9431 10.2486 98.9431C10.1031 98.9431 9.98519 99.0611 9.98519 99.2062ZM9.98519 103.42V105.527C9.98519 105.672 10.1031 105.79 10.2486 105.79C10.394 105.79 10.5119 105.672 10.5119 105.527V103.42C10.5119 103.274 10.394 103.157 10.2486 103.157C10.1031 103.157 9.98519 103.274 9.98519 103.42ZM9.98519 107.633V109.74C9.98519 109.885 10.1031 110.003 10.2486 110.003C10.394 110.003 10.5119 109.885 10.5119 109.74V107.633C10.5119 107.488 10.394 107.37 10.2486 107.37C10.1031 107.37 9.98519 107.488 9.98519 107.633ZM9.98519 111.847V113.953C9.98519 114.099 10.1031 114.217 10.2486 114.217C10.394 114.217 10.5119 114.099 10.5119 113.953V111.847C10.5119 111.701 10.394 111.583 10.2486 111.583C10.1031 111.583 9.98519 111.701 9.98519 111.847ZM9.98519 116.06V118.167C9.98519 118.312 10.1031 118.43 10.2486 118.43C10.394 118.43 10.5119 118.312 10.5119 118.167V116.06C10.5119 115.914 10.394 115.797 10.2486 115.797C10.1031 115.797 9.98519 115.914 9.98519 116.06ZM9.98519 120.274V122.38C9.98519 122.526 10.1031 122.643 10.2486 122.643C10.394 122.643 10.5119 122.526 10.5119 122.38V120.274C10.5119 120.128 10.394 120.01 10.2486 120.01C10.1031 120.01 9.98519 120.128 9.98519 120.274ZM9.98519 124.487V126.594C9.98519 126.739 10.1031 126.857 10.2486 126.857C10.394 126.857 10.5119 126.739 10.5119 126.594V124.487C10.5119 124.341 10.394 124.223 10.2486 124.223C10.1031 124.223 9.98519 124.341 9.98519 124.487ZM9.98519 128.7V130.807C9.98519 130.952 10.1031 131.07 10.2486 131.07C10.394 131.07 10.5119 130.952 10.5119 130.807V128.7C10.5119 128.555 10.394 128.437 10.2486 128.437C10.1031 128.437 9.98519 128.555 9.98519 128.7ZM9.98519 132.914V135.02C9.98519 135.166 10.1031 135.284 10.2486 135.284C10.394 135.284 10.5119 135.166 10.5119 135.02V132.914C10.5119 132.768 10.394 132.65 10.2486 132.65C10.1031 132.65 9.98519 132.768 9.98519 132.914ZM9.98519 137.127V139.233C9.98519 139.379 10.1031 139.497 10.2486 139.497C10.394 139.497 10.5119 139.379 10.5119 139.233V137.127C10.5119 136.981 10.394 136.863 10.2486 136.863C10.1031 136.863 9.98519 136.981 9.98519 137.127ZM9.98519 141.34V143.447C9.98519 143.593 10.1031 143.71 10.2486 143.71C10.394 143.71 10.5119 143.593 10.5119 143.447V141.34C10.5119 141.195 10.394 141.077 10.2486 141.077C10.1031 141.077 9.98519 141.195 9.98519 141.34ZM9.98519 145.553V147.66C9.98519 147.806 10.1031 147.923 10.2486 147.923C10.394 147.923 10.5119 147.806 10.5119 147.66V145.553C10.5119 145.408 10.394 145.29 10.2486 145.29C10.1031 145.29 9.98519 145.408 9.98519 145.553M9.98519 149.767V150.425C9.98519 150.927 10.0197 151.421 10.0863 151.905C10.1062 152.049 10.2392 152.149 10.3832 152.13C10.5272 152.11 10.6281 151.977 10.6081 151.833C10.5447 151.373 10.5119 150.903 10.5119 150.425V149.767C10.5119 149.622 10.394 149.504 10.2486 149.504C10.1031 149.504 9.98519 149.622 9.98519 149.767M10.5947 153.999C10.8364 154.684 11.1456 155.337 11.5142 155.95C11.5891 156.074 11.7508 156.115 11.8756 156.04C12.0002 155.965 12.0405 155.803 11.9655 155.678C11.6151 155.096 11.3211 154.475 11.0913 153.824C11.043 153.687 10.8925 153.615 10.7555 153.664C10.6184 153.712 10.5464 153.862 10.5947 153.999M12.8044 157.676C13.2904 158.207 13.8292 158.688 14.412 159.112C14.5297 159.198 14.6944 159.172 14.78 159.054C14.8656 158.936 14.8395 158.772 14.7218 158.686C14.1673 158.283 13.655 157.825 13.1927 157.321C13.0944 157.213 12.9278 157.206 12.8206 157.304C12.7136 157.403 12.7063 157.569 12.8044 157.676M16.2735 160.199C16.9222 160.494 17.6055 160.727 18.3155 160.889C18.4574 160.922 18.5986 160.833 18.6311 160.691C18.6636 160.55 18.5749 160.408 18.4332 160.376C17.7581 160.222 17.1087 160 16.4919 159.719C16.3597 159.659 16.2034 159.717 16.1432 159.85C16.0829 159.982 16.1413 160.138 16.2735 160.199ZM20.4542 161.156C20.5424 161.159 20.631 161.16 20.7197 161.16H22.5672C22.7127 161.16 22.8306 161.042 22.8306 160.896C22.8306 160.751 22.7127 160.633 22.5672 160.633H20.7197C20.6353 160.633 20.551 160.632 20.4668 160.63C20.3215 160.626 20.2009 160.742 20.1972 160.887C20.1936 161.032 20.3087 161.153 20.4542 161.156M24.674 161.16H26.7805C26.926 161.16 27.0439 161.042 27.0439 160.896C27.0439 160.751 26.926 160.633 26.7805 160.633H24.674C24.5285 160.633 24.4105 160.751 24.4105 160.896C24.4105 161.042 24.5285 161.16 24.674 161.16M28.8873 161.16H30.994C31.1395 161.16 31.2573 161.042 31.2573 160.896C31.2573 160.751 31.1395 160.633 30.994 160.633H28.8873C28.7418 160.633 28.6239 160.751 28.6239 160.896C28.6239 161.042 28.7418 161.16 28.8873 161.16ZM33.1008 161.16H35.2075C35.3528 161.16 35.4706 161.042 35.4706 160.896C35.4706 160.751 35.3528 160.633 35.2075 160.633H33.1008C32.9553 160.633 32.8374 160.751 32.8374 160.896C32.8374 161.042 32.9553 161.16 33.1008 161.16ZM37.314 161.16H39.4208C39.5663 161.16 39.6841 161.042 39.6841 160.896C39.6841 160.751 39.5663 160.633 39.4208 160.633H37.314C37.1688 160.633 37.0507 160.751 37.0507 160.896C37.0507 161.042 37.1688 161.16 37.314 161.16ZM41.5275 161.16H43.6342C43.7795 161.16 43.8976 161.042 43.8976 160.896C43.8976 160.751 43.7795 160.633 43.6342 160.633H41.5275C41.382 160.633 41.2642 160.751 41.2642 160.896C41.2642 161.042 41.382 161.16 41.5275 161.16ZM45.741 161.16H47.8475C47.993 161.16 48.1108 161.042 48.1108 160.896C48.1108 160.751 47.993 160.633 47.8475 160.633H45.741C45.5955 160.633 45.4774 160.751 45.4774 160.896C45.4774 161.042 45.5955 161.16 45.741 161.16ZM49.9544 161.16H52.0609C52.2065 161.16 52.3245 161.042 52.3245 160.896C52.3245 160.751 52.2065 160.633 52.0609 160.633H49.9544C49.8088 160.633 49.6909 160.751 49.6909 160.896C49.6909 161.042 49.8088 161.16 49.9544 161.16ZM54.1679 161.16H56.2228H56.2758C56.421 161.159 56.5384 161.04 56.5379 160.895C56.537 160.75 56.4186 160.632 56.2729 160.633H56.2228H54.1679C54.0223 160.633 53.9043 160.751 53.9043 160.896C53.9043 161.042 54.0223 161.16 54.1679 161.16ZM58.4191 160.935C59.1324 160.786 59.8204 160.567 60.4745 160.285C60.6082 160.227 60.6693 160.072 60.612 159.938C60.5542 159.805 60.399 159.744 60.2658 159.801C59.6437 160.07 58.9901 160.278 58.3116 160.419C58.1694 160.449 58.0777 160.588 58.1073 160.731C58.1369 160.873 58.2763 160.964 58.4191 160.935ZM62.3575 159.235C62.9491 158.823 63.4972 158.352 63.9933 157.832C64.0935 157.726 64.0897 157.559 63.9842 157.459C63.8792 157.359 63.7125 157.363 63.6118 157.468C63.1401 157.963 62.6187 158.411 62.0563 158.803C61.9369 158.887 61.9078 159.05 61.9909 159.17C62.0739 159.289 62.2382 159.318 62.3575 159.235M65.3172 156.131C65.6978 155.525 66.02 154.879 66.275 154.2C66.3261 154.063 66.2573 153.912 66.1213 153.861C65.9852 153.809 65.8334 153.878 65.7818 154.014C65.5392 154.66 65.2332 155.274 64.8713 155.851C64.7939 155.974 64.8307 156.136 64.9539 156.213C65.0771 156.291 65.2399 156.254 65.3172 156.131ZM66.825 152.115C66.9124 151.565 66.9573 151 66.9573 150.425C66.9573 150.28 66.8393 150.162 66.6942 150.162C66.5486 150.162 66.4306 150.28 66.4306 150.425C66.4306 150.972 66.3877 151.509 66.3051 152.033C66.2822 152.177 66.38 152.311 66.5237 152.334C66.6675 152.357 66.8026 152.259 66.825 152.115" fill="#1D2A30"/>
<path d="M64.0463 28.2823V26.1759C64.0463 26.0307 63.9283 25.9128 63.7827 25.9128C63.6376 25.9128 63.5196 26.0307 63.5196 26.1759V28.2823C63.5196 28.428 63.6376 28.5459 63.7827 28.5459C63.9283 28.5459 64.0463 28.428 64.0463 28.2823ZM64.0463 24.0694V21.9624C64.0463 21.8172 63.9283 21.6993 63.7827 21.6993C63.6376 21.6993 63.5196 21.8172 63.5196 21.9624V24.0694C63.5196 24.2145 63.6376 24.3324 63.7827 24.3324C63.9283 24.3324 64.0463 24.2145 64.0463 24.0694ZM64.0463 19.8559V17.7489C64.0463 17.6038 63.9283 17.4858 63.7827 17.4858C63.6376 17.4858 63.5196 17.6038 63.5196 17.7489V19.8559C63.5196 20.001 63.6376 20.119 63.7827 20.119C63.9283 20.119 64.0463 20.001 64.0463 19.8559ZM64.169 15.704C64.3055 15.0318 64.5514 14.3996 64.8875 13.8262C64.961 13.7006 64.919 13.5393 64.7935 13.4657C64.6679 13.3922 64.5065 13.4342 64.433 13.5598C64.0682 14.1819 63.8009 14.8689 63.6528 15.5994C63.6237 15.7417 63.7159 15.8807 63.8586 15.9098C64.0009 15.9384 64.1398 15.8463 64.169 15.704V15.704ZM66.1742 12.2807C66.6803 11.8429 67.2585 11.4862 67.8883 11.2308C68.0234 11.1764 68.0883 11.0226 68.0334 10.888C67.979 10.7534 67.8253 10.6879 67.6906 10.7428C67.0064 11.0198 66.3786 11.407 65.8295 11.882C65.7197 11.9775 65.7073 12.1437 65.8028 12.254C65.8978 12.3638 66.0639 12.3757 66.1742 12.2807V12.2807ZM69.8501 10.793C69.9647 10.7868 70.0798 10.7834 70.1958 10.7834H71.9423C72.0874 10.7834 72.2054 10.6655 72.2054 10.5204C72.2054 10.3747 72.0874 10.2568 71.9423 10.2568H70.1958C70.0702 10.2568 69.9451 10.2602 69.821 10.2673C69.6758 10.275 69.5646 10.3996 69.5727 10.5447C69.5808 10.6898 69.705 10.8011 69.8501 10.793V10.793ZM74.0488 10.7834H76.1553C76.3009 10.7834 76.4188 10.6655 76.4188 10.5204C76.4188 10.3747 76.3009 10.2568 76.1553 10.2568H74.0488C73.9032 10.2568 73.7852 10.3747 73.7852 10.5204C73.7852 10.6655 73.9032 10.7834 74.0488 10.7834ZM78.2623 10.7834H80.3688C80.5144 10.7834 80.6323 10.6655 80.6323 10.5204C80.6323 10.3747 80.5144 10.2568 80.3688 10.2568H78.2623C78.1166 10.2568 77.9987 10.3747 77.9987 10.5204C77.9987 10.6655 78.1166 10.7834 78.2623 10.7834ZM82.4757 10.7834H84.5822C84.7278 10.7834 84.8458 10.6655 84.8458 10.5204C84.8458 10.3747 84.7278 10.2568 84.5822 10.2568H82.4757C82.3301 10.2568 82.2122 10.3747 82.2122 10.5204C82.2122 10.6655 82.3301 10.7834 82.4757 10.7834ZM86.6892 10.7834H88.7957C88.9413 10.7834 89.0592 10.6655 89.0592 10.5204C89.0592 10.3747 88.9413 10.2568 88.7957 10.2568H86.6892C86.5436 10.2568 86.4256 10.3747 86.4256 10.5204C86.4256 10.6655 86.5436 10.7834 86.6892 10.7834ZM90.9022 10.7834H93.0092C93.1543 10.7834 93.2722 10.6655 93.2722 10.5204C93.2722 10.3747 93.1543 10.2568 93.0092 10.2568H90.9022C90.7571 10.2568 90.6391 10.3747 90.6391 10.5204C90.6391 10.6655 90.7571 10.7834 90.9022 10.7834ZM95.1157 10.7834H97.2226C97.3678 10.7834 97.4857 10.6655 97.4857 10.5204C97.4857 10.3747 97.3678 10.2568 97.2226 10.2568H95.1157C94.9705 10.2568 94.8526 10.3747 94.8526 10.5204C94.8526 10.6655 94.9705 10.7834 95.1157 10.7834ZM99.3291 10.7834H101.436C101.581 10.7834 101.699 10.6655 101.699 10.5204C101.699 10.3747 101.581 10.2568 101.436 10.2568H99.3291C99.1835 10.2568 99.0661 10.3747 99.0661 10.5204C99.0661 10.6655 99.1835 10.7834 99.3291 10.7834ZM103.543 10.7834H105.649C105.795 10.7834 105.913 10.6655 105.913 10.5204C105.913 10.3747 105.795 10.2568 105.649 10.2568H103.543C103.397 10.2568 103.279 10.3747 103.279 10.5204C103.279 10.6655 103.397 10.7834 103.543 10.7834ZM107.756 10.7834H109.863C110.008 10.7834 110.126 10.6655 110.126 10.5204C110.126 10.3747 110.008 10.2568 109.863 10.2568H107.756C107.61 10.2568 107.493 10.3747 107.493 10.5204C107.493 10.6655 107.61 10.7834 107.756 10.7834ZM111.97 10.7834H114.076C114.222 10.7834 114.34 10.6655 114.34 10.5204C114.34 10.3747 114.222 10.2568 114.076 10.2568H111.97C111.824 10.2568 111.706 10.3747 111.706 10.5204C111.706 10.6655 111.824 10.7834 111.97 10.7834ZM116.183 10.7834H116.365C116.999 10.7834 117.609 10.8789 118.183 11.0561C118.322 11.099 118.469 11.0212 118.512 10.8823C118.555 10.7433 118.477 10.5958 118.338 10.5528C117.714 10.3604 117.052 10.2568 116.365 10.2568H116.183C116.037 10.2568 115.919 10.3747 115.919 10.5204C115.919 10.6655 116.037 10.7834 116.183 10.7834V10.7834ZM119.98 11.957C120.525 12.3538 121.003 12.8384 121.392 13.3893C121.476 13.5077 121.64 13.5364 121.759 13.4524C121.878 13.3683 121.906 13.2041 121.822 13.0852C121.4 12.4874 120.882 11.9618 120.29 11.5311C120.172 11.4457 120.007 11.4719 119.922 11.5894C119.836 11.7068 119.862 11.8715 119.98 11.957V11.957ZM122.268 15.1989C122.429 15.7484 122.515 16.3304 122.515 16.9329C122.515 17.0786 122.633 17.1965 122.778 17.1965C122.924 17.1965 123.042 17.0786 123.042 16.9329C123.042 16.2798 122.948 15.6481 122.773 15.0509C122.732 14.9114 122.586 14.8312 122.446 14.8723C122.306 14.9129 122.227 15.0594 122.268 15.1989" fill="#1D2A30"/>
<path d="M191.536 43.5111V129.48C191.536 135.332 186.79 140.077 180.94 140.077H29.7362C23.8847 140.077 19.1393 135.332 19.1393 129.48V43.5111C19.1393 43.258 19.1501 43.0107 19.1712 42.7634C19.5504 37.2593 24.1376 32.9093 29.7362 32.9093H180.94C186.538 32.9093 191.126 37.2593 191.504 42.7634C191.525 43.0107 191.536 43.258 191.536 43.5111Z" fill="white"/>
<path d="M191.536 43.5107H191.273V129.48C191.273 132.334 190.116 134.915 188.246 136.786C186.375 138.657 183.793 139.813 180.94 139.813H29.7362C26.8823 139.813 24.3006 138.657 22.4298 136.786C20.5592 134.916 19.4028 132.334 19.4026 129.48V43.5107C19.4026 43.2653 19.4131 43.0251 19.4334 42.785L19.4338 42.7811C19.8035 37.4146 24.2771 33.1716 29.7362 33.172H180.94C186.398 33.1716 190.872 37.4146 191.242 42.7811L191.242 42.785C191.263 43.0251 191.273 43.2653 191.273 43.5107H191.536H191.799C191.799 43.2505 191.788 42.995 191.767 42.7406L191.504 42.763L191.767 42.7449C191.378 37.1029 186.677 32.6459 180.94 32.6454H29.7362C23.9981 32.6459 19.2973 37.1029 18.9084 42.7449L19.1712 42.763L18.9086 42.7406C18.8871 42.995 18.8762 43.2505 18.8762 43.5107V129.48C18.8764 135.477 23.7392 140.34 29.7362 140.34H180.94C186.936 140.34 191.799 135.477 191.799 129.48V43.5107H191.536" fill="#1D2A30"/>
<path d="M176.989 136.08H34.2268C28.7421 136.08 24.2958 131.633 24.2958 126.149V46.7344H186.92V126.149C186.92 131.633 182.473 136.08 176.989 136.08Z" fill="#1D2A30"/>
<path d="M176.986 135.819H161.674C160.734 133.722 159.697 131.58 158.58 129.523L162.611 126.636L159.899 120.257C160.762 119.199 161.495 118.035 162.074 116.797L168.989 116.418L170.042 110.072L163.617 107.486C163.469 106.132 163.159 104.805 162.695 103.525L167.32 98.3746L163.574 93.1394L157.197 95.846C156.138 94.9981 154.985 94.2819 153.752 93.708L153.379 86.7874L147.027 85.7394L144.425 92.1386C143.077 92.2967 141.755 92.6075 140.48 93.0654L139.435 92.1305C139.401 90.87 139.809 89.4921 139.809 89.4921L138.987 88.7669C141.842 87.6659 144.234 84.9912 143.89 81.7436C143.748 80.4049 142.764 79.4423 141.487 79.1244C141.186 79.0494 140.889 79.0169 140.597 79.0169C139.259 79.0169 138.013 79.7073 136.759 80.18C136.142 80.4125 135.528 80.5051 134.916 80.5051C132.763 80.5056 130.626 79.3597 128.436 79.1244C127.99 79.0766 127.527 79.0475 127.058 79.0475C124.995 79.0475 122.844 79.6066 121.823 81.5565C121.823 81.5565 117.501 82.064 115.608 85.6138C113.715 89.1636 117.314 94.078 117.314 94.078C117.314 94.078 117.52 93.8283 117.877 93.708L117.791 93.7992C117.791 93.7992 116.761 94.7092 117.17 97.0081C117.254 97.4789 117.36 97.9363 117.483 98.3669L114.667 98.4987C114.146 97.6312 113.523 96.8267 112.818 96.1096L114.342 91.1871L110.187 88.8065L106.711 92.5998C105.732 92.3602 104.728 92.2346 103.717 92.2184L101.311 87.6559L96.6917 88.9125L96.9357 94.0651C96.0682 94.586 95.2641 95.2086 94.5418 95.9124L89.6174 94.3922L89.4565 94.672V88.0144H93.2584L95.1386 79.6195C96.7609 79.1611 98.3198 78.508 99.7894 77.6868L107.052 82.3051L112.703 76.6545L108.116 69.3916C108.932 67.9168 109.58 66.3579 110.039 64.7355L118.444 62.8606V54.8657L110.039 53.0013C109.58 51.3789 108.938 49.8096 108.116 48.3352L108.964 47.0003H186.656V126.149C186.656 128.819 185.575 131.234 183.825 132.986C182.074 134.736 179.659 135.819 176.986 135.819ZM103.838 135.819H89.4565V111.935L92.5159 111.79C93.0297 112.66 93.6475 113.463 94.3579 114.182L92.8258 119.08L96.981 121.46L100.44 117.699C101.421 117.946 102.425 118.071 103.44 118.077L105.84 122.643L107.467 122.2C106.174 124.048 104.839 130.297 103.838 135.819ZM26.4814 131.931C25.7219 130.915 25.1581 129.743 24.8452 128.473L26.4814 130.289V131.931ZM24.5617 124.39V116.817L25.694 117.138C25.8887 118.003 26.1522 118.85 26.4814 119.672V121.704L24.5617 124.39ZM110.415 120.437L110.256 116.985L110.222 116.231C111.099 115.714 111.908 115.093 112.639 114.381L117.559 115.911L119.593 112.357L119.941 111.756L116.128 108.284C116.375 107.302 116.502 106.293 116.513 105.28L121.072 102.884L120.718 101.585C120.879 101.59 120.98 101.59 120.98 101.59C120.98 101.59 122.139 104.103 123.183 105.69L122.678 108.729L123.721 109.15L123.88 109.214C123.897 109.55 123.911 109.896 123.924 110.239C123.134 110.414 122.282 110.815 121.711 111.684C121.703 111.696 121.696 111.707 121.688 111.719C121.687 111.721 121.686 111.723 121.684 111.725C121.673 111.743 121.662 111.761 121.651 111.779C121.255 112.803 121.175 114.123 121.175 115.031C121.175 115.661 121.213 116.093 121.213 116.093C121.213 116.093 121.119 116.129 120.94 116.193C119.638 116.678 113.965 118.812 110.415 120.437M146.351 117.687C143.759 117.687 141.207 116.479 139.585 114.211C136.909 110.483 137.773 105.29 141.502 102.62C142.968 101.569 144.659 101.064 146.334 101.064C148.925 101.064 151.477 102.271 153.099 104.536C155.774 108.271 154.911 113.464 151.182 116.134C149.716 117.182 148.025 117.687 146.351 117.687M103.578 111.312C100.855 111.312 98.3604 109.5 97.6127 106.75C96.7146 103.45 98.6626 100.049 101.956 99.1547C102.5 99.0067 103.047 98.936 103.586 98.936C106.31 98.936 108.804 100.748 109.551 103.498C110.449 106.798 108.501 110.198 105.208 111.093C104.664 111.241 104.116 111.312 103.578 111.312ZM24.5617 108.109V47.0003H69.6252L70.4378 48.2927C69.6109 49.7623 68.9683 51.3264 68.5204 52.9536L60.1149 54.8237V62.8186L68.5204 64.6935C68.9439 66.2414 69.5407 67.7382 70.3032 69.1472H33.0039C29.4014 69.1472 26.4816 72.0667 26.4814 75.6696V96.5579L24.5878 98.2614L26.4814 101.608V107.12C26.3892 107.357 26.3023 107.596 26.2206 107.837L24.5617 108.109M89.4565 105.643V100.562L91.0473 102.008C90.801 102.99 90.6754 103.994 90.6711 105.003L89.4565 105.643M89.319 69.1911C83.6149 69.1911 78.9908 64.567 78.9908 58.8629C78.9908 53.1593 83.6149 48.5353 89.319 48.5353C95.0225 48.5353 99.6471 53.1593 99.6471 58.8629C99.6471 64.567 95.0225 69.1911 89.319 69.1911Z" fill="#45555C"/>
<path d="M191.504 42.7627H19.171C19.5504 37.2587 24.1376 32.9087 29.7362 32.9087H180.94C186.538 32.9087 191.126 37.2587 191.504 42.7627Z" fill="#4D6DCC"/>
<path d="M191.504 42.7628V42.4993H19.171V42.7628L19.4338 42.781C19.8035 37.4144 24.2771 33.1714 29.7362 33.1718H180.94C186.398 33.1714 190.872 37.4144 191.242 42.781L191.504 42.7628V42.4993V42.7628L191.767 42.7447C191.378 37.1027 186.677 32.6457 180.94 32.6452H29.7362C23.9981 32.6457 19.2973 37.1027 18.9084 42.7447L18.889 43.0259H191.786L191.767 42.7447L191.504 42.7628" fill="#1D2A30"/>
<path d="M40.3482 37.836C40.3482 38.8726 39.5078 39.7129 38.4715 39.7129C37.4347 39.7129 36.5941 38.8726 36.5941 37.836C36.5941 36.7995 37.4347 35.9592 38.4715 35.9592C39.5078 35.9592 40.3482 36.7995 40.3482 37.836Z" fill="#1D2A30"/>
<path d="M48.2843 37.836C48.2843 38.8726 47.4443 39.7129 46.4075 39.7129C45.3708 39.7129 44.5306 38.8726 44.5306 37.836C44.5306 36.7995 45.3708 35.9592 46.4075 35.9592C47.4443 35.9592 48.2843 36.7995 48.2843 37.836Z" fill="#1D2A30"/>
<path d="M56.2209 37.836C56.2209 38.8726 55.3806 39.7129 54.344 39.7129C53.307 39.7129 52.4667 38.8726 52.4667 37.836C52.4667 36.7995 53.307 35.9592 54.344 35.9592C55.3806 35.9592 56.2209 36.7995 56.2209 37.836Z" fill="#1D2A30"/>
<path d="M186.92 46.7374H186.656V126.149C186.656 128.819 185.575 131.235 183.825 132.986C182.074 134.737 179.659 135.819 176.986 135.819H34.2261C29.5299 135.82 25.6179 132.465 24.7461 128.026L24.7309 127.947L24.6689 127.885L24.4826 128.072H24.746V128.051V128.025L24.7411 127.999C24.6232 127.4 24.5617 126.78 24.5617 126.149V47.0005H186.92V46.7374H186.656H186.92V46.4739H24.035V126.149C24.035 126.814 24.0997 127.469 24.2243 128.101L24.4826 128.051H24.2195V128.072V128.181L24.3015 128.263L24.4878 128.077L24.2295 128.127C25.1488 132.811 29.2735 136.345 34.2261 136.346H176.986C182.62 136.346 187.183 131.777 187.183 126.149V46.4739H186.92V46.7374" fill="#1D2A30"/>
<path d="M181.783 72.8447C179.076 72.8447 176.885 70.6537 176.885 67.9465C176.885 65.2451 179.076 63.0484 181.783 63.0484C184.49 63.0484 186.681 65.2451 186.681 67.9465C186.681 70.6537 184.49 72.8447 181.783 72.8447ZM186.766 59.0197C186.07 58.6301 185.328 58.3241 184.559 58.1083L183.668 54.1216H179.876L178.992 58.1083C178.217 58.3193 177.475 58.6301 176.78 59.0197L173.356 56.8287L170.676 59.5096L172.83 62.9329C172.434 63.6333 172.129 64.3757 171.918 65.1449L167.931 66.0296V69.8219L171.918 70.7119C172.129 71.4911 172.434 72.2393 172.83 72.9397L170.639 76.384L173.32 79.0648L176.764 76.8738C177.459 77.2687 178.202 77.5743 178.976 77.7901L179.861 81.772H183.653L184.543 77.7901C185.312 77.5743 186.054 77.2634 186.749 76.8738L186.924 76.9841V58.9194L186.766 59.0197" fill="#1D2A30"/>
<path d="M89.319 69.1913C83.6149 69.1913 78.9908 64.5672 78.9908 58.8631C78.9908 53.1596 83.6149 48.5355 89.319 48.5355C95.0226 48.5355 99.6471 53.1596 99.6471 58.8631C99.6471 64.5672 95.0226 69.1913 89.319 69.1913M118.444 62.8608V54.866L110.039 53.0015C109.58 51.3792 108.938 49.8098 108.116 48.3354L109.133 46.7341H69.4581L70.4378 48.2929C69.6109 49.7625 68.9683 51.3266 68.5204 52.9538L60.115 54.8239V62.8188L68.5204 64.6937C68.9683 66.3319 69.6109 67.9117 70.4378 69.3918L65.8185 76.6547L71.4753 82.3053L78.7325 77.687C80.2074 78.5134 81.7715 79.1613 83.3991 79.6197L85.2635 88.0146H93.2584L95.1386 79.6197C96.761 79.1613 98.3198 78.5082 99.7894 77.687L107.052 82.3053L112.703 76.6547L108.116 69.3918C108.932 67.917 109.58 66.3581 110.039 64.7357L118.444 62.8608Z" fill="#1D2A30"/>
<path d="M48.5727 107.852C45.5392 104.481 40.3462 104.207 36.9753 107.241C33.6045 110.275 33.3307 115.468 36.3643 118.839C39.398 122.209 44.591 122.478 47.9616 119.444C51.3328 116.411 51.6064 111.222 48.5727 107.852M65.4161 117.759L65.7527 111.418L59.1801 109.564C58.8746 108.263 58.4215 106.994 57.8318 105.792L61.8027 100.215L57.5472 95.491L51.5959 98.8565C50.4581 98.1456 49.2468 97.5607 47.9723 97.1238L46.8346 90.3823L40.4935 90.0452L38.6606 96.6392C37.3545 96.9285 36.0904 97.3816 34.8898 97.977L29.3175 94.0056L24.5878 98.2611L27.9586 104.218C27.2317 105.351 26.6524 106.562 26.2206 107.836L24.2981 108.152V116.742L25.694 117.137C25.989 118.449 26.442 119.718 27.0422 120.919L24.2981 124.758L24.4826 128.05V128.071L24.4878 128.076L27.3161 131.215L33.2781 127.85C34.4156 128.582 35.6377 129.172 36.9123 129.604L37.9972 136.076V136.082L38.0498 136.35L44.3908 136.688L44.5595 136.082V136.076L46.2238 130.093C47.5405 129.799 48.8047 129.351 50.016 128.756L55.5773 132.722L60.3069 128.471L56.9466 122.509C57.6633 121.377 58.2424 120.166 58.664 118.896L65.4161 117.759" fill="#1D2A30"/>
<path d="M105.208 111.093C101.908 111.991 98.5079 110.043 97.6127 106.75C96.7146 103.45 98.6626 100.049 101.956 99.1546C105.256 98.2565 108.656 100.204 109.551 103.498C110.449 106.798 108.501 110.198 105.208 111.093ZM116.128 108.283C116.375 107.302 116.502 106.293 116.513 105.28L121.072 102.883L119.812 98.2579L114.667 98.4985C114.146 97.631 113.523 96.8265 112.818 96.1094L114.342 91.1869L110.187 88.8064L106.711 92.5997C105.732 92.36 104.728 92.2344 103.717 92.2182L101.311 87.6557L96.6917 88.9124L96.9357 94.065C96.0682 94.5859 95.2641 95.2085 94.5418 95.9122L89.6174 94.392L87.234 98.541L91.0473 102.008C90.801 102.989 90.6754 103.993 90.6711 105.003L86.1038 107.408L87.3634 112.034L92.516 111.79C93.0297 112.66 93.6475 113.463 94.358 114.182L92.8258 119.079L96.981 121.46L100.44 117.699C101.421 117.945 102.425 118.071 103.44 118.077L105.84 122.643L110.458 121.386L110.256 116.985L110.222 116.231C111.099 115.714 111.908 115.093 112.639 114.381L117.56 115.911L119.593 112.356L119.941 111.755L116.128 108.283" fill="#1D2A30"/>
<path d="M151.182 116.134C147.448 118.804 142.255 117.945 139.585 114.211C136.909 110.482 137.773 105.29 141.502 102.619C145.236 99.9433 150.429 100.807 153.099 104.536C155.774 108.27 154.911 113.464 151.182 116.134M168.989 116.418L170.042 110.071L163.617 107.486C163.469 106.132 163.159 104.805 162.695 103.525L167.32 98.3744L163.574 93.1392L157.197 95.8458C156.138 94.9979 154.985 94.2817 153.752 93.7078L153.379 86.7872L147.027 85.7392L144.425 92.1384C143.077 92.2965 141.755 92.6073 140.48 93.0652L135.313 88.4411L130.083 92.1857L132.796 98.5587C132.048 99.4959 131.4 100.497 130.863 101.56C130.789 101.708 130.716 101.855 130.647 102.003L123.732 102.388L122.678 108.729L123.721 109.15L129.104 111.32C129.252 112.663 129.557 113.99 130.026 115.265L125.401 120.431L129.146 125.661L135.524 122.943C136.578 123.802 137.736 124.524 138.963 125.098L139.322 131.987L145.668 133.035L148.264 126.683C149.618 126.536 150.945 126.224 152.22 125.756L157.376 130.385L162.611 126.636L159.899 120.257C160.762 119.199 161.495 118.035 162.074 116.797L168.989 116.418" fill="#1D2A30"/>
<path d="M82.9341 151.06H33.0039C29.5469 151.06 26.7447 148.258 26.7447 144.801V75.6692C26.7447 72.212 29.5469 69.4099 33.0039 69.4099H82.9341C86.3908 69.4099 89.1934 72.212 89.1934 75.6692V144.801C89.1934 148.258 86.3908 151.06 82.9341 151.06" fill="#4D6DCC"/>
<path d="M82.9341 151.06V150.797H33.0039C31.3474 150.797 29.85 150.126 28.7641 149.041C27.6787 147.955 27.0082 146.458 27.008 144.801V75.6693C27.0082 74.0126 27.6787 72.5153 28.7641 71.4296C29.85 70.3439 31.3474 69.6735 33.0039 69.6735H82.9341C84.5908 69.6735 86.0881 70.3439 87.1738 71.4296C88.2595 72.5153 88.9298 74.0126 88.9298 75.6693V144.801C88.9298 146.458 88.2595 147.955 87.1738 149.041C86.0881 150.126 84.5908 150.797 82.9341 150.797V151.06V151.323C86.5364 151.323 89.4565 148.404 89.4565 144.801V75.6693C89.4565 72.0665 86.5364 69.1469 82.9341 69.1469H33.0039C29.4014 69.1469 26.4816 72.0665 26.4814 75.6693V144.801C26.4816 148.404 29.4014 151.323 33.0039 151.323H82.9341V151.06Z" fill="#1D2A30"/>
<path d="M82.9341 151.06V150.797H33.0039C31.3474 150.797 29.85 150.126 28.7641 149.04C27.6787 147.955 27.0082 146.457 27.008 144.801V75.6692C27.0082 74.0125 27.6787 72.5152 28.7641 71.4295C29.85 70.3438 31.3474 69.6734 33.0039 69.6734H82.9341C84.5908 69.6734 86.0881 70.3438 87.1738 71.4295C88.2595 72.5152 88.9299 74.0125 88.9299 75.6692V144.801C88.9299 146.457 88.2595 147.955 87.1738 149.04C86.0881 150.126 84.5908 150.797 82.9341 150.797V151.06" fill="#4E74BE"/>
<path d="M82.9341 151.06V150.797C84.5908 150.797 86.0881 150.126 87.1738 149.04C88.2595 147.955 88.9299 146.457 88.9299 144.801V75.6692C88.9299 74.0125 88.2595 72.5152 87.1738 71.4295C86.0881 70.3438 84.5908 69.6734 82.9341 69.6734H33.0039C31.3474 69.6734 29.85 70.3438 28.7641 71.4295C27.6787 72.5152 27.0082 74.0125 27.008 75.6692V144.801C27.0082 146.457 27.6787 147.955 28.7641 149.04C29.85 150.126 31.3474 150.797 33.0039 150.797H82.9341V151.06H33.0039C29.5469 151.06 26.7447 148.258 26.7447 144.801V75.6692C26.7447 72.212 29.5469 69.4099 33.0039 69.4099H82.9341C86.3908 69.4099 89.1934 72.212 89.1934 75.6692V144.801C89.1934 148.258 86.3908 151.06 82.9341 151.06" fill="#182124"/>
<path d="M95.0068 81.8363V150.968C95.0068 154.428 92.2047 157.229 88.7446 157.229H38.8157C35.3607 157.229 32.5587 154.428 32.5587 150.968V81.8363C32.5587 78.381 35.3607 75.5793 38.8157 75.5793H88.7446C92.2047 75.5793 95.0068 78.381 95.0068 81.8363Z" fill="white"/>
<path d="M95.0068 81.8369H94.7433V150.968C94.7433 152.627 94.0724 154.124 92.9867 155.211C91.901 156.296 90.4028 156.967 88.7446 156.967H38.8157C37.1601 156.967 35.6634 156.296 34.5778 155.211C33.4927 154.124 32.8223 152.627 32.8221 150.968V81.8369C32.8223 80.1811 33.4926 78.6843 34.5778 77.5986C35.6633 76.5139 37.1601 75.843 38.8157 75.843H88.7446C90.4028 75.843 91.901 76.5139 92.9872 77.5991C94.0729 78.6843 94.7433 80.1811 94.7433 81.8369H95.0068H95.2699C95.2699 78.236 92.3503 75.3164 88.7446 75.3164H38.8157C35.2151 75.3164 32.2956 78.236 32.2954 81.8369V150.968C32.2956 154.574 35.2151 157.493 38.8157 157.493H88.7446C92.3503 157.493 95.2699 154.574 95.2699 150.968V81.8369H95.0068Z" fill="#1D2A30"/>
<path d="M95.0068 81.8374V85.5396H32.5587V81.8374C32.5587 78.3821 35.3607 75.5805 38.8157 75.5805H88.7446C92.2047 75.5805 95.0068 78.3821 95.0068 81.8374Z" fill="#4D6DCC"/>
<path d="M95.0068 81.8366H94.7433V85.2752H32.8221V81.8366C32.8223 80.1808 33.4926 78.684 34.5778 77.5983C35.6633 76.5135 37.1601 75.8427 38.8157 75.8427H88.7446C90.4028 75.8427 91.901 76.5135 92.9872 77.5988C94.0729 78.684 94.7433 80.1808 94.7433 81.8366H95.0068H95.2699C95.2699 78.2357 92.3503 75.3161 88.7446 75.3161H38.8157C35.2151 75.3161 32.2956 78.2357 32.2954 81.8366V85.8022H95.2699V81.8366H95.0068" fill="#1D2A30"/>
<path d="M53.795 92.4038H38.4315V89.827H53.795V92.4038Z" fill="#4D6DCC"/>
<path d="M53.795 115.507H38.4315V112.931H53.795V115.507Z" fill="#4D6DCC"/>
<path d="M53.795 136.458H38.4315V133.88H53.795V136.458Z" fill="#4D6DCC"/>
<path d="M82.0661 98.0977H38.4315V96.2074H82.0661V98.0977Z" fill="#1D2A30"/>
<path d="M74.1982 101.667H38.4315V99.825H74.1982V101.667Z" fill="#1D2A30"/>
<path d="M78.882 105.224H38.4315V103.382H78.882V105.224Z" fill="#1D2A30"/>
<path d="M78.882 108.776H38.4315V106.934H78.882V108.776" fill="#1D2A30"/>
<path d="M82.0661 119.047H38.4315V117.158H82.0661V119.047Z" fill="#1D2A30"/>
<path d="M74.1982 122.618H38.4315V120.776H74.1982V122.618Z" fill="#1D2A30"/>
<path d="M78.882 126.173H38.4315V124.331H78.882V126.173Z" fill="#1D2A30"/>
<path d="M82.0661 142.055H38.4315V140.164H82.0661V142.055Z" fill="#1D2A30"/>
<path d="M74.1982 145.623H38.4315V143.782H74.1982V145.623Z" fill="#1D2A30"/>
<path d="M78.882 149.18H38.4315V147.338H78.882V149.18Z" fill="#1D2A30"/>
<path d="M165.383 27.6451V55.5854C165.383 59.7091 162.045 63.0483 157.921 63.0483H93.5668C89.4479 63.0483 86.1034 59.7091 86.1034 55.5854V27.6451C86.1034 23.5214 89.4479 20.1764 93.5668 20.1764H157.921C162.045 20.1764 165.383 23.5214 165.383 27.6451" fill="white"/>
<path d="M165.384 27.6452H165.12V55.5855C165.12 57.5755 164.315 59.3735 163.013 60.677C161.709 61.9799 159.911 62.7849 157.921 62.7849H93.5668C91.5792 62.7849 89.7807 61.9799 88.4768 60.677C87.1729 59.3735 86.3669 57.5755 86.3669 55.5855V27.6452C86.3669 25.6552 87.1729 23.8558 88.4768 22.5509C89.7812 21.2465 91.5792 20.4401 93.5668 20.4401H157.921C159.911 20.4401 161.709 21.2465 163.013 22.5504C164.315 23.8553 165.12 25.6548 165.12 27.6452H165.384H165.647C165.647 23.3759 162.19 19.9135 157.921 19.9135H93.5668C89.3023 19.9139 85.8403 23.3754 85.8403 27.6452V55.5855C85.8403 59.8548 89.3023 63.3115 93.5668 63.3115H157.921C162.19 63.3115 165.647 59.8543 165.647 55.5855V27.6452H165.384" fill="#1D1B19"/>
<path d="M165.383 27.6453V28.2822H86.1034V27.6453C86.1034 23.5216 89.4479 20.1766 93.5668 20.1766H157.921C162.045 20.1766 165.383 23.5216 165.383 27.6453" fill="#4D6DCC"/>
<path d="M165.384 27.6454H165.12V28.0193H86.3669V27.6454C86.3669 25.6554 87.1729 23.8559 88.4768 22.5511C89.7812 21.2467 91.5792 20.4403 93.5668 20.4403H157.921C159.911 20.4403 161.709 21.2467 163.013 22.5506C164.315 23.8555 165.12 25.655 165.12 27.6454H165.384H165.647C165.647 23.3761 162.19 19.9136 157.921 19.9136H93.5668C89.3023 19.9141 85.8403 23.3756 85.8403 27.6454V28.5459H165.647V27.6454H165.384Z" fill="#1D2A30"/>
<path d="M97.7507 25.5641C97.3043 26.0105 96.5805 26.0105 96.1336 25.5641C95.6872 25.1177 95.6872 24.3939 96.1336 23.948C96.5805 23.5015 97.3043 23.5015 97.7507 23.948C98.1966 24.3939 98.1966 25.1177 97.7507 25.5641Z" fill="#1D2A30"/>
<path d="M103.059 25.5641C102.613 26.0105 101.89 26.0105 101.443 25.5641C100.997 25.1177 100.997 24.3939 101.443 23.948C101.89 23.5015 102.613 23.5015 103.059 23.948C103.506 24.3939 103.506 25.1177 103.059 25.5641Z" fill="#1D2A30"/>
<path d="M108.369 25.5641C107.923 26.0105 107.198 26.0105 106.752 25.5641C106.306 25.1177 106.306 24.3939 106.752 23.948C107.198 23.5015 107.923 23.5015 108.369 23.948C108.816 24.3939 108.816 25.1177 108.369 25.5641Z" fill="#1D2A30"/>
<path d="M112.86 55.5574H110.754C110.608 55.5574 110.49 55.6753 110.49 55.8209C110.49 55.9661 110.608 56.084 110.754 56.084H112.86C113.006 56.084 113.124 55.9661 113.124 55.8209C113.124 55.6753 113.006 55.5574 112.86 55.5574ZM108.647 55.5574H106.541C106.395 55.5574 106.277 55.6753 106.277 55.8209C106.277 55.9661 106.395 56.084 106.541 56.084H108.647C108.793 56.084 108.911 55.9661 108.911 55.8209C108.911 55.6753 108.793 55.5574 108.647 55.5574ZM104.434 55.5574H102.327C102.181 55.5574 102.063 55.6753 102.063 55.8209C102.063 55.9661 102.181 56.084 102.327 56.084H104.434C104.579 56.084 104.697 55.9661 104.697 55.8209C104.697 55.6753 104.579 55.5574 104.434 55.5574ZM100.221 55.5574H98.1136C97.9679 55.5574 97.8505 55.6753 97.8505 55.8209C97.8505 55.9661 97.9679 56.084 98.1136 56.084H100.221C100.366 56.084 100.484 55.9661 100.484 55.8209C100.484 55.6753 100.366 55.5574 100.221 55.5574ZM96.0071 55.5574H93.9001C93.7549 55.5574 93.637 55.6753 93.637 55.8209C93.637 55.9661 93.7549 56.084 93.9001 56.084H96.0071C96.1522 56.084 96.2701 55.9661 96.2701 55.8209C96.2701 55.6753 96.1522 55.5574 96.0071 55.5574ZM91.7936 55.5574H91.4221V54.3489C91.4221 54.2033 91.3042 54.0854 91.1591 54.0854C91.0134 54.0854 90.8955 54.2033 90.8955 54.3489V55.8209C90.8955 55.8901 90.9237 55.9579 90.9729 56.0071C91.0216 56.0563 91.0894 56.084 91.1591 56.084H91.7936C91.9387 56.084 92.0567 55.9661 92.0567 55.8209C92.0567 55.6753 91.9387 55.5574 91.7936 55.5574ZM91.4221 52.242V50.1355C91.4221 49.9898 91.3042 49.8719 91.1591 49.8719C91.0134 49.8719 90.8955 49.9898 90.8955 50.1355V52.242C90.8955 52.3876 91.0134 52.5055 91.1591 52.5055C91.3042 52.5055 91.4221 52.3876 91.4221 52.242ZM91.4221 48.0285V45.922C91.4221 45.7764 91.3042 45.6585 91.1591 45.6585C91.0134 45.6585 90.8955 45.7764 90.8955 45.922V48.0285C90.8955 48.1741 91.0134 48.292 91.1591 48.292C91.3042 48.292 91.4221 48.1741 91.4221 48.0285ZM91.4221 43.815V41.7085C91.4221 41.5634 91.3042 41.445 91.1591 41.445C91.0134 41.445 90.8955 41.5634 90.8955 41.7085V43.815C90.8955 43.9606 91.0134 44.0786 91.1591 44.0786C91.3042 44.0786 91.4221 43.9606 91.4221 43.815ZM91.4221 39.602V37.495C91.4221 37.3499 91.3042 37.232 91.1591 37.232C91.0134 37.232 90.8955 37.3499 90.8955 37.495V39.602C90.8955 39.7472 91.0134 39.8651 91.1591 39.8651C91.3042 39.8651 91.4221 39.7472 91.4221 39.602ZM91.4221 35.3886V33.42H91.1591V33.6831H91.297C91.4427 33.6831 91.5606 33.5652 91.5606 33.42C91.5606 33.2744 91.4427 33.1565 91.297 33.1565H91.1591C91.0894 33.1565 91.0216 33.1847 90.9729 33.2338C90.9237 33.283 90.8955 33.3503 90.8955 33.42V35.3886C90.8955 35.5337 91.0134 35.6516 91.1591 35.6516C91.3042 35.6516 91.4221 35.5337 91.4221 35.3886ZM93.4035 33.6831H95.5105C95.6557 33.6831 95.7736 33.5652 95.7736 33.42C95.7736 33.2744 95.6557 33.1565 95.5105 33.1565H93.4035C93.2584 33.1565 93.1405 33.2744 93.1405 33.42C93.1405 33.5652 93.2584 33.6831 93.4035 33.6831ZM97.617 33.6831H99.724C99.8691 33.6831 99.9871 33.5652 99.9871 33.42C99.9871 33.2744 99.8691 33.1565 99.724 33.1565H97.617C97.4719 33.1565 97.3539 33.2744 97.3539 33.42C97.3539 33.5652 97.4719 33.6831 97.617 33.6831V33.6831ZM101.83 33.6831H103.937C104.083 33.6831 104.201 33.5652 104.201 33.42C104.201 33.2744 104.083 33.1565 103.937 33.1565H101.83C101.685 33.1565 101.567 33.2744 101.567 33.42C101.567 33.5652 101.685 33.6831 101.83 33.6831ZM106.044 33.6831H108.15C108.296 33.6831 108.414 33.5652 108.414 33.42C108.414 33.2744 108.296 33.1565 108.15 33.1565H106.044C105.898 33.1565 105.78 33.2744 105.78 33.42C105.78 33.5652 105.898 33.6831 106.044 33.6831ZM110.257 33.6831H112.364C112.51 33.6831 112.627 33.5652 112.627 33.42C112.627 33.2744 112.51 33.1565 112.364 33.1565H110.257C110.112 33.1565 109.994 33.2744 109.994 33.42C109.994 33.5652 110.112 33.6831 110.257 33.6831ZM114.471 33.6831H116.577C116.723 33.6831 116.841 33.5652 116.841 33.42C116.841 33.2744 116.723 33.1565 116.577 33.1565H114.471C114.325 33.1565 114.207 33.2744 114.207 33.42C114.207 33.5652 114.325 33.6831 114.471 33.6831ZM116.81 35.03V37.137C116.81 37.2826 116.928 37.4 117.074 37.4C117.22 37.4 117.337 37.2826 117.337 37.137V35.03C117.337 34.8848 117.22 34.7669 117.074 34.7669C116.928 34.7669 116.81 34.8848 116.81 35.03V35.03ZM116.81 39.2435V41.35C116.81 41.4956 116.928 41.6135 117.074 41.6135C117.22 41.6135 117.337 41.4956 117.337 41.35V39.2435C117.337 39.0983 117.22 38.9804 117.074 38.9804C116.928 38.9804 116.81 39.0983 116.81 39.2435ZM116.81 43.4569V45.5634C116.81 45.7091 116.928 45.827 117.074 45.827C117.22 45.827 117.337 45.7091 117.337 45.5634V43.4569C117.337 43.3113 117.22 43.1934 117.074 43.1934C116.928 43.1934 116.81 43.3113 116.81 43.4569ZM116.81 47.6704V49.7769C116.81 49.9225 116.928 50.0405 117.074 50.0405C117.22 50.0405 117.337 49.9225 117.337 49.7769V47.6704C117.337 47.5248 117.22 47.4069 117.074 47.4069C116.928 47.4069 116.81 47.5248 116.81 47.6704ZM116.81 51.8839V53.9904C116.81 54.136 116.928 54.2539 117.074 54.2539C117.22 54.2539 117.337 54.136 117.337 53.9904V51.8839C117.337 51.7383 117.22 51.6203 117.074 51.6203C116.928 51.6203 116.81 51.7383 116.81 51.8839V51.8839ZM117.074 55.5574H114.967C114.822 55.5574 114.704 55.6753 114.704 55.8209C114.704 55.9661 114.822 56.084 114.967 56.084H117.074C117.22 56.084 117.337 55.9661 117.337 55.8209C117.337 55.6753 117.22 55.5574 117.074 55.5574Z" fill="#1D2A30"/>
<path d="M150.897 34.9937H121.072V33.4205H150.897V34.9937Z" fill="#1D2A30"/>
<path d="M143.95 38.2559H121.072V36.6827H143.95V38.2559Z" fill="#1D2A30"/>
<path d="M155.139 41.5181H121.072V39.9263H155.139V41.5181Z" fill="#1D2A30"/>
<path d="M150.081 44.688H121.072V43.0962H150.081V44.688Z" fill="#1D2A30"/>
<path d="M138.011 114.264C138.012 114.249 138.013 114.233 138.014 114.218C138.104 113.064 138.151 111.184 137.609 110.547C138.16 111.192 138.102 113.114 138.011 114.264" fill="#8E989B"/>
<path d="M129.391 115.912C129.293 115.912 129.198 115.906 129.104 115.895C126.578 115.597 123.897 113.255 123.897 113.255C123.98 112.665 123.969 111.468 123.924 110.239C124.352 110.144 124.761 110.115 125.098 110.115C125.598 110.115 125.937 110.178 125.937 110.178C125.937 110.178 128.456 109.062 130.62 109.062C131.225 109.062 131.803 109.149 132.289 109.372C133.615 109.98 134.961 109.946 136.004 110.018L135.533 112.323C135.533 112.323 131.914 115.912 129.391 115.912Z" fill="white"/>
<path d="M137.919 115.16C137.92 115.156 137.969 114.792 138.011 114.264C137.969 114.794 137.92 115.157 137.919 115.16Z" fill="#4E74BE"/>
<path d="M136.473 117.78L137.714 116.092C137.454 116.582 137.011 117.165 136.473 117.78Z" fill="#919AC9"/>
<path d="M137.714 116.093L138.014 114.218C138.013 114.233 138.012 114.249 138.011 114.264C137.969 114.792 137.92 115.157 137.919 115.16L138.098 115.229C137.983 115.535 137.856 115.824 137.714 116.093" fill="#919AC9"/>
<path d="M115.857 139.019C115.807 138.856 115.753 138.685 115.697 138.504L115.726 138.434L115.857 139.019Z" fill="#CECDCC"/>
<path d="M123.451 106.446C123.451 106.446 123.462 106.556 123.479 106.751C123.53 107.335 123.634 108.671 123.634 109.969C123.634 110.833 123.586 111.685 123.456 112.265C123.424 112.407 123.513 112.548 123.655 112.579C123.797 112.611 123.938 112.522 123.969 112.38C124.115 111.726 124.16 110.854 124.16 109.969C124.16 108.202 123.975 106.397 123.974 106.392C123.96 106.248 123.83 106.142 123.686 106.157C123.541 106.172 123.435 106.301 123.451 106.446" fill="#1D2A30"/>
<path d="M136.21 111.777L136.209 111.733C136.209 111.433 136.23 109.658 136.653 107.972C136.688 107.831 136.602 107.688 136.461 107.653C136.32 107.617 136.177 107.703 136.142 107.844C135.701 109.607 135.683 111.409 135.682 111.733L135.683 111.783C135.684 111.929 135.804 112.045 135.949 112.043C136.095 112.042 136.211 111.922 136.21 111.777Z" fill="#1D2A30"/>
<path d="M136.825 89.0601L136.85 89.0907C136.973 89.2487 137.542 89.9997 138.075 90.9694C138.611 91.9372 139.102 93.1294 139.099 94.1263C139.099 94.1807 139.098 94.2347 139.095 94.2882C138.987 96.2939 138.831 98.6353 138.831 100.987C138.831 101.36 138.835 101.733 138.843 102.104L138.844 102.156C138.846 102.769 138.589 103.604 138.155 104.497C137.504 105.839 136.465 107.319 135.387 108.498C134.848 109.088 134.3 109.602 133.79 109.988C133.281 110.374 132.808 110.627 132.448 110.706C131.539 110.908 130.689 111.046 129.917 111.045C128.785 111.042 127.839 110.761 127.034 109.959C125.611 108.538 124.168 106.533 122.281 103.955C121.678 103.133 121.308 101.929 121.101 100.702C120.893 99.4752 120.841 98.2276 120.842 97.3114C120.842 96.8841 120.853 96.5284 120.864 96.2806C120.875 96.0323 120.886 95.8953 120.885 95.8948C120.897 95.7496 120.788 95.6231 120.643 95.6117C120.499 95.6002 120.372 95.7086 120.361 95.8537C120.36 95.859 120.315 96.4381 120.315 97.3114C120.315 98.2472 120.366 99.52 120.582 100.79C120.799 102.061 121.174 103.33 121.857 104.266C123.742 106.842 125.191 108.861 126.661 110.332C127.573 111.248 128.7 111.575 129.917 111.572C130.751 111.572 131.635 111.426 132.562 111.22C133.205 111.073 133.914 110.607 134.658 109.957C135.77 108.981 136.936 107.577 137.834 106.149C138.282 105.435 138.664 104.715 138.935 104.036C139.206 103.356 139.369 102.719 139.37 102.156L139.37 102.092C139.361 101.725 139.357 101.356 139.357 100.987C139.357 98.6582 139.512 96.3274 139.62 94.3168C139.624 94.2533 139.626 94.1903 139.626 94.1263C139.622 92.8878 139.017 91.5572 138.426 90.5173C137.832 89.4793 137.243 88.7388 137.238 88.7321C137.147 88.618 136.981 88.5994 136.867 88.6901C136.754 88.7803 136.735 88.946 136.825 89.0601" fill="#1D2A30"/>
<path d="M130.871 97.9845C130.738 98.7332 130.671 99.4937 130.671 100.254C130.671 100.369 130.673 100.485 130.676 100.6C130.698 101.335 130.796 102.182 131.38 102.785C131.536 102.942 131.702 103.067 131.823 103.187C131.945 103.309 132.009 103.41 132.023 103.516L132.026 103.56C132.026 103.644 131.993 103.737 131.922 103.835C131.852 103.931 131.748 104.024 131.638 104.094H131.638C131.387 104.259 131.037 104.375 130.724 104.642C130.614 104.738 130.602 104.904 130.698 105.013C130.793 105.123 130.96 105.135 131.069 105.039C131.274 104.856 131.595 104.743 131.922 104.537C132.079 104.437 132.23 104.306 132.348 104.145C132.465 103.984 132.552 103.785 132.553 103.56L132.545 103.446C132.507 103.169 132.348 102.967 132.194 102.814C132.037 102.659 131.871 102.535 131.756 102.416C131.334 101.993 131.218 101.287 131.202 100.586C131.199 100.475 131.198 100.365 131.198 100.254C131.198 99.5243 131.262 98.7947 131.389 98.0767C131.415 97.9334 131.32 97.7969 131.176 97.7716C131.033 97.7458 130.897 97.8413 130.871 97.9845" fill="#1D2A30"/>
<path d="M126.976 105.18C126.981 105.207 127.06 105.705 127.474 106.258C127.885 106.813 128.642 107.411 129.93 107.609C130.074 107.632 130.209 107.533 130.231 107.389C130.253 107.246 130.155 107.111 130.011 107.089C128.848 106.905 128.239 106.398 127.895 105.943C127.725 105.715 127.624 105.498 127.566 105.34C127.538 105.262 127.52 105.198 127.509 105.156L127.499 105.109L127.497 105.099L127.493 105.1L127.497 105.099L127.493 105.1L127.497 105.099C127.474 104.955 127.34 104.857 127.196 104.879C127.052 104.902 126.954 105.036 126.976 105.18" fill="#1D2A30"/>
<path d="M127.491 99.4235C127.491 99.9516 127.263 100.379 126.981 100.379C126.7 100.379 126.472 99.9516 126.472 99.4235C126.472 98.8955 126.7 98.4672 126.981 98.4672C127.263 98.4672 127.491 98.8955 127.491 99.4235Z" fill="#1D2A30"/>
<path d="M134.801 99.653C134.801 100.181 134.572 100.609 134.291 100.609C134.009 100.609 133.781 100.181 133.781 99.653C133.781 99.125 134.009 98.6972 134.291 98.6972C134.572 98.6972 134.801 99.125 134.801 99.653Z" fill="#1D2A30"/>
<path d="M133.699 97.7103L133.607 97.6191L133.698 97.7113L133.699 97.7103L133.607 97.6191L133.698 97.7113C133.707 97.7022 133.934 97.4831 134.278 97.2773C134.623 97.0691 135.079 96.8834 135.539 96.8853C135.806 96.8863 136.077 96.9416 136.368 97.0949C136.658 97.2491 136.972 97.506 137.294 97.9309C137.47 98.1625 137.8 98.2078 138.032 98.0321C138.264 97.8564 138.309 97.526 138.133 97.294C137.736 96.7698 137.306 96.3997 136.861 96.1643C136.416 95.928 135.96 95.8311 135.539 95.832C134.78 95.8344 134.144 96.1252 133.695 96.3993C133.245 96.6762 132.974 96.9464 132.954 96.9655C132.748 97.1713 132.748 97.505 132.954 97.7103C133.16 97.9161 133.493 97.9161 133.699 97.7103" fill="#1D2A30"/>
<path d="M128.692 97.0335C128.666 97.0058 128.464 96.7828 128.092 96.5574C127.721 96.3326 127.17 96.1058 126.477 96.1058C125.785 96.1044 124.972 96.3378 124.109 96.9547C123.871 97.1232 123.816 97.4522 123.985 97.689C124.153 97.9263 124.482 97.9817 124.719 97.8131C125.44 97.3027 126.018 97.1605 126.477 97.159C126.936 97.159 127.296 97.308 127.548 97.4594C127.672 97.5343 127.768 97.6097 127.83 97.6637L127.895 97.7243L127.908 97.7368L127.908 97.7377L128.139 97.5267L127.905 97.7344L127.908 97.7377L128.139 97.5267L127.905 97.7344C128.099 97.9516 128.432 97.9707 128.649 97.7768C128.866 97.5835 128.885 97.2507 128.692 97.0335" fill="#1D2A30"/>
<path d="M123.897 108.646C123.897 108.646 125.352 112.658 128.603 113.796C131.855 114.934 136.171 109.028 136.171 109.028L135.946 108.26C135.946 108.26 133.117 111.936 129.971 111.309C126.824 110.682 123.712 106.419 123.712 106.419L123.897 108.646" fill="#1D2A30"/>
<path d="M120.892 101.187L120.878 101.192C120.803 101.217 120.432 101.328 120.027 101.327C119.771 101.327 119.507 101.283 119.29 101.166C119.074 101.046 118.894 100.864 118.776 100.525C118.589 99.9781 118.253 99.1416 117.962 98.2273C117.672 97.3144 117.432 96.3247 117.433 95.5121C117.433 95.1764 117.474 94.8732 117.56 94.6188C117.647 94.3633 117.777 94.1585 117.962 93.9995C118.202 93.7961 118.399 93.7326 118.579 93.7312C118.787 93.7307 119.001 93.8262 119.215 93.9981C119.534 94.254 119.824 94.6708 120.023 95.0212C120.123 95.1965 120.202 95.355 120.255 95.4686C120.281 95.5254 120.302 95.5713 120.315 95.6023L120.334 95.6477C120.389 95.7823 120.543 95.8477 120.677 95.7933C120.812 95.7388 120.877 95.5851 120.823 95.4505C120.819 95.4404 120.604 94.9076 120.231 94.36C120.044 94.0864 119.817 93.8076 119.546 93.5884C119.275 93.3702 118.95 93.2055 118.579 93.2046C118.259 93.2036 117.928 93.3335 117.619 93.5994C117.353 93.8276 117.172 94.1232 117.062 94.4493C116.951 94.7763 116.907 95.1354 116.906 95.5121C116.908 96.424 117.164 97.4486 117.46 98.3863C117.758 99.3221 118.099 100.172 118.278 100.695C118.43 101.148 118.716 101.456 119.04 101.629C119.364 101.803 119.714 101.853 120.027 101.854C120.594 101.853 121.052 101.688 121.067 101.684C121.204 101.635 121.276 101.485 121.228 101.348C121.18 101.21 121.029 101.139 120.892 101.187" fill="#1D2A30"/>
<path d="M139.051 102.517C139.063 102.519 139.268 102.56 139.566 102.56C139.875 102.559 140.289 102.517 140.69 102.323C141.091 102.132 141.474 101.772 141.669 101.196C141.847 100.673 142.189 99.8228 142.486 98.887C142.782 97.9493 143.038 96.9247 143.039 96.0128C143.039 95.6361 142.995 95.2771 142.884 94.95C142.774 94.6234 142.593 94.3284 142.327 94.1002C142.018 93.8342 141.686 93.7044 141.367 93.7053C140.995 93.7058 140.67 93.871 140.401 94.0887C139.994 94.4186 139.685 94.8798 139.466 95.2608C139.249 95.6418 139.126 95.9436 139.123 95.9507C139.069 96.0859 139.134 96.2391 139.269 96.2936C139.404 96.3485 139.557 96.2831 139.612 96.1484L139.62 96.1288C139.663 96.0248 139.884 95.5239 140.215 95.0656C140.379 94.8364 140.571 94.6191 140.771 94.4678C140.972 94.315 141.172 94.2319 141.367 94.2319C141.547 94.2334 141.744 94.2969 141.984 94.5003C142.169 94.6593 142.298 94.8641 142.386 95.1195C142.472 95.374 142.513 95.6772 142.512 96.0128C142.514 96.8254 142.274 97.8152 141.983 98.7281C141.694 99.6424 141.357 100.479 141.17 101.026C141.016 101.47 140.757 101.703 140.461 101.849C140.165 101.993 139.825 102.033 139.566 102.033C139.441 102.033 139.335 102.024 139.262 102.016L139.179 102.004L139.159 102.001L139.154 102C139.012 101.971 138.873 102.064 138.845 102.206C138.816 102.349 138.908 102.488 139.051 102.517" fill="#1D2A30"/>
<path d="M137.304 87.9881C137.304 87.9881 136.186 93.812 139.103 96.6323C139.103 96.6323 139.741 94.8815 140.388 94.4542C140.388 94.4542 142.011 91.3771 139.877 87.9881C137.744 84.5987 137.304 87.9881 137.304 87.9881" fill="#1D2A30"/>
<path d="M120.088 90.6523C120.081 90.6523 120.076 90.6519 120.069 90.6514C119.924 90.6418 119.815 90.5163 119.825 90.3711C119.942 88.6619 120.871 87.0787 122.172 85.9185C123.474 84.7592 125.157 84.0139 126.829 84.0125C126.988 84.0125 127.148 84.0197 127.307 84.0335C130.175 84.2904 132.935 85.2496 135.662 85.2496C135.667 85.2496 135.671 85.2496 135.676 85.2496C136.858 85.2491 138.032 85.0729 139.219 84.5902C140.699 83.9881 141.991 82.7931 142.392 81.2915C142.424 81.1741 142.53 81.0967 142.646 81.0967C142.668 81.0967 142.692 81.0996 142.715 81.1058C142.855 81.1435 142.938 81.2877 142.901 81.4285C142.438 83.1368 141.016 84.4255 139.418 85.0777C138.16 85.5904 136.911 85.7762 135.679 85.7762C135.678 85.7762 135.677 85.7762 135.676 85.7762C132.823 85.7724 130.047 84.8012 127.26 84.5582C127.117 84.5453 126.973 84.5391 126.829 84.5391C126.827 84.5391 126.825 84.5391 126.824 84.5391C125.313 84.5391 123.738 85.2271 122.522 86.3119C121.303 87.3971 120.453 88.87 120.35 90.4069C120.341 90.5459 120.225 90.6523 120.088 90.6523" fill="#45555C"/>
<path d="M117.573 89.7554C117.571 89.7554 117.569 89.7554 117.567 89.7554C117.422 89.752 117.306 89.6317 117.309 89.4861C117.377 86.6968 119.202 84.0532 121.786 83.0024C121.819 82.9895 121.852 82.9828 121.885 82.9828C121.989 82.9828 122.088 83.0453 122.129 83.1475C122.184 83.2821 122.119 83.4359 121.984 83.4903C119.604 84.4509 117.891 86.9322 117.836 89.498C117.833 89.6417 117.716 89.7554 117.573 89.7554" fill="#45555C"/>
<path d="M122.584 111.957C122.599 111.97 125.279 114.934 128.991 116.34C129.045 116.36 129.102 116.362 129.157 116.346C129.168 116.342 130.393 115.987 131.934 115.203C133.476 114.417 135.337 113.205 136.61 111.463C136.696 111.346 136.67 111.181 136.552 111.096C136.435 111.01 136.27 111.036 136.184 111.153C134.99 112.791 133.195 113.971 131.696 114.733C130.947 115.114 130.273 115.392 129.787 115.574C129.544 115.665 129.349 115.732 129.215 115.776C129.148 115.798 129.096 115.814 129.061 115.825L129.011 115.84L129.084 116.093L129.177 115.847C127.396 115.175 125.839 114.111 124.733 113.216C124.179 112.769 123.738 112.363 123.435 112.071C123.284 111.925 123.168 111.807 123.09 111.726L123.002 111.633L122.974 111.603C122.876 111.495 122.709 111.487 122.601 111.585C122.494 111.683 122.486 111.849 122.584 111.957" fill="#1D2A30"/>
<path d="M139.809 99.4236H139.545C139.545 100.536 139.095 101.541 138.367 102.27C137.637 102.999 136.633 103.449 135.52 103.449C134.408 103.449 133.403 102.999 132.674 102.27C131.945 101.541 131.495 100.536 131.495 99.4236C131.495 98.3111 131.945 97.3061 132.674 96.5771C133.403 95.848 134.408 95.3982 135.52 95.3982C136.633 95.3982 137.637 95.848 138.367 96.5771C139.095 97.3066 139.545 98.3111 139.545 99.4236H139.809H140.073C140.072 96.9094 138.034 94.8716 135.52 94.8716C133.006 94.8716 130.968 96.9094 130.968 99.4236C130.968 101.938 133.006 103.976 135.52 103.976C138.034 103.976 140.072 101.938 140.073 99.4236H139.809Z" fill="#1D2A30"/>
<path d="M123.66 109.922C123.642 109.926 123.291 109.999 122.838 110.249C122.386 110.499 121.828 110.932 121.42 111.65C121.219 112.008 121.11 112.482 121.04 113.015C120.971 113.547 120.948 114.136 120.948 114.707C120.948 116.083 121.086 117.346 121.086 117.352C121.093 117.412 121.119 117.468 121.163 117.511C121.166 117.514 122.15 118.487 123.555 119.668C124.961 120.849 126.783 122.237 128.488 123.074C128.562 123.11 128.649 123.11 128.723 123.072C128.796 123.035 128.848 122.965 128.863 122.883L129.643 118.493L130.862 122.907C130.885 122.99 130.947 123.057 131.027 123.085C131.108 123.114 131.198 123.101 131.268 123.052C131.273 123.048 132.57 122.131 134.052 120.821C135.534 119.508 137.202 117.818 137.953 116.204L137.975 116.127C137.975 116.122 138.184 114.517 138.184 113.075C138.182 112.351 138.138 111.678 137.958 111.213C137.723 110.609 137.323 110.27 136.965 110.101C136.607 109.931 136.296 109.917 136.193 109.917L136.158 109.918C136.012 109.925 135.901 110.049 135.908 110.194C135.916 110.339 136.04 110.451 136.185 110.444L136.183 110.408L136.184 110.444H136.185L136.183 110.408L136.184 110.444H136.193C136.246 110.443 136.482 110.453 136.738 110.576C136.995 110.701 137.278 110.926 137.469 111.405C137.6 111.729 137.66 112.382 137.658 113.075C137.658 113.772 137.607 114.52 137.555 115.093C137.529 115.379 137.504 115.621 137.484 115.792C137.465 115.963 137.452 116.06 137.452 116.06L137.714 116.094L137.475 115.983C136.795 117.459 135.163 119.14 133.704 120.426C132.974 121.071 132.288 121.621 131.785 122.01C131.533 122.203 131.327 122.357 131.184 122.462C131.042 122.567 130.964 122.622 130.964 122.622L131.116 122.837L131.37 122.767L129.842 117.232C129.809 117.113 129.699 117.033 129.575 117.039C129.452 117.045 129.35 117.134 129.329 117.256L128.344 122.791L128.603 122.837L128.719 122.601C127.086 121.801 125.281 120.432 123.894 119.265C123.2 118.682 122.609 118.148 122.192 117.762C121.983 117.568 121.818 117.411 121.706 117.303C121.593 117.195 121.533 117.136 121.533 117.136L121.348 117.323L121.61 117.295C121.61 117.295 121.602 117.219 121.589 117.081C121.551 116.669 121.475 115.713 121.475 114.707C121.475 114.152 121.498 113.581 121.562 113.082C121.625 112.585 121.736 112.158 121.878 111.911C122.229 111.293 122.704 110.926 123.093 110.71C123.287 110.602 123.46 110.534 123.582 110.492C123.643 110.472 123.69 110.458 123.722 110.449L123.757 110.441L123.765 110.439C123.907 110.41 123.999 110.271 123.971 110.128C123.942 109.986 123.803 109.894 123.66 109.922" fill="#1D2A30"/>
<path d="M109.383 123.792C109.383 123.792 109.502 123.959 109.701 124.252C110.299 125.13 111.615 127.137 112.529 129.057C112.592 129.189 112.749 129.244 112.881 129.182C113.012 129.119 113.067 128.962 113.005 128.83C111.756 126.21 109.815 123.493 109.811 123.486C109.727 123.368 109.562 123.34 109.444 123.424C109.325 123.509 109.298 123.674 109.383 123.792" fill="#1D2A30"/>
<path d="M150.104 131.368C150.64 129.333 151.212 127.547 151.77 126.407C151.834 126.277 151.78 126.119 151.649 126.055C151.518 125.991 151.361 126.045 151.297 126.176C150.71 127.379 150.136 129.181 149.594 131.234C149.557 131.375 149.641 131.519 149.782 131.556C149.922 131.593 150.067 131.509 150.104 131.368" fill="#1D2A30"/>
<path d="M148.767 137.483C149.784 136.126 151.263 135.114 152.897 134.66C153.037 134.621 153.119 134.476 153.08 134.336C153.041 134.196 152.895 134.114 152.756 134.153C151.007 134.64 149.434 135.715 148.346 137.168C148.258 137.284 148.282 137.449 148.399 137.536C148.515 137.623 148.68 137.6 148.767 137.483" fill="#1D2A30"/>
<path d="M167.554 111.78H152.968C151.245 111.78 149.849 110.384 149.849 108.661V100.104C149.849 98.3817 151.245 96.9856 152.968 96.9856H167.554C169.277 96.9856 170.673 98.3817 170.673 100.104V108.661C170.673 110.384 169.277 111.78 167.554 111.78" fill="white"/>
<path d="M167.554 111.78V111.517H152.968C152.178 111.517 151.466 111.197 150.949 110.68C150.432 110.163 150.112 109.45 150.112 108.661V100.104C150.112 99.3147 150.432 98.6028 150.949 98.0853C151.466 97.5682 152.178 97.2493 152.968 97.2493H167.554C168.344 97.2493 169.056 97.5682 169.573 98.0853C170.09 98.6028 170.41 99.3147 170.41 100.104V108.661C170.41 109.45 170.09 110.163 169.573 110.68C169.056 111.197 168.344 111.517 167.554 111.517V111.78V112.043C169.422 112.043 170.936 110.529 170.936 108.661V100.104C170.936 98.2362 169.422 96.7227 167.554 96.7222H152.968C151.1 96.7227 149.586 98.2362 149.586 100.104V108.661C149.586 110.529 151.1 112.043 152.968 112.043H167.554V111.78" fill="#1D2A30"/>
<path d="M156.428 101.212L152.424 103.726C152.354 103.77 152.308 103.844 152.301 103.927C152.294 104.009 152.327 104.091 152.389 104.146L156.104 107.442C156.213 107.538 156.38 107.528 156.476 107.419C156.573 107.31 156.563 107.144 156.454 107.048L153.001 103.985L156.708 101.658C156.831 101.581 156.868 101.418 156.791 101.295C156.714 101.172 156.551 101.134 156.428 101.212" fill="#1D2A30"/>
<path d="M164.035 107.684L167.634 104.617C167.697 104.564 167.731 104.483 167.725 104.401C167.721 104.318 167.676 104.242 167.607 104.197L163.453 101.473C163.331 101.394 163.169 101.428 163.089 101.549C163.009 101.671 163.043 101.834 163.164 101.914L167.024 104.445L163.693 107.283C163.583 107.378 163.57 107.544 163.664 107.654C163.758 107.765 163.924 107.779 164.035 107.684" fill="#1D2A30"/>
<path d="M158.765 109.451L161.721 100.182C161.765 100.044 161.689 99.8951 161.551 99.8512C161.412 99.8068 161.264 99.8837 161.22 100.022L158.263 109.291C158.219 109.429 158.296 109.577 158.434 109.622C158.573 109.666 158.721 109.589 158.765 109.451" fill="#1D2A30"/>
<path d="M130.784 125.169C130.784 125.634 130.407 126.011 129.942 126.011C129.477 126.011 129.1 125.634 129.1 125.169C129.1 124.704 129.477 124.327 129.942 124.327C130.407 124.327 130.784 124.704 130.784 125.169Z" fill="#1D2A30"/>
<path d="M130.227 100.365H131.366C131.512 100.365 131.63 100.247 131.63 100.102C131.63 99.9565 131.512 99.8386 131.366 99.8386H130.227C130.082 99.8386 129.964 99.9565 129.964 100.102C129.964 100.247 130.082 100.365 130.227 100.365Z" fill="#1D2A30"/>
<path d="M178.847 87.6345V115.405C178.847 119.504 175.921 122.823 172.308 122.823H115.918C112.309 122.823 109.378 119.504 109.378 115.405V87.6345C109.378 83.5358 112.309 80.2111 115.918 80.2111H172.308C175.921 80.2111 178.847 83.5358 178.847 87.6345" fill="white"/>
<path d="M178.973 87.5722H178.741V115.468C178.741 117.454 178.034 119.249 176.888 120.551C175.741 121.852 174.16 122.655 172.41 122.655H115.815C114.067 122.655 112.485 121.852 111.338 120.551C110.192 119.249 109.483 117.454 109.483 115.468V87.5722C109.483 85.5854 110.192 83.7888 111.338 82.486C112.486 81.1837 114.067 80.3786 115.815 80.3786H172.41C174.16 80.3786 175.741 81.1837 176.888 82.4855C178.034 83.7883 178.741 85.5849 178.741 87.5722H178.973H179.205C179.205 83.3097 176.165 79.8528 172.41 79.8528H115.815C112.064 79.8533 109.02 83.3092 109.02 87.5722V115.468C109.02 119.73 112.064 123.181 115.815 123.181H172.41C176.165 123.181 179.205 119.73 179.205 115.468V87.5722H178.973" fill="#1D1B19"/>
<path d="M178.847 87.4699V88.0889H109.378V87.4699C109.378 83.462 112.309 80.211 115.918 80.211H172.308C175.921 80.211 178.847 83.462 178.847 87.4699" fill="#4D6DCC"/>
<path d="M178.973 87.5503H178.741V87.9225H109.483V87.5503C109.483 85.5691 110.192 83.7776 111.338 82.4785C112.486 81.1799 114.067 80.377 115.815 80.377H172.41C174.16 80.377 175.741 81.1799 176.888 82.478C178.034 83.7771 178.741 85.5686 178.741 87.5503H178.973H179.205C179.205 83.2999 176.165 79.8527 172.41 79.8527H115.815C112.064 79.8532 109.02 83.2994 109.02 87.5503V88.4468H179.205V87.5503H178.973Z" fill="#1D2A30"/>
<path d="M119.448 85.5733C119.029 86.0628 118.348 86.0628 117.929 85.5733C117.509 85.0837 117.509 84.29 117.929 83.801C118.348 83.3114 119.029 83.3114 119.448 83.801C119.867 84.29 119.867 85.0837 119.448 85.5733Z" fill="#1D2A30"/>
<path d="M124.103 85.5733C123.684 86.0628 123.003 86.0628 122.584 85.5733C122.164 85.0837 122.164 84.29 122.584 83.801C123.003 83.3114 123.684 83.3114 124.103 83.801C124.522 84.29 124.522 85.0837 124.103 85.5733Z" fill="#1D2A30"/>
<path d="M128.81 85.5733C128.461 86.0628 127.894 86.0628 127.544 85.5733C127.195 85.0837 127.195 84.29 127.544 83.801C127.894 83.3114 128.461 83.3114 128.81 83.801C129.16 84.29 129.16 85.0837 128.81 85.5733Z" fill="#1D2A30"/>
<path d="M157.72 98.1152H119.762V95.9667H157.72V98.1152Z" fill="#1D2A30"/>
<path d="M148.767 102.771H119.762V100.622H148.767V102.771Z" fill="#1D2A30"/>
<path d="M162.733 107.425H119.762V105.277H162.733V107.425Z" fill="#1D2A30"/>
<path d="M156.645 112.081H119.762V109.932H156.645V112.081Z" fill="#1D2A30"/>
</svg>
