<svg  viewBox="0 0 28 28" fill="none" xmlns="http://www.w3.org/2000/svg">
<path fill-rule="evenodd" clip-rule="evenodd" d="M1.48877 6.51218L14.4048 2L14.4048 2.00007L14.4048 2L27.3209 6.51218L26.4869 8.78877L25.029 8.27946V23.5998H26.2122V25.9999H17.9297V17.5998C17.9226 17.0034 17.7203 13.9998 14.3801 13.9998C11.0399 13.9998 10.8375 17.0034 10.8304 17.6058V25.9999H9.64722H2.54792V23.5998H3.73113V8.29674L2.3227 8.78877L1.48877 6.51218ZM14.4048 4.56792L22.6626 7.45275V8.00553H6.09757V7.47003L14.4048 4.56792ZM22.6626 10.4055V23.5998H20.2962V17.5998C20.2962 15.525 19.0597 11.5998 14.3801 11.5998C9.70046 11.5998 8.464 15.525 8.464 17.5998V23.5998H6.09757V10.4055H22.6626Z" fill="#335DB4"/>
</svg>
