<svg  viewBox="0 0 28 29" fill="none" xmlns="http://www.w3.org/2000/svg">
<path d="M23.3334 4.13135H4.66671C3.37987 4.13135 2.33337 5.17785 2.33337 6.46468V22.798C2.33337 24.0848 3.37987 25.1313 4.66671 25.1313H23.3334C24.6202 25.1313 25.6667 24.0848 25.6667 22.798V6.46468C25.6667 5.17785 24.6202 4.13135 23.3334 4.13135ZM4.66671 22.798V8.79801H23.3334L23.3357 22.798H4.66671Z" fill="#F47B20"/>
<path d="M10.8419 11.4731L6.51709 15.798L10.8419 20.1228L12.4916 18.4731L9.81642 15.798L12.4916 13.1228L10.8419 11.4731ZM17.1583 11.4731L15.5086 13.1228L18.1838 15.798L15.5086 18.4731L17.1583 20.1228L21.4831 15.798L17.1583 11.4731Z" fill="#F47B20"/>
</svg>
