<svg  viewBox="0 0 29 29" fill="none" xmlns="http://www.w3.org/2000/svg">
<path d="M23.5932 10.9274C23.5803 10.89 23.5698 10.8539 23.5547 10.8177C23.4994 10.6911 23.4219 10.5753 23.326 10.4759L16.326 3.47587C16.2265 3.37995 16.1108 3.30251 15.9842 3.2472C15.9492 3.23087 15.9118 3.22153 15.8745 3.2087C15.7769 3.17548 15.6753 3.15547 15.5723 3.1492C15.5467 3.14687 15.5245 3.13403 15.5 3.13403H7.33333C6.0465 3.13403 5 4.18053 5 5.46737V24.134C5 25.4209 6.0465 26.4674 7.33333 26.4674H21.3333C22.6202 26.4674 23.6667 25.4209 23.6667 24.134V11.3007C23.6667 11.2762 23.6538 11.254 23.6515 11.2284C23.6455 11.1259 23.6259 11.0247 23.5932 10.9274V10.9274ZM19.6837 10.134H16.6667V7.11703L19.6837 10.134ZM7.33333 24.134V5.46737H14.3333V11.3007C14.3333 11.6101 14.4562 11.9069 14.675 12.1257C14.8938 12.3445 15.1906 12.4674 15.5 12.4674H21.3333L21.3357 24.134H7.33333Z" fill="#F47B20"/>
</svg>
