<svg  viewBox="0 0 28 28" fill="none" xmlns="http://www.w3.org/2000/svg">
<path d="M24.1582 6.79693L20.034 2.6751C19.8166 2.4573 19.5219 2.33433 19.2141 2.33302C18.9064 2.33171 18.6106 2.45216 18.3914 2.6681L8.27869 12.6233C8.12106 12.7793 8.01066 12.9766 7.96019 13.1926L6.76552 18.3691L4.66669 20.9999H7.96602L9.29835 19.6828L13.4844 18.7168C13.6944 18.6678 13.8869 18.5616 14.0409 18.4111L24.1524 8.4536C24.2621 8.34553 24.3493 8.2168 24.4091 8.07484C24.4688 7.93288 24.4998 7.7805 24.5004 7.62648C24.5009 7.47247 24.471 7.31987 24.4122 7.17749C24.3535 7.03511 24.2672 6.90577 24.1582 6.79693V6.79693ZM13.2277 15.9354L10.7532 13.4621L19.2034 5.1426L21.6767 7.61593L13.2277 15.9354ZM4.66669 23.3333H23.3334V25.6666H4.66669V23.3333Z" fill="#335DB4"/>
</svg>
