<svg  viewBox="0 0 28 28" fill="none" xmlns="http://www.w3.org/2000/svg">
<path d="M23.1875 3.5H4.81248C3.44515 3.5 2.33331 4.5465 2.33331 5.83333V22.1667C2.33331 23.4535 3.44515 24.5 4.81248 24.5H23.1875C24.5548 24.5 25.6666 23.4535 25.6666 22.1667V5.83333C25.6666 4.5465 24.5548 3.5 23.1875 3.5ZM23.1875 22.1667H4.81248C4.74598 22.1667 4.70048 22.148 4.68065 22.148C4.67248 22.148 4.66781 22.1503 4.66665 22.1573L4.65265 5.887C4.66081 5.87533 4.71331 5.83333 4.81248 5.83333H23.1875C23.2796 5.8345 23.3298 5.866 23.3333 5.84267L23.3473 22.113C23.3391 22.1247 23.2866 22.1667 23.1875 22.1667Z" fill="#335DB4"/>
<path d="M7 8.16675H14V15.1667H7V8.16675ZM15.1667 17.5001H7V19.8334H21V17.5001H16.3333H15.1667ZM16.3333 12.8334H21V15.1667H16.3333V12.8334ZM16.3333 8.16675H21V10.5001H16.3333V8.16675Z" fill="#335DB4"/>
</svg>
