<svg  viewBox="0 0 51 51" fill="none" xmlns="http://www.w3.org/2000/svg">
<path d="M19.125 19.125C19.125 11.6875 30.8125 11.6875 30.8125 19.125C30.8125 24.2851 25.8006 23.4306 25.5129 29.219M25.5129 29.219C25.5044 29.39 25.5 31.5668 25.5 31.7498L25.5129 29.219Z" stroke="#F47B20" stroke-width="2" stroke-linecap="round" stroke-linejoin="round"/>
<path d="M25.5 38.2713L25.5213 38.2477" stroke="#F47B20" stroke-width="3" stroke-linecap="round" stroke-linejoin="round"/>
<path d="M25.5 46.75C37.2359 46.75 46.75 37.2359 46.75 25.5C46.75 13.7639 37.2359 4.25 25.5 4.25C13.7639 4.25 4.25 13.7639 4.25 25.5C4.25 29.3705 5.28481 32.9993 7.09287 36.125L5.3125 45.6875L14.875 43.9072C18.0006 45.7151 21.6295 46.75 25.5 46.75Z" stroke="#F47B20" stroke-width="2" stroke-linecap="round" stroke-linejoin="round"/>
</svg>
