<svg  viewBox="0 0 48 36" fill="none" xmlns="http://www.w3.org/2000/svg">
<rect x="1" y="4" width="38" height="6" fill="#F07620"/>
<path fill-rule="evenodd" clip-rule="evenodd" d="M2 1H38C38.5523 1 39 1.44772 39 2V17.0129C39.3383 17.0305 39.672 17.0657 40 17.1178V2C40 0.895432 39.1046 0 38 0H2C0.895432 0 0 0.895432 0 2V25C0 26.1046 0.895432 27 2 27H29.0129C29.0043 26.8344 29 26.6677 29 26.5C29 26.3323 29.0043 26.1656 29.0129 26H2C1.44772 26 1 25.5523 1 25V2C1 1.44772 1.44772 1 2 1Z" fill="#F07620"/>
<circle cx="38.5" cy="26.5" r="9" stroke="#F07620"/>
<rect x="35.4142" y="25.0442" width="5.10915" height="2" rx="0.5" transform="rotate(45 35.4142 25.0442)" fill="#F07620"/>
<rect x="36.1985" y="28.6569" width="8" height="2" rx="0.5" transform="rotate(-45 36.1985 28.6569)" fill="#F07620"/>
</svg>
