<svg  viewBox="0 0 47 47" fill="none" xmlns="http://www.w3.org/2000/svg">
<rect width="46.2778" height="46.2778" rx="7.58333" fill="#335DB4"/>
<path d="M19.4169 30.196L24.6488 23.4868C24.5102 23.2721 24.5156 22.9855 24.686 22.7767C24.8981 22.5168 25.281 22.4778 25.5413 22.6893C25.8018 22.9008 25.841 23.2828 25.629 23.5427C25.4585 23.7516 25.1784 23.815 24.9396 23.7231L19.4169 30.196ZM36.8726 14.3962C36.8704 14.3933 36.8686 14.3901 36.8665 14.3873C36.6208 14.0325 36.3132 13.6723 36.3132 13.6723L36.3122 13.6737C35.7818 13.0286 35.1979 12.4241 34.5583 11.8732C33.0592 10.5823 31.2757 9.56983 29.265 8.94343C21.4079 6.49595 13.0503 10.868 10.5976 18.7087C8.77276 24.5427 10.7314 30.6531 15.0901 34.4068C16.5894 35.698 18.3726 36.7104 20.3835 37.3368C23.5803 38.3325 26.858 38.1941 29.7891 37.1574C29.9499 37.0908 30.2763 36.9473 30.6585 36.7365C30.6636 36.7338 30.668 36.7312 30.668 36.7312C30.686 36.7213 30.699 36.7141 30.7121 36.7068C31.1044 36.4955 31.4272 36.2717 31.6893 36.0542C32.0915 35.7309 32.4563 35.3454 32.677 34.9057C32.7089 34.8462 32.7239 34.8113 32.7239 34.8113L32.7265 34.8046C32.734 34.7878 32.7401 34.7707 32.7471 34.7537C33.2606 33.5853 32.6596 32.6875 31.7942 32.0409C31.7698 32.0183 31.7487 31.9963 31.7232 31.9737C31.703 31.9606 31.6913 31.9527 31.6913 31.9527L31.6917 31.9551C31.6452 31.9247 31.5964 31.897 31.5491 31.8673C30.4009 31.1067 28.9588 30.7461 28.9588 30.7461L28.9597 30.7481C27.4682 30.3207 25.8677 30.1462 24.3973 30.1062C22.3399 30.0501 20.5392 30.2533 19.657 30.3827C19.666 30.3748 19.6749 30.3675 19.6839 30.3597C19.6904 30.3546 19.698 30.349 19.7037 30.3445C19.8701 30.2031 20.1712 29.9508 20.5738 29.6342C21.7638 28.7071 23.7649 27.287 25.876 26.3397C26.0445 26.2641 26.2141 26.1948 26.3837 26.126C26.4764 26.0885 26.5676 26.0522 26.6537 26.0191C26.8381 25.9486 27.0228 25.8798 27.2073 25.8185C27.324 25.7797 27.4408 25.7402 27.5571 25.7057C27.5571 25.7057 27.5726 25.7008 27.5799 25.6986C27.7565 25.6465 27.9327 25.5995 28.1079 25.5581L28.1093 25.5577L28.1107 25.5547C28.1406 25.4907 30.5303 20.3831 32.0763 18.779C32.0828 18.7721 32.0897 18.7642 32.0964 18.7576C30.4005 16.5551 28.0774 15.4924 28.0774 15.4924C27.8903 15.7813 27.6278 16.0984 27.3055 16.4433C25.578 18.2754 22.2151 20.7691 22.2151 20.7691C22.2151 20.7691 22.221 22.2518 21.4974 24.6686C20.7195 27.1633 19.5485 29.3517 19.2154 29.9565C19.2088 29.9712 19.2001 29.9906 19.1905 30.012C18.9811 29.9762 18.7594 30.0485 18.6158 30.2245C18.4341 30.4472 18.438 30.759 18.6061 30.9772C18.6343 31.0137 18.6659 31.0484 18.7032 31.0789C18.8739 31.2147 19.0719 31.2496 19.2511 31.1923C19.3655 31.1604 19.4715 31.0954 19.5535 30.9982C19.8071 30.9645 20.0553 30.937 20.3002 30.9136C21.5629 30.7919 22.7097 30.8014 23.7451 30.9058C26.3209 31.1655 28.2059 32.0112 29.4582 32.8856C30.9097 34.0763 29.3783 34.9388 29.0549 35.1007C26.5515 35.986 23.7565 36.1125 21.0319 35.2639C19.352 34.7406 17.8313 33.8991 16.5119 32.7629C12.6687 29.4532 11.1626 24.1905 12.675 19.3557C14.7583 12.6954 21.8643 8.95918 28.5419 10.9952C28.5668 11.0028 28.5917 11.0087 28.6166 11.0164C28.7445 11.0563 28.869 11.1025 28.9949 11.1463C29.1532 11.2095 29.3369 11.2955 29.4995 11.4014C29.5136 11.4109 29.5282 11.4198 29.5419 11.4295C29.5474 11.4333 29.5527 11.4375 29.5527 11.4375C29.6997 11.5445 29.8183 11.6658 29.8839 11.8052C29.8882 11.8143 29.8921 11.8232 29.8959 11.8325C29.8984 11.8387 29.8998 11.8454 29.9021 11.8516C29.9183 11.8952 29.9295 11.9372 29.9361 11.9769C29.9391 11.9941 29.9399 12.0094 29.9413 12.0258C29.9428 12.0439 29.944 12.0623 29.944 12.0843C29.9441 12.1093 29.9427 12.1364 29.9395 12.1652L29.9368 12.1838C29.9337 12.2062 29.9285 12.2298 29.9226 12.2534C29.9181 12.2718 29.911 12.2903 29.9046 12.3089L29.8733 12.3721L29.8869 12.3489C29.8645 12.4015 29.8355 12.4544 29.7914 12.5043C29.7835 12.5125 29.777 12.521 29.7681 12.5291C29.7668 12.5303 29.7651 12.5315 29.7651 12.5315C29.6963 12.5912 29.5995 12.6383 29.4635 12.6439C29.4483 12.6435 29.4335 12.6431 29.4155 12.6423C29.4155 12.6423 29.3258 12.6326 29.2224 12.634C29.2085 12.6336 29.1969 12.6334 29.1969 12.6334L29.1916 12.635C29.1788 12.6354 29.1663 12.6352 29.1533 12.6362C28.9238 12.6599 28.5894 12.7715 28.431 13.2025C28.3449 13.4753 28.4056 13.7799 28.6014 14.0002C28.6209 14.022 28.6422 14.0426 28.6643 14.0628C28.6758 14.0731 28.6847 14.0852 28.6969 14.0951L28.7012 14.0979C28.715 14.1082 28.7298 14.1161 28.7439 14.126L28.7407 14.1282L28.7969 14.1609C28.8161 14.1724 28.8347 14.1845 28.8544 14.1944L28.9936 14.2751L29.3668 14.492C29.3819 14.5015 29.3962 14.5102 29.4113 14.5197C29.745 14.7281 30.4243 15.1626 30.9655 15.5745L31.2737 15.8197C31.2737 15.8197 31.8595 16.3351 32.4298 16.8729L33.2177 17.7437C33.2177 17.7437 33.2294 17.7562 33.2349 17.7627L33.2865 17.8196L33.2881 17.8155C33.3059 17.8329 33.3211 17.8519 33.3407 17.8678C33.696 18.1566 34.2188 18.1031 34.5081 17.7483C34.5904 17.6474 34.642 17.5324 34.6697 17.4133C34.6794 17.379 34.6863 17.3421 34.6906 17.303C34.6906 17.303 34.6908 17.2975 34.6912 17.2947C34.6952 17.2517 34.695 17.2059 34.6901 17.1577L34.6883 17.1328C34.6853 17.1098 34.6794 17.0852 34.674 17.0608L34.6723 17.0551C34.6659 17.0186 34.6566 16.9825 34.6453 16.9472C34.5508 16.6959 34.6899 16.5204 34.7807 16.4372L37.0237 14.6301C36.9794 14.5552 36.9276 14.4759 36.8726 14.3962Z" fill="white"/>
</svg>
