<svg  viewBox="0 0 47 47" fill="none" xmlns="http://www.w3.org/2000/svg">
<rect x="0.722168" width="46.2778" height="46.2778" rx="7.58333" fill="#F47B20"/>
<path d="M23.9179 7.4375C15.2153 7.4375 8.15985 14.6582 8.15985 23.5651C8.15985 30.8681 12.8794 37.045 19.3828 39.0306C19.4105 39.0398 19.8066 39.1665 20.0243 39.2227C20.2014 39.2665 20.6463 39.3668 20.6897 39.3753C21.1525 39.4713 21.891 39.5543 22.3675 39.6023C22.9011 39.6559 23.233 39.6676 23.9872 39.6667C23.9996 39.6657 24.1132 39.6085 24.1132 39.4344C24.1132 39.3354 24.0583 39.2942 24.0124 39.274C23.9961 39.2684 23.9313 39.2485 23.9224 39.2446C23.1235 38.9395 22.565 38.3188 22.161 37.6275C21.771 36.9464 21.7161 35.8373 21.7161 34.233L21.7183 27.3658C21.7183 27.3658 23.8247 27.3641 24.1113 27.3641C24.988 27.3641 26.6294 28.0195 26.6626 30.9188L26.6553 34.8321C26.6553 36.4358 26.9218 37.8853 27.5546 38.3929C27.8431 38.6258 28.213 38.7415 28.6729 38.7415C28.8517 38.7523 29.0665 38.7356 29.2066 38.7085C29.2771 38.6944 29.3929 38.6477 29.5496 38.5834C35.4118 36.2342 39.5627 30.3964 39.5627 23.5642C39.5624 14.6582 32.6183 7.4375 23.9179 7.4375ZM22.4955 23.0634C21.8364 22.999 21.7171 22.3617 21.7171 22.3617V17.6842C21.7171 17.6842 21.8323 17.0717 22.4584 16.9864L25.8801 16.9818C26.5346 17.0498 26.6543 17.6832 26.6543 17.6832V22.3613C26.6543 22.3613 26.5343 22.997 25.8769 23.063H22.4955V23.0634ZM29.4405 34.9474L29.4207 29.5C29.4207 27.5601 28.9027 26.6523 28.0289 25.8062C27.6979 25.4864 27.0756 25.3263 26.7724 25.2126C27.7618 24.9882 29.4402 24.2528 29.4402 22.0395C29.4402 21.8141 29.4348 21.4629 29.4402 21.0425C29.4558 19.9563 29.4277 17.5552 29.4277 17.5552C29.3945 14.7192 27.8131 14.127 26.9195 14.0198C26.7801 14.0113 26.6246 14.011 26.4708 14.011C26.4354 14.011 21.2086 14.0113 20.7928 14.0113C19.9043 14.1168 18.3385 14.6872 18.2945 17.5019L18.2967 34.9497C14.1723 32.8975 11.5591 28.5653 11.5591 23.5651C11.5591 16.5905 17.1021 10.9167 23.9179 10.9167C30.7311 10.9167 36.164 16.5908 36.164 23.5651C36.164 28.6127 33.4487 32.7619 29.4405 34.9474Z" fill="white"/>
</svg>
