<svg  viewBox="0 0 189 119" fill="none" xmlns="http://www.w3.org/2000/svg">
<path d="M125.392 66.6056C126.101 66.4721 126.614 65.8529 126.614 65.1316V59.229C126.614 58.5076 126.101 57.8884 125.392 57.7549L119.58 56.66C118.995 56.5497 118.534 56.102 118.378 55.5269C117.809 53.4337 116.977 51.4482 115.922 49.6077C115.626 49.0907 115.635 48.4482 115.972 47.9561L119.309 43.0698C119.716 42.4741 119.641 41.6732 119.131 41.1631L114.959 36.9905C114.449 36.4804 113.648 36.4057 113.052 36.8125L108.166 40.1502C107.674 40.4863 107.031 40.4957 106.514 40.1993C104.674 39.1443 102.689 38.313 100.595 37.7441C100.02 37.5879 99.5721 37.127 99.4617 36.5413L98.3669 30.7296C98.2333 30.0208 97.6141 29.5073 96.8928 29.5073H90.9902C90.2689 29.5073 89.6497 30.0208 89.5161 30.7296L88.4212 36.5414C88.3109 37.1271 87.8632 37.5879 87.2881 37.7442C85.1949 38.313 83.2094 39.1443 81.3689 40.1993C80.8519 40.4957 80.2095 40.4863 79.7174 40.1502L74.8311 36.8125C74.2354 36.4057 73.4344 36.4804 72.9243 36.9905L68.7517 41.1631C68.2417 41.6732 68.1669 42.4741 68.5738 43.0698L71.9114 47.9561C72.2475 48.4482 72.2569 49.0907 71.9605 49.6077C70.9055 51.448 70.0742 53.4328 69.5053 55.5268C69.3491 56.1019 68.8882 56.5497 68.3025 56.66L62.4909 57.7549C61.782 57.8884 61.2686 58.5076 61.2686 59.229V65.1316C61.2686 65.8529 61.782 66.4721 62.4909 66.6056L68.3027 67.7005C68.8883 67.8109 69.3491 68.2586 69.5054 68.8336C70.0743 70.9269 70.9056 72.9124 71.9605 74.7528C72.2569 75.2699 72.2475 75.9123 71.9114 76.4044L68.5738 81.2907C68.1669 81.8864 68.2417 82.6873 68.7517 83.1974L72.9243 87.37C73.4344 87.8801 74.2354 87.9549 74.8311 87.548L79.7174 84.2104C80.2095 83.8742 80.8519 83.8649 81.3689 84.1613C83.2092 85.2163 85.194 86.0476 87.288 86.6164C87.8631 86.7727 88.3109 87.2335 88.4213 87.8192L89.5161 93.6309C89.6497 94.3398 90.2689 94.8532 90.9902 94.8532H96.8928C97.6141 94.8532 98.2333 94.3398 98.3669 93.6309L99.4618 87.8191C99.5721 87.2335 100.02 86.7727 100.595 86.6164C102.688 86.0475 104.674 85.2162 106.514 84.1612C107.031 83.8649 107.674 83.8742 108.166 84.2104L113.052 87.548C113.648 87.9549 114.449 87.8801 114.959 87.37L119.131 83.1974C119.641 82.6873 119.716 81.8864 119.309 81.2907L115.972 76.4044C115.635 75.9123 115.626 75.2699 115.922 74.7529C116.977 72.9126 117.809 70.9278 118.378 68.8338C118.534 68.2586 118.995 67.8108 119.58 67.7005L125.392 66.6056Z" stroke="#F47B20" stroke-width="2" stroke-linejoin="round"/>
<path d="M87.1113 55.5618V68.9199H84.5149L80.3221 60.5619V68.9199H77.7716V55.5618H80.3313L84.5607 64.0115V55.5618H87.1113ZM96.9372 66.6997V68.9199H91.1297V66.6997H96.9372ZM91.9646 55.5618V68.9199H89.2765V55.5618H91.9646ZM96.1574 60.9748V63.1308H91.1297V60.9748H96.1574ZM96.9189 55.5618V57.7912H91.1297V55.5618H96.9189ZM101.231 66.9199L103.369 55.5618H104.781L105.203 57.3233L102.91 68.9199H101.378L101.231 66.9199ZM100.497 55.5618L102.222 66.9474L101.928 68.9199H100.24L97.8455 55.5618H100.497ZM106.754 66.9015L108.47 55.5618H111.112L108.736 68.9199H107.038L106.754 66.9015ZM105.598 55.5618L107.754 66.9841L107.58 68.9199H106.048L103.763 57.3049L104.194 55.5618H105.598Z" fill="#F47B20"/>
<path d="M66.0804 39.2971C66.5112 39.0835 66.729 38.5935 66.5988 38.1305L65.7641 35.1618C65.6339 34.6988 65.1927 34.3941 64.7136 34.4363L61.6086 34.7099C61.2129 34.7448 60.8368 34.5403 60.6303 34.2009C60.0285 33.2116 59.3146 32.3109 58.511 31.511C58.2294 31.2307 58.1192 30.817 58.2461 30.4405L59.2425 27.4851C59.3961 27.0293 59.2036 26.5288 58.7842 26.2935L56.0955 24.785C55.6761 24.5497 55.1486 24.6462 54.8397 25.0148L52.8366 27.4054C52.5814 27.71 52.1709 27.8314 51.7849 27.7372C50.6835 27.4682 49.5431 27.3282 48.3848 27.3303C47.9874 27.331 47.6169 27.1165 47.4404 26.7606L46.0558 23.968C45.8421 23.5372 45.3521 23.3194 44.8892 23.4496L41.9204 24.2844C41.4575 24.4145 41.1527 24.8558 41.1949 25.3348L41.4686 28.4398C41.5034 28.8355 41.299 29.2117 40.9595 29.4181C39.9703 30.0199 39.0696 30.7339 38.2696 31.5374C37.9893 31.819 37.5756 31.9293 37.1992 31.8023L34.2437 30.806C33.788 30.6523 33.2874 30.8448 33.0521 31.2643L31.5436 33.9529C31.3083 34.3723 31.4048 34.8998 31.7735 35.2087L34.1641 37.2118C34.4686 37.467 34.5901 37.8775 34.4958 38.2635C34.2269 39.3649 34.0868 40.5054 34.0889 41.6636C34.0896 42.061 33.8752 42.4315 33.5192 42.608L30.7267 43.9927C30.2958 44.2063 30.0781 44.6963 30.2082 45.1593L31.043 48.128C31.1732 48.591 31.6144 48.8957 32.0934 48.8535L35.1984 48.5799C35.5942 48.545 35.9703 48.7494 36.1768 49.0889C36.7785 50.0782 37.4925 50.9789 38.2961 51.7788C38.5776 52.0591 38.6879 52.4728 38.561 52.8493L37.5646 55.8047C37.411 56.2605 37.6035 56.761 38.0229 56.9963L40.7115 58.5048C41.131 58.7401 41.6585 58.6436 41.9673 58.275L43.9705 55.8843C44.2256 55.5798 44.6361 55.4584 45.0221 55.5526C46.1235 55.8216 47.264 55.9616 48.4223 55.9595C48.8196 55.9588 49.1902 56.1733 49.3667 56.5292L50.7513 59.3218C50.9649 59.7526 51.455 59.9704 51.9179 59.8402L54.8867 59.0054C55.3496 58.8753 55.6543 58.434 55.6121 57.955L55.3385 54.85C55.3036 54.4543 55.5081 54.0781 55.8475 53.8717C56.8368 53.2699 57.7375 52.5559 58.5375 51.7524C58.8178 51.4708 59.2314 51.3605 59.6079 51.4875L62.5634 52.4838C63.0191 52.6375 63.5196 52.445 63.7549 52.0255L65.2635 49.3369C65.4988 48.9175 65.4022 48.39 65.0336 48.0811L62.643 46.078C62.3384 45.8228 62.217 45.4123 62.3112 45.0263C62.5802 43.9249 62.7202 42.7844 62.7182 41.6261C62.7174 41.2288 62.9319 40.8582 63.2879 40.6817L66.0804 39.2971ZM50.5621 49.3201C46.3231 50.512 41.9211 48.0422 40.7292 43.8032C39.5373 39.5642 42.0071 35.1622 46.2461 33.9703C50.4851 32.7784 54.887 35.2482 56.0789 39.4872C57.2708 43.7262 54.8011 48.1282 50.5621 49.3201Z" fill="white" fill-opacity="0.1" stroke="#B3C4D4" stroke-opacity="0.8" stroke-linejoin="round"/>
<path d="M26.7108 63.7931C26.7595 63.685 26.7974 63.5753 26.8318 63.465C26.9214 63.1777 27.1368 62.9516 27.42 62.8498L30.9975 61.5634C31.4293 61.4081 31.7 60.9789 31.6541 60.5223L31.2446 56.4502C31.1987 55.9936 30.8487 55.627 30.3946 55.5608C29.4953 55.4297 27.9674 55.207 26.6753 55.0186C26.3761 54.975 26.116 54.7966 25.9473 54.5458C25.8101 54.342 25.6641 54.1437 25.5109 53.9502C25.3239 53.7138 25.2385 53.4107 25.292 53.1141L25.9614 49.4019C26.0428 48.9503 25.8064 48.5012 25.3881 48.3127L21.6568 46.6313C21.2384 46.4428 20.7459 46.5626 20.4615 46.9228C19.8959 47.6391 18.9336 48.8579 18.1233 49.8842C17.9365 50.1207 17.6531 50.2572 17.3522 50.2736C17.1057 50.2871 16.8605 50.309 16.617 50.3413C16.3173 50.381 16.011 50.3041 15.7801 50.1089L12.9111 47.6825C12.5607 47.3862 12.0537 47.3664 11.6812 47.6344L8.35942 50.0251C7.98697 50.2931 7.84457 50.7798 8.01429 51.2061C8.35477 52.0614 8.93586 53.5212 9.42075 54.7392C9.53204 55.0188 9.5052 55.3295 9.34936 55.5869C9.28953 55.6858 9.23243 55.7868 9.18373 55.8949C9.13502 56.003 9.09712 56.1128 9.06272 56.223C8.97311 56.5103 8.75765 56.7364 8.47448 56.8382L4.89698 58.1247C4.46518 58.2799 4.19447 58.7092 4.24038 59.1657L4.64989 63.2378C4.69581 63.6944 5.04655 64.0611 5.50062 64.1273L9.21867 64.6693C9.51787 64.7129 9.77843 64.8915 9.94725 65.1424C10.0844 65.3462 10.2304 65.5444 10.3835 65.7379C10.5706 65.9742 10.656 66.2774 10.6025 66.574L9.93312 70.2862C9.85169 70.7378 10.0881 71.1868 10.5064 71.3753L14.2377 73.0568C14.6561 73.2453 15.1491 73.1249 15.4334 72.7648L17.7709 69.8043C17.9577 69.5677 18.2414 69.4309 18.5423 69.4145C18.7887 69.401 19.0339 69.3791 19.2774 69.3468C19.5772 69.3071 19.8836 69.384 20.1144 69.5793L22.9834 72.0055C23.3338 72.3018 23.8408 72.3217 24.2133 72.0536L27.5351 69.663C27.9075 69.3949 28.0497 68.9078 27.88 68.4815L26.4739 64.9493C26.3626 64.6697 26.3893 64.3585 26.5451 64.1011C26.605 64.0023 26.6621 63.9012 26.7108 63.7931ZM16.5535 62.937C14.8452 62.1673 14.0845 60.1585 14.8542 58.4502C15.624 56.742 17.6328 55.9812 19.341 56.751C21.0493 57.5208 21.81 59.5296 21.0403 61.2378C20.2705 62.946 18.2617 63.7068 16.5535 62.937Z" fill="white" fill-opacity="0.1" stroke="#B3C4D4" stroke-opacity="0.8" stroke-linejoin="round"/>
<path d="M180.63 68.7008C180.642 68.6506 180.653 68.6005 180.661 68.5505C180.711 68.2538 180.876 67.9929 181.138 67.8442L183.397 66.5603C183.796 66.3337 183.99 65.8645 183.867 65.4225L183.129 62.7753C183.006 62.3333 182.598 62.0318 182.14 62.0441C181.464 62.0621 180.46 62.089 179.575 62.1127C179.273 62.1207 178.987 61.9886 178.774 61.7739C178.695 61.6944 178.615 61.6168 178.532 61.5409C178.31 61.3367 178.174 61.0534 178.176 60.752L178.194 58.176C178.197 57.7172 177.887 57.3151 177.443 57.2007L174.781 56.5158C174.337 56.4015 173.872 56.6038 173.653 57.0071C173.33 57.6039 172.848 58.4928 172.425 59.2723C172.282 59.5373 172.025 59.7193 171.732 59.7911C171.623 59.8177 171.515 59.8468 171.408 59.8783C171.118 59.9637 170.803 59.9411 170.543 59.7881L168.33 58.4906C167.935 58.2584 167.432 58.3254 167.11 58.6531L165.187 60.6154C164.865 60.9431 164.808 61.4467 165.048 61.8378C165.406 62.4219 165.942 63.2945 166.408 64.0537C166.565 64.3102 166.583 64.6181 166.484 64.9022C166.467 64.9501 166.452 64.9989 166.439 65.0491C166.426 65.0992 166.416 65.1493 166.408 65.1993C166.357 65.496 166.193 65.7569 165.931 65.9056L163.671 67.1895C163.272 67.4161 163.079 67.8853 163.202 68.3273L163.94 70.9745C164.063 71.4165 164.471 71.718 164.93 71.7057L167.493 71.6371C167.795 71.6291 168.082 71.7613 168.295 71.9761C168.374 72.0555 168.454 72.133 168.537 72.209C168.759 72.4131 168.895 72.6964 168.893 72.9978L168.875 75.5738C168.872 76.0326 169.182 76.4348 169.626 76.5491L172.287 77.234C172.732 77.3483 173.197 77.1456 173.416 76.7422L174.644 74.4776C174.787 74.2127 175.044 74.0305 175.336 73.9588C175.445 73.9321 175.553 73.9031 175.661 73.8715C175.951 73.7862 176.266 73.8088 176.526 73.9617L178.738 75.2592C179.134 75.4914 179.637 75.4244 179.958 75.0967L181.882 73.1344C182.203 72.8067 182.26 72.3025 182.02 71.9114L180.661 69.6963C180.504 69.4398 180.486 69.1317 180.585 68.8476C180.601 68.7997 180.617 68.7509 180.63 68.7008ZM172.89 69.3791C171.507 69.0232 170.674 67.6135 171.03 66.2305C171.386 64.8475 172.796 64.0148 174.179 64.3707C175.562 64.7266 176.394 66.1363 176.039 67.5193C175.683 68.9023 174.273 69.735 172.89 69.3791Z" fill="white" fill-opacity="0.1" stroke="#B3C4D4" stroke-opacity="0.8" stroke-linejoin="round"/>
<path d="M173.359 35.9941C173.781 35.7645 173.98 35.2666 173.833 34.8089L172.236 29.8532C172.088 29.3955 171.636 29.1076 171.159 29.1678L166.024 29.8159C165.629 29.8657 165.245 29.6761 165.031 29.3416C164.018 27.7614 162.806 26.3478 161.442 25.1234C161.147 24.8581 161.021 24.4482 161.134 24.0672L162.603 19.1009C162.739 18.6397 162.528 18.1467 162.1 17.9274L157.468 15.5531C157.04 15.3337 156.516 15.45 156.221 15.83L153.047 19.922C152.804 20.2359 152.398 20.3737 152.01 20.2886C150.219 19.8958 148.365 19.7373 146.49 19.8381C146.093 19.8595 145.715 19.6581 145.525 19.309L143.053 14.7616C142.823 14.3391 142.325 14.1399 141.868 14.2874L136.912 15.8844C136.454 16.0319 136.166 16.4843 136.227 16.9614L136.875 22.0968C136.924 22.4909 136.735 22.8753 136.4 23.0896C134.82 24.1022 133.407 25.3139 132.182 26.6781C131.917 26.9738 131.507 27.0989 131.126 26.9862L126.16 25.5176C125.698 25.3812 125.206 25.5925 124.986 26.0204L122.612 30.6526C122.392 31.0806 122.509 31.6041 122.889 31.8989L126.981 35.0733C127.295 35.3168 127.432 35.7226 127.347 36.1107C126.955 37.9011 126.796 39.7556 126.897 41.6303C126.918 42.0271 126.717 42.4055 126.368 42.5952L121.82 45.0675C121.398 45.2971 121.199 45.795 121.346 46.2527L122.943 51.2084C123.091 51.6661 123.543 51.954 124.02 51.8938L129.156 51.2457C129.55 51.1959 129.934 51.3855 130.148 51.72C131.161 53.3002 132.373 54.7138 133.737 55.9382C134.033 56.2035 134.158 56.6134 134.045 56.9944L132.576 61.9607C132.44 62.4219 132.651 62.9148 133.079 63.1342L137.711 65.5085C138.139 65.7279 138.663 65.6116 138.958 65.2316L142.132 61.1396C142.376 60.8257 142.781 60.6879 143.169 60.773C144.96 61.1658 146.814 61.3243 148.689 61.2235C149.086 61.2021 149.464 61.4035 149.654 61.7526L152.126 66.3C152.356 66.7225 152.854 66.9217 153.311 66.7742L158.267 65.1772C158.725 65.0297 159.013 64.5773 158.953 64.1002L158.304 58.9648C158.255 58.5707 158.444 58.1863 158.779 57.972C160.359 56.9594 161.773 55.7477 162.997 54.3835C163.262 54.0878 163.672 53.9627 164.053 54.0754L169.019 55.544C169.481 55.6804 169.974 55.4691 170.193 55.0412L172.567 50.409C172.787 49.981 172.67 49.4575 172.29 49.1627L168.198 45.9883C167.884 45.7448 167.747 45.339 167.832 44.9509C168.225 43.1605 168.383 41.306 168.282 39.4312C168.261 39.0345 168.462 38.6561 168.811 38.4664L173.359 35.9941ZM151.13 51.516C145.063 53.4711 138.561 50.1382 136.606 44.0711C134.65 38.004 137.983 31.5016 144.05 29.5464C150.118 27.5913 156.62 30.9242 158.575 36.9913C160.53 43.0584 157.197 49.5608 151.13 51.516Z" fill="white" fill-opacity="0.1" stroke="#B3C4D4" stroke-opacity="0.8" stroke-linejoin="round"/>
<path d="M151.479 83.2456C151.922 83.0594 152.17 82.584 152.069 82.1138L151.518 79.5477C151.418 79.0775 150.996 78.7457 150.515 78.7579L147.845 78.8252C147.448 78.8352 147.085 78.6074 146.899 78.2567C146.428 77.3715 145.86 76.5543 145.212 75.8157C144.95 75.517 144.866 75.0974 145.016 74.7296L146.027 72.255C146.209 71.8098 146.048 71.2982 145.644 71.0371L143.441 69.6125C143.037 69.3514 142.505 69.4147 142.173 69.7632L140.332 71.7006C140.058 71.9886 139.641 72.0837 139.261 71.9673C138.321 71.6796 137.343 71.4969 136.343 71.4309C135.946 71.4048 135.59 71.1679 135.436 70.8016L134.401 68.3386C134.215 67.8952 133.74 67.6472 133.27 67.7481L130.704 68.2989C130.233 68.3998 129.902 68.8211 129.914 69.3018L129.981 71.9724C129.991 72.3696 129.763 72.7318 129.413 72.9184C128.527 73.3891 127.71 73.9571 126.971 74.605C126.673 74.867 126.253 74.9514 125.885 74.8011L123.411 73.7902C122.966 73.6083 122.454 73.7691 122.193 74.1729L120.768 76.3761C120.507 76.78 120.571 77.3125 120.919 77.6439L122.856 79.4857C123.144 79.7594 123.24 80.1767 123.123 80.5565C122.835 81.4959 122.653 82.474 122.587 83.4746C122.561 83.8711 122.324 84.2275 121.957 84.3814L119.494 85.4158C119.051 85.602 118.803 86.0774 118.904 86.5476L119.455 89.1137C119.556 89.5839 119.977 89.9157 120.458 89.9036L123.128 89.8362C123.525 89.8262 123.888 90.054 124.074 90.4048C124.545 91.2899 125.113 92.1072 125.761 92.8458C126.023 93.1445 126.107 93.564 125.957 93.9318L124.946 96.4064C124.764 96.8516 124.925 97.3632 125.329 97.6244L127.532 99.049C127.936 99.3101 128.468 99.2468 128.8 98.8982L130.642 96.9608C130.915 96.6729 131.333 96.5777 131.712 96.6941C132.652 96.9819 133.63 97.1646 134.63 97.2305C135.027 97.2567 135.383 97.4936 135.537 97.8599L136.572 100.323C136.758 100.766 137.233 101.014 137.703 100.913L140.27 100.363C140.74 100.262 141.072 99.8404 141.059 99.3596L140.992 96.689C140.982 96.2919 141.21 95.9296 141.561 95.7431C142.446 95.2724 143.263 94.7044 144.002 94.0565C144.3 93.7945 144.72 93.7101 145.088 93.8603L147.562 94.8713C148.007 95.0532 148.519 94.8924 148.78 94.4885L150.205 92.2853C150.466 91.8814 150.403 91.3489 150.054 91.0176L148.117 89.1758C147.829 88.902 147.734 88.4848 147.85 88.1049C148.138 87.1656 148.32 86.1875 148.386 85.1869C148.412 84.7904 148.649 84.4339 149.016 84.2801L151.479 83.2456ZM136.998 91.371C133.11 92.2055 129.282 89.7303 128.447 85.842C127.613 81.9537 130.088 78.1256 133.976 77.2911C137.864 76.4565 141.692 78.9317 142.527 82.8201C143.362 86.7084 140.886 90.5364 136.998 91.371Z" fill="white" fill-opacity="0.1" stroke="#B3C4D4" stroke-opacity="0.8" stroke-linejoin="round"/>
<path d="M63.9351 75.5572C64.2916 75.2345 64.368 74.7037 64.1168 74.2936L62.1313 71.0514C61.8801 70.6413 61.3726 70.468 60.9231 70.6389L57.3585 71.994C56.9871 72.1352 56.5693 72.041 56.28 71.7688C55.2597 70.8087 54.132 69.9954 52.9306 69.3363C52.5822 69.1452 52.3639 68.7768 52.3836 68.3799L52.5735 64.569C52.5974 64.0886 52.276 63.6593 51.8084 63.5469L48.1129 62.6586C47.6453 62.5462 47.1639 62.7825 46.9669 63.2212L45.4039 66.7021C45.2412 67.0646 44.8792 67.2935 44.482 67.3054C43.1124 67.3463 41.7387 67.558 40.3931 67.9497C40.0116 68.0608 39.5966 67.9548 39.3299 67.6602L36.7707 64.8331C36.448 64.4765 35.9172 64.4002 35.5071 64.6514L32.2648 66.6369C31.8547 66.8881 31.6815 67.3956 31.8524 67.8451L33.2075 71.4097C33.3487 71.781 33.2545 72.1989 32.9823 72.4882C32.0222 73.5085 31.2089 74.6361 30.5498 75.8376C30.3587 76.1859 29.9902 76.4043 29.5934 76.3846L25.7824 76.1947C25.3021 76.1708 24.8728 76.4922 24.7604 76.9598L23.872 80.6553C23.7596 81.1229 23.996 81.6043 24.4347 81.8013L27.9156 83.3643C28.2781 83.527 28.507 83.889 28.5189 84.2861C28.5598 85.6558 28.7715 87.0295 29.1632 88.3751C29.2743 88.7566 29.1682 89.1716 28.8737 89.4383L26.0465 91.9975C25.69 92.3202 25.6137 92.851 25.8649 93.2611L27.8504 96.5033C28.1016 96.9134 28.609 97.0867 29.0585 96.9158L32.6232 95.5607C32.9945 95.4195 33.4123 95.5137 33.7017 95.7859C34.722 96.746 35.8496 97.5593 37.0511 98.2184C37.3994 98.4095 37.6178 98.7779 37.598 99.1748L37.4082 102.986C37.3843 103.466 37.7056 103.895 38.1732 104.008L41.8688 104.896C42.3364 105.009 42.8178 104.772 43.0148 104.333L44.5778 100.853C44.7405 100.49 45.1025 100.261 45.4996 100.249C46.8693 100.208 48.243 99.9967 49.5886 99.605C49.9701 99.4939 50.3851 99.5999 50.6518 99.8945L53.211 102.722C53.5337 103.078 54.0645 103.154 54.4746 102.903L57.7168 100.918C58.1269 100.667 58.3002 100.159 58.1293 99.7096L56.7742 96.145C56.633 95.7737 56.7271 95.3558 56.9994 95.0665C57.9595 94.0462 58.7728 92.9186 59.4319 91.7171C59.623 91.3688 59.9914 91.1504 60.3882 91.1701L64.1992 91.36C64.6795 91.3839 65.1089 91.0625 65.2213 90.5949L66.1096 86.8994C66.222 86.4318 65.9857 85.9504 65.5469 85.7534L62.066 84.1904C61.7036 84.0277 61.4747 83.6657 61.4628 83.2686C61.4218 81.8989 61.2102 80.5252 60.8185 79.1796C60.7074 78.7981 60.8134 78.3831 61.108 78.1164L63.9351 75.5572ZM49.7856 91.6058C45.4619 94.2536 39.8111 92.8953 37.1633 88.5716C34.5154 84.2479 35.8738 78.5971 40.1975 75.9493C44.5212 73.3014 50.1719 74.6598 52.8198 78.9835C55.4676 83.3072 54.1093 88.9579 49.7856 91.6058Z" fill="white" fill-opacity="0.1" stroke="#B3C4D4" stroke-opacity="0.8" stroke-linejoin="round"/>
</svg>
